<svg width="1256" height="101" viewBox="0 0 1256 101" fill="none" xmlns="http://www.w3.org/2000/svg">
<path d="M160.534 76.2212L159.903 76.9971L160.534 76.2212ZM333.363 53.3311L334.153 53.9438L333.363 53.3311ZM272.127 46.8315L273.076 47.1482L272.127 46.8315ZM950.55 53.2231L949.671 53.6994L950.55 53.2231ZM929.198 76.2213L930.188 76.0785L929.198 76.2213ZM1254.33 62.7444C1254.74 63.115 1255.37 63.0834 1255.74 62.6739C1256.11 62.2644 1256.08 61.632 1255.67 61.2615L1255 62.0029L1254.33 62.7444ZM2.89538 49.1475C3.03106 48.6122 2.70705 48.0682 2.17169 47.9325C1.63633 47.7968 1.09235 48.1208 0.956669 48.6562L1.92602 48.9018L2.89538 49.1475ZM3.1853 41.0516C3.00893 41.575 3.29023 42.1423 3.8136 42.3186C4.33697 42.495 4.90421 42.2137 5.08058 41.6903L4.13294 41.371L3.1853 41.0516ZM7.90056 34.4702C8.12781 33.9668 7.90397 33.3745 7.4006 33.1473C6.89723 32.9201 6.30496 33.1439 6.07771 33.6473L6.98914 34.0587L7.90056 34.4702ZM9.79849 26.6015C9.50821 27.0713 9.65377 27.6875 10.1236 27.9778C10.5935 28.2681 11.2097 28.1225 11.5 27.6527L10.6492 27.1271L9.79849 26.6015ZM16.0193 21.5016C16.3839 21.0867 16.3432 20.4549 15.9284 20.0903C15.5135 19.7257 14.8817 19.7664 14.5171 20.1813L15.2682 20.8414L16.0193 21.5016ZM20.4419 14.688C19.9987 15.0176 19.9066 15.644 20.2362 16.0872C20.5658 16.5304 21.1922 16.6224 21.6354 16.2929L21.0386 15.4904L20.4419 14.688ZM28.2102 12.4968C28.7175 12.2785 28.9518 11.6903 28.7335 11.183C28.5152 10.6757 27.9269 10.4414 27.4196 10.6597L27.8149 11.5783L28.2102 12.4968ZM35.1362 8.3345C34.5932 8.43522 34.2347 8.95708 34.3354 9.5001C34.4361 10.0431 34.958 10.4017 35.501 10.301L35.3186 9.31772L35.1362 8.3345ZM43.1458 9.63877C43.6981 9.64058 44.1472 9.19434 44.1491 8.64206C44.1509 8.08977 43.7046 7.64059 43.1523 7.63878L43.1491 8.63878L43.1458 9.63877ZM51.1053 8.26566C50.559 8.1844 50.0503 8.56137 49.9691 9.10764C49.8878 9.65391 50.2648 10.1626 50.811 10.2439L50.9582 9.25478L51.1053 8.26566ZM58.4117 11.8278C58.9457 11.9688 59.4928 11.6502 59.6338 11.1162C59.7748 10.5822 59.4562 10.035 58.9223 9.89404L58.667 10.8609L58.4117 11.8278ZM66.5012 12.2568C65.981 12.0712 65.4089 12.3424 65.2233 12.8626C65.0377 13.3828 65.3089 13.9549 65.8291 14.1405L66.1651 13.1986L66.5012 12.2568ZM73.0673 17.0068C73.5741 17.2263 74.1629 16.9935 74.3824 16.4867C74.6019 15.9799 74.3691 15.3911 73.8623 15.1716L73.4648 16.0892L73.0673 17.0068ZM81.0376 18.5159C80.5431 18.2699 79.9428 18.4714 79.6968 18.9659C79.4508 19.4603 79.6523 20.0606 80.1468 20.3066L80.5922 19.4113L81.0376 18.5159ZM87.0737 23.9466C87.5572 24.2136 88.1655 24.0381 88.4325 23.5547C88.6995 23.0712 88.5241 22.4629 88.0406 22.1959L87.5572 23.0712L87.0737 23.9466ZM94.8882 26.1427C94.4145 25.8587 93.8003 26.0125 93.5163 26.4862C93.2324 26.9598 93.3861 27.574 93.8598 27.858L94.374 27.0003L94.8882 26.1427ZM100.518 31.9887C100.983 32.2866 101.601 32.1511 101.899 31.686C102.197 31.221 102.061 30.6025 101.596 30.3046L101.057 31.1466L100.518 31.9887ZM108.18 34.642C107.723 34.3325 107.101 34.4526 106.791 34.91C106.482 35.3675 106.602 35.9892 107.06 36.2986L107.62 35.4703L108.18 34.642ZM113.506 40.762C113.957 41.081 114.581 40.9742 114.9 40.5234C115.219 40.0725 115.112 39.4485 114.662 39.1294L114.084 39.9457L113.506 40.762ZM121.053 43.7421C120.608 43.415 119.982 43.5106 119.655 43.9556C119.328 44.4006 119.424 45.0265 119.869 45.3536L120.461 44.5478L121.053 43.7421ZM126.158 50.0524C126.598 50.3862 127.225 50.3001 127.559 49.8601C127.893 49.4201 127.807 48.7928 127.367 48.459L126.762 49.2557L126.158 50.0524ZM133.612 53.2616C133.176 52.9222 132.548 53.0004 132.209 53.4362C131.869 53.8719 131.947 54.5002 132.383 54.8396L132.998 54.0506L133.612 53.2616ZM138.554 59.6973C138.986 60.041 139.616 59.9692 139.959 59.5369C140.303 59.1045 140.231 58.4755 139.799 58.1318L139.176 58.9145L138.554 59.6973ZM145.935 63.0502C145.505 62.7032 144.876 62.7704 144.529 63.2001C144.182 63.6298 144.249 64.2594 144.679 64.6063L145.307 63.8283L145.935 63.0502ZM150.768 69.5479C151.197 69.8967 151.826 69.8324 152.175 69.4043C152.524 68.9761 152.46 68.3462 152.032 67.9974L151.4 68.7726L150.768 69.5479ZM158.148 72.9876C157.72 72.6384 157.09 72.7023 156.741 73.1303C156.392 73.5582 156.456 74.1882 156.884 74.5373L157.516 73.7624L158.148 72.9876ZM163.097 79.4806C163.541 79.81 164.167 79.7178 164.497 79.2745C164.826 78.8313 164.734 78.2049 164.291 77.8754L163.694 78.678L163.097 79.4806ZM170.842 82.3275C170.373 82.0364 169.757 82.1808 169.465 82.6502C169.174 83.1195 169.319 83.736 169.788 84.0271L170.315 83.1773L170.842 82.3275ZM176.823 88.0079C177.314 88.2607 177.917 88.0675 178.17 87.5764C178.422 87.0854 178.229 86.4824 177.738 86.2296L177.281 87.1188L176.823 88.0079ZM184.925 89.5879C184.416 89.373 183.829 89.6113 183.614 90.12C183.4 90.6288 183.638 91.2154 184.147 91.4303L184.536 90.5091L184.925 89.5879ZM191.695 94.2999C192.217 94.4777 192.785 94.1979 192.963 93.675C193.141 93.1521 192.861 92.5841 192.338 92.4063L192.016 93.3531L191.695 94.2999ZM199.937 94.6998C199.403 94.5583 198.856 94.8763 198.714 95.4101C198.573 95.944 198.891 96.4915 199.424 96.633L199.681 95.6664L199.937 94.6998ZM207.294 98.4434C207.836 98.5496 208.361 98.1964 208.467 97.6544C208.574 97.1124 208.22 96.587 207.678 96.4807L207.486 97.462L207.294 98.4434ZM215.515 97.7604C214.967 97.6885 214.465 98.0741 214.393 98.6217C214.321 99.1692 214.707 99.6714 215.254 99.7433L215.384 98.7518L215.515 97.7604ZM223.282 100.548C223.833 100.586 224.311 100.171 224.349 99.6197C224.387 99.0688 223.972 98.591 223.421 98.5527L223.352 99.5503L223.282 100.548ZM231.363 98.8676C230.811 98.8621 230.359 99.3053 230.353 99.8576C230.348 100.41 230.791 100.862 231.343 100.867L231.353 99.8675L231.363 98.8676ZM239.405 100.712C239.957 100.685 240.382 100.216 240.355 99.6644C240.329 99.1128 239.86 98.6873 239.308 98.714L239.356 99.7129L239.405 100.712ZM247.233 98.0991C246.684 98.1577 246.286 98.6504 246.345 99.1996C246.404 99.7487 246.896 100.146 247.445 100.088L247.339 99.0935L247.233 98.0991ZM255.437 99.001C255.982 98.9108 256.351 98.396 256.261 97.8512C256.17 97.3063 255.656 96.9377 255.111 97.0278L255.274 98.0144L255.437 99.001ZM262.911 95.5043C262.372 95.6258 262.034 96.1611 262.156 96.6998C262.277 97.2386 262.812 97.5768 263.351 97.4553L263.131 96.4798L262.911 95.5043ZM271.163 95.4521C271.694 95.2993 272 94.7452 271.848 94.2145C271.695 93.6837 271.141 93.3773 270.61 93.5301L270.887 94.4911L271.163 95.4521ZM278.179 91.1065C277.658 91.2905 277.385 91.8618 277.569 92.3825C277.753 92.9033 278.324 93.1762 278.845 92.9922L278.512 92.0493L278.179 91.1065ZM286.366 90.076C286.875 89.8607 287.113 89.2739 286.897 88.7653C286.682 88.2567 286.095 88.0188 285.587 88.2341L285.976 89.155L286.366 90.076ZM292.803 84.9133C292.309 85.1597 292.108 85.7602 292.354 86.2544C292.601 86.7487 293.201 86.9496 293.696 86.7032L293.249 85.8083L292.803 84.9133ZM300.8 82.8745C301.277 82.5971 301.439 81.985 301.162 81.5075C300.884 81.03 300.272 80.8678 299.795 81.1453L300.297 82.0099L300.8 82.8745ZM306.525 76.9333C306.067 77.2416 305.945 77.863 306.254 78.3212C306.562 78.7794 307.183 78.901 307.642 78.5927L307.083 77.763L306.525 76.9333ZM314.184 73.8627C314.62 73.524 314.699 72.8958 314.36 72.4595C314.022 72.0233 313.393 71.9441 312.957 72.2828L313.57 73.0727L314.184 73.8627ZM319.054 67.2018C318.642 67.57 318.607 68.2022 318.975 68.6138C319.343 69.0254 319.975 69.0606 320.387 68.6923L319.72 67.947L319.054 67.2018ZM326.212 63.0953C326.596 62.6986 326.586 62.0656 326.189 61.6813C325.792 61.2971 325.159 61.3072 324.775 61.7039L325.493 62.3996L326.212 63.0953ZM330.081 55.8116C329.727 56.2353 329.783 56.866 330.206 57.2203C330.63 57.5746 331.261 57.5184 331.615 57.0947L330.848 56.4532L330.081 55.8116ZM336.54 50.7074C336.856 50.2548 336.746 49.6314 336.293 49.3148C335.841 48.9983 335.217 49.1085 334.901 49.5611L335.72 50.1343L336.54 50.7074ZM338.935 43.0521C338.673 43.5383 338.854 44.1449 339.34 44.4068C339.827 44.6688 340.433 44.4871 340.695 44.0009L339.815 43.5265L338.935 43.0521ZM343.969 36.688C344.154 36.1675 343.881 35.5959 343.36 35.4115C342.84 35.2271 342.268 35.4996 342.084 36.0201L343.027 36.3541L343.969 36.688ZM343.916 28.6405C343.841 29.1877 344.224 29.6919 344.771 29.7667C345.319 29.8416 345.823 29.4586 345.898 28.9114L344.907 28.776L343.916 28.6405ZM345.945 20.845C345.87 20.2977 345.366 19.9147 344.819 19.9894C344.272 20.064 343.889 20.5682 343.963 21.1154L344.954 20.9802L345.945 20.845ZM341.771 14.0013C342.021 14.4934 342.624 14.689 343.116 14.4382C343.608 14.1875 343.803 13.5853 343.553 13.0932L342.662 13.5473L341.771 14.0013ZM338.612 6.62103C338.204 6.24915 337.571 6.27868 337.199 6.687C336.827 7.09531 336.857 7.72779 337.265 8.09967L337.939 7.36035L338.612 6.62103ZM330.976 4.09047C331.484 4.30743 332.072 4.07159 332.289 3.5637C332.505 3.05582 332.27 2.46822 331.762 2.25126L331.369 3.17087L330.976 4.09047ZM323.933 0.206839C323.384 0.143673 322.888 0.537244 322.825 1.0859C322.762 1.63457 323.156 2.13055 323.704 2.19372L323.819 1.20028L323.933 0.206839ZM316.149 2.28348C316.696 2.21088 317.081 1.7082 317.009 1.16071C316.936 0.613217 316.434 0.228236 315.886 0.30083L316.017 1.29215L316.149 2.28348ZM308.093 2.21171C307.574 2.39802 307.303 2.97053 307.489 3.49044C307.676 4.01035 308.248 4.28078 308.768 4.09447L308.431 3.15309L308.093 2.21171ZM301.85 7.33722C302.327 7.05893 302.489 6.44661 302.21 5.96956C301.932 5.49251 301.32 5.33139 300.843 5.60968L301.347 6.47345L301.85 7.33722ZM294.302 10.177C293.875 10.5274 293.813 11.1575 294.163 11.5844C294.514 12.0113 295.144 12.0733 295.571 11.7229L294.936 10.95L294.302 10.177ZM290.002 16.9918C290.377 16.5862 290.352 15.9535 289.946 15.5786C289.541 15.2038 288.908 15.2286 288.533 15.6342L289.267 16.313L290.002 16.9918ZM283.5 21.7928C283.176 22.24 283.276 22.8652 283.723 23.1893C284.171 23.5133 284.796 23.4135 285.12 22.9662L284.31 22.3795L283.5 21.7928ZM280.922 29.453C281.199 28.9749 281.035 28.3632 280.557 28.0868C280.079 27.8104 279.467 27.9739 279.191 28.452L280.057 28.9525L280.922 29.453ZM275.557 35.4533C275.324 35.9541 275.542 36.5489 276.042 36.7818C276.543 37.0147 277.138 36.7976 277.371 36.2968L276.464 35.8751L275.557 35.4533ZM274.388 43.4372C274.581 42.9199 274.319 42.3438 273.801 42.1503C273.284 41.9569 272.708 42.2195 272.515 42.7368L273.451 43.087L274.388 43.4372ZM270.002 50.4175C269.859 50.951 270.176 51.4993 270.709 51.6422C271.243 51.785 271.791 51.4684 271.934 50.9349L270.968 50.6762L270.002 50.4175ZM270.484 58.5568C270.541 58.0075 270.143 57.5154 269.594 57.4577C269.045 57.3999 268.552 57.7984 268.495 58.3476L269.489 58.4522L270.484 58.5568ZM268.501 66.4698C268.567 67.0182 269.064 67.4099 269.613 67.3446C270.161 67.2793 270.553 66.7818 270.487 66.2334L269.494 66.3516L268.501 66.4698ZM272.446 73.6003C272.226 73.0938 271.637 72.8617 271.13 73.0818C270.624 73.302 270.392 73.8911 270.612 74.3976L271.529 73.9989L272.446 73.6003ZM274.993 81.3246C275.354 81.7423 275.986 81.7881 276.403 81.4268C276.821 81.0656 276.867 80.434 276.506 80.0163L275.749 80.6705L274.993 81.3246ZM282.215 85.1106C281.763 84.7933 281.139 84.9024 280.822 85.3545C280.505 85.8065 280.614 86.4302 281.066 86.7475L281.64 85.9291L282.215 85.1106ZM288.121 90.7779C288.621 91.0114 289.216 90.7948 289.45 90.2943C289.683 89.7938 289.467 89.1988 288.966 88.9654L288.543 89.8716L288.121 90.7779ZM296.206 91.7895C295.681 91.6186 295.117 91.9059 294.946 92.4311C294.775 92.9563 295.063 93.5205 295.588 93.6914L295.897 92.7404L296.206 91.7895ZM303.34 95.821C303.878 95.9449 304.415 95.609 304.539 95.0708C304.662 94.5326 304.327 93.9958 303.788 93.872L303.564 94.8465L303.34 95.821ZM311.541 95.3768C310.996 95.2886 310.483 95.6592 310.395 96.2044C310.307 96.7496 310.677 97.263 311.222 97.3511L311.382 96.364L311.541 95.3768ZM319.153 98.4184C319.702 98.4786 320.196 98.0824 320.256 97.5335C320.316 96.9845 319.92 96.4906 319.371 96.4303L319.262 97.4243L319.153 98.4184ZM327.231 97.1269C326.68 97.0889 326.202 97.5047 326.164 98.0557C326.126 98.6066 326.542 99.0841 327.093 99.1221L327.162 98.1245L327.231 97.1269ZM335.03 99.5345C335.582 99.5544 336.045 99.1231 336.065 98.5711C336.085 98.0192 335.654 97.5557 335.102 97.5358L335.066 98.5352L335.03 99.5345ZM342.981 97.7081C342.429 97.7033 341.977 98.1472 341.972 98.6995C341.968 99.2518 342.412 99.7033 342.964 99.708L342.972 98.708L342.981 97.7081ZM350.903 99.681C351.455 99.6729 351.896 99.2186 351.888 98.6664C351.88 98.1142 351.426 97.6731 350.874 97.6813L350.888 98.6811L350.903 99.681ZM358.789 97.4834C358.237 97.5026 357.805 97.9656 357.824 98.5176C357.844 99.0695 358.307 99.5014 358.858 99.4822L358.824 98.4828L358.789 97.4834ZM366.842 99.1331C367.394 99.1042 367.817 98.6337 367.789 98.0822C367.76 97.5307 367.289 97.1069 366.738 97.1358L366.79 98.1344L366.842 99.1331ZM374.636 96.6609C374.085 96.6982 373.668 97.1751 373.705 97.7261C373.743 98.2771 374.219 98.6936 374.771 98.6563L374.703 97.6586L374.636 96.6609ZM382.662 98.068C383.213 98.0233 383.623 97.5408 383.578 96.9903C383.533 96.4398 383.051 96.0298 382.5 96.0745L382.581 97.0713L382.662 98.068ZM390.421 95.3819C389.872 95.4332 389.467 95.9207 389.519 96.4706C389.57 97.0205 390.058 97.4246 390.608 97.3732L390.514 96.3775L390.421 95.3819ZM398.523 96.589C399.073 96.5317 399.471 96.0398 399.414 95.4905C399.357 94.9413 398.865 94.5425 398.316 94.5999L398.419 95.5945L398.523 96.589ZM406.158 93.741C405.609 93.8038 405.215 94.2995 405.278 94.8482C405.341 95.3969 405.837 95.7908 406.385 95.728L406.272 94.7345L406.158 93.741ZM414.33 94.7822C414.878 94.7145 415.268 94.2152 415.2 93.6671C415.132 93.119 414.633 92.7296 414.085 92.7973L414.208 93.7898L414.33 94.7822ZM421.9 91.7989C421.353 91.8711 420.967 92.3735 421.04 92.921C421.112 93.4685 421.614 93.8539 422.162 93.7817L422.031 92.7903L421.9 91.7989ZM430.047 92.7115C430.594 92.6352 430.975 92.1299 430.899 91.5829C430.822 91.0359 430.317 90.6544 429.77 90.7307L429.908 91.7211L430.047 92.7115ZM437.624 89.6068C437.078 89.6869 436.7 90.1948 436.78 90.7413C436.86 91.2877 437.368 91.6657 437.914 91.5856L437.769 90.5962L437.624 89.6068ZM445.749 90.411C446.295 90.3274 446.67 89.8171 446.586 89.2712C446.503 88.7253 445.993 88.3505 445.447 88.4341L445.598 89.4226L445.749 90.411ZM453.317 87.2044C452.772 87.2913 452.4 87.8038 452.487 88.3492C452.574 88.8946 453.086 89.2664 453.632 89.1795L453.474 88.1919L453.317 87.2044ZM461.43 87.9151C461.975 87.8252 462.344 87.3106 462.254 86.7657C462.164 86.2208 461.65 85.8519 461.105 85.9418L461.267 86.9285L461.43 87.9151ZM468.974 84.6225C468.43 84.7153 468.064 85.2318 468.156 85.7762C468.249 86.3207 468.766 86.6869 469.31 86.5942L469.142 85.6084L468.974 84.6225ZM477.086 85.2507C477.63 85.1554 477.993 84.6371 477.898 84.0931C477.803 83.5491 477.284 83.1854 476.74 83.2807L476.913 84.2657L477.086 85.2507ZM484.596 81.8854C484.052 81.9833 483.691 82.5032 483.789 83.0467C483.887 83.5903 484.407 83.9516 484.95 83.8538L484.773 82.8696L484.596 81.8854ZM492.717 82.4391C493.26 82.339 493.619 81.8175 493.519 81.2744C493.419 80.7312 492.897 80.3721 492.354 80.4722L492.535 81.4556L492.717 82.4391ZM500.185 79.0122C499.643 79.1145 499.286 79.6374 499.388 80.1801C499.49 80.7229 500.013 81.0799 500.556 80.9776L500.371 79.9949L500.185 79.0122ZM508.327 79.4973C508.87 79.3929 509.225 78.8687 509.12 78.3263C509.016 77.784 508.492 77.4289 507.949 77.5333L508.138 78.5153L508.327 79.4973ZM515.748 76.018C515.206 76.1243 514.853 76.6498 514.959 77.1918C515.066 77.7337 515.591 78.0869 516.133 77.9806L515.94 76.9993L515.748 76.018ZM627.121 30.5808C627.66 30.4589 627.998 29.9234 627.876 29.3848C627.754 28.8461 627.219 28.5082 626.68 28.6301L626.901 29.6054L627.121 30.5808ZM634.629 26.8986C634.089 27.012 633.742 27.5421 633.856 28.0826C633.969 28.6231 634.499 28.9694 635.04 28.856L634.835 27.8773L634.629 26.8986ZM643 27.2445C643.542 27.1386 643.896 26.6134 643.79 26.0713C643.684 25.5293 643.159 25.1757 642.617 25.2816L642.809 26.2631L643 27.2445ZM650.584 23.7772C650.041 23.8763 649.681 24.3971 649.78 24.9405C649.879 25.4838 650.4 25.8438 650.943 25.7447L650.764 24.7609L650.584 23.7772ZM658.888 24.3417C659.433 24.2488 659.799 23.7321 659.706 23.1877C659.613 22.6433 659.096 22.2773 658.552 22.3703L658.72 23.356L658.888 24.3417ZM666.563 21.0462C666.018 21.1334 665.647 21.6462 665.734 22.1916C665.821 22.7369 666.334 23.1083 666.879 23.0212L666.721 22.0337L666.563 21.0462ZM674.909 21.7793C675.455 21.6976 675.832 21.1886 675.75 20.6424C675.668 20.0962 675.159 19.7196 674.613 19.8013L674.761 20.7903L674.909 21.7793ZM682.623 18.6431C682.076 18.7195 681.695 19.2249 681.771 19.7718C681.848 20.3188 682.353 20.7003 682.9 20.6238L682.762 19.6334L682.623 18.6431ZM690.915 19.5418C691.463 19.4705 691.849 18.9687 691.778 18.421C691.706 17.8734 691.205 17.4873 690.657 17.5586L690.786 18.5502L690.915 19.5418ZM698.727 16.5446C698.179 16.611 697.788 17.1093 697.854 17.6575C697.921 18.2058 698.419 18.5965 698.967 18.5301L698.847 17.5374L698.727 16.5446ZM707.001 17.5941C707.55 17.5326 707.945 17.0378 707.883 16.489C707.822 15.9401 707.327 15.545 706.778 15.6065L706.889 16.6003L707.001 17.5941ZM714.84 14.7396C714.29 14.7962 713.891 15.2875 713.947 15.8368C714.004 16.3862 714.495 16.7857 715.045 16.729L714.942 15.7343L714.84 14.7396ZM723.116 15.9332C723.665 15.8814 724.069 15.3937 724.017 14.8438C723.966 14.294 723.478 13.8902 722.928 13.942L723.022 14.9376L723.116 15.9332ZM731.001 13.2179C730.451 13.2648 730.043 13.7489 730.09 14.2992C730.137 14.8495 730.621 15.2576 731.171 15.2107L731.086 14.2143L731.001 13.2179ZM739.241 14.5594C739.791 14.5174 740.204 14.037 740.162 13.4863C740.12 12.9356 739.639 12.5232 739.089 12.5651L739.165 13.5622L739.241 14.5594ZM747.189 11.9849C746.638 12.0219 746.221 12.4985 746.258 13.0496C746.295 13.6006 746.772 14.0174 747.323 13.9805L747.256 12.9827L747.189 11.9849ZM755.398 13.4768C755.949 13.445 756.37 12.9723 756.338 12.4209C756.307 11.8695 755.834 11.4484 755.282 11.4802L755.34 12.4785L755.398 13.4768ZM763.388 11.0514C762.836 11.0779 762.411 11.5466 762.437 12.0982C762.464 12.6499 762.932 13.0756 763.484 13.049L763.436 12.0502L763.388 11.0514ZM771.569 12.7002C772.121 12.6791 772.551 12.2146 772.53 11.6628C772.509 11.1109 772.044 10.6806 771.492 10.7016L771.531 11.7009L771.569 12.7002ZM779.608 10.4333C779.056 10.4487 778.621 10.9087 778.636 11.4608C778.652 12.0129 779.112 12.448 779.664 12.4326L779.636 11.4329L779.608 10.4333ZM787.755 12.25C788.307 12.2406 788.747 11.7852 788.737 11.233C788.728 10.6808 788.273 10.2409 787.72 10.2503L787.738 11.2502L787.755 12.25ZM795.832 10.1564C795.28 10.1597 794.835 10.6101 794.838 11.1623C794.841 11.7146 795.292 12.1597 795.844 12.1564L795.838 11.1564L795.832 10.1564ZM803.947 12.1563C804.499 12.1596 804.95 11.7145 804.953 11.1623C804.956 10.61 804.511 10.1596 803.959 10.1563L803.953 11.1563L803.947 12.1563ZM812.067 10.2553C811.515 10.245 811.059 10.6843 811.049 11.2365C811.039 11.7887 811.478 12.2447 812.03 12.2549L812.049 11.2551L812.067 10.2553ZM820.119 12.4588C820.671 12.4765 821.133 12.0433 821.151 11.4913C821.168 10.9393 820.735 10.4775 820.183 10.4598L820.151 11.4593L820.119 12.4588ZM828.309 10.7779C827.758 10.7523 827.29 11.1787 827.264 11.7304C827.238 12.2821 827.665 12.7501 828.216 12.7757L828.263 11.7768L828.309 10.7779ZM836.28 13.2124C836.832 13.2466 837.306 12.8275 837.34 12.2763C837.375 11.7251 836.955 11.2505 836.404 11.2163L836.342 12.2143L836.28 13.2124ZM844.504 11.7867C843.953 11.7432 843.471 12.1542 843.428 12.7048C843.384 13.2554 843.795 13.737 844.346 13.7805L844.425 12.7836L844.504 11.7867ZM852.421 14.4934C852.97 14.5471 853.459 14.1451 853.513 13.5955C853.567 13.0458 853.165 12.5566 852.615 12.5029L852.518 13.4981L852.421 14.4934ZM860.686 13.3743C860.138 13.3093 859.64 13.7013 859.575 14.2497C859.51 14.7981 859.902 15.2954 860.451 15.3604L860.568 14.3674L860.686 13.3743ZM868.43 16.3966C868.977 16.474 869.483 16.0935 869.561 15.5467C869.638 14.9999 869.258 14.4938 868.711 14.4164L868.571 15.4065L868.43 16.3966ZM876.781 15.6635C876.236 15.572 875.72 15.9393 875.629 16.484C875.537 17.0286 875.905 17.5443 876.449 17.6359L876.615 16.6497L876.781 15.6635ZM884.407 19.0906C884.948 19.198 885.475 18.8459 885.582 18.3042C885.69 17.7625 885.337 17.2362 884.796 17.1288L884.601 18.1097L884.407 19.0906ZM892.745 18.8415C892.207 18.7159 891.669 19.05 891.544 19.5879C891.418 20.1257 891.752 20.6635 892.29 20.7891L892.518 19.8153L892.745 18.8415ZM900.086 22.7677C900.618 22.9143 901.169 22.6016 901.315 22.0691C901.462 21.5366 901.149 20.9861 900.617 20.8395L900.351 21.8036L900.086 22.7677ZM908.395 23.1718C907.87 23.0005 907.306 23.2874 907.135 23.8124C906.963 24.3375 907.25 24.902 907.775 25.0732L908.085 24.1225L908.395 23.1718ZM915.372 27.7831C915.887 27.9838 916.466 27.7294 916.667 27.2149C916.868 26.7003 916.613 26.1205 916.099 25.9198L915.735 26.8515L915.372 27.7831ZM923.616 29.1471C923.117 28.911 922.521 29.1244 922.284 29.6237C922.048 30.1229 922.262 30.7191 922.761 30.9552L923.188 30.0511L923.616 29.1471ZM929.853 34.6811C930.329 34.96 930.942 34.7997 931.221 34.323C931.5 33.8463 931.339 33.2338 930.863 32.9549L930.358 33.818L929.853 34.6811ZM937.704 37.468C937.262 37.1375 936.635 37.2282 936.304 37.6707C935.974 38.1132 936.065 38.7398 936.507 39.0703L937.106 38.2691L937.704 37.468ZM942.544 44.2706C942.934 44.6616 943.568 44.6625 943.959 44.2725C944.35 43.8825 944.351 43.2493 943.961 42.8583L943.253 43.5644L942.544 44.2706ZM949.269 49.2175C948.957 48.762 948.334 48.6458 947.879 48.958C947.423 49.2702 947.307 49.8926 947.619 50.3482L948.444 49.7829L949.269 49.2175ZM951.425 57.032C951.676 57.5239 952.279 57.7189 952.77 57.4677C953.262 57.2165 953.457 56.6141 953.206 56.1223L952.316 56.5772L951.425 57.032ZM956.419 62.8615C956.196 62.3561 955.606 62.1269 955.101 62.3496C954.595 62.5723 954.366 63.1625 954.589 63.6679L955.504 63.2647L956.419 62.8615ZM957.328 70.5561C957.51 71.0772 958.081 71.3513 958.602 71.1683C959.123 70.9854 959.398 70.4146 959.215 69.8935L958.271 70.2248L957.328 70.5561ZM961.342 77.1227C961.217 76.5846 960.68 76.2493 960.142 76.3738C959.604 76.4983 959.269 77.0354 959.393 77.5735L960.368 77.3481L961.342 77.1227ZM960.457 84.7723C960.484 85.3239 960.953 85.7488 961.505 85.7215C962.057 85.6941 962.482 85.2247 962.454 84.6731L961.456 84.7227L960.457 84.7723ZM961.695 92.3706C961.85 91.8404 961.546 91.2852 961.016 91.1306C960.485 90.9759 959.93 91.2803 959.776 91.8104L960.735 92.0905L961.695 92.3706ZM956.117 97.3736C955.668 97.6963 955.567 98.3213 955.89 98.7694C956.212 99.2176 956.837 99.3192 957.285 98.9964L956.701 98.185L956.117 97.3736ZM949.539 100.95C950.089 100.998 950.574 100.591 950.622 100.04C950.67 99.4902 950.263 99.0053 949.713 98.9572L949.626 99.9534L949.539 100.95ZM943.101 96.7434C942.622 96.4676 942.011 96.6319 941.735 97.1104C941.459 97.5889 941.623 98.2004 942.102 98.4762L942.601 97.6098L943.101 96.7434ZM936.102 93.6067C936.475 94.014 937.108 94.0417 937.515 93.6687C937.922 93.2956 937.95 92.6631 937.577 92.2558L936.84 92.9313L936.102 93.6067ZM933.466 86.3693C933.21 85.8802 932.606 85.6916 932.116 85.948C931.627 86.2045 931.439 86.8089 931.695 87.298L932.581 86.8337L933.466 86.3693ZM928.959 80.1338C929.096 80.6688 929.64 80.9915 930.175 80.8545C930.71 80.7176 931.033 80.1728 930.896 79.6378L929.927 79.8858L928.959 80.1338ZM930.399 72.5167C930.523 71.9785 930.187 71.4418 929.649 71.3178C929.11 71.1939 928.574 71.5297 928.45 72.0679L929.424 72.2923L930.399 72.5167ZM931.921 64.4903C931.619 64.9525 931.748 65.5723 932.211 65.8745C932.673 66.1767 933.293 66.047 933.595 65.5847L932.758 65.0375L931.921 64.4903ZM938.364 59.5182C938.735 59.1095 938.705 58.477 938.296 58.1056C937.887 57.7343 937.255 57.7645 936.884 58.1733L937.624 58.8458L938.364 59.5182ZM942.618 52.4888C942.209 52.8592 942.177 53.4915 942.547 53.9012C942.918 54.3109 943.55 54.3427 943.96 53.9723L943.289 53.2305L942.618 52.4888ZM950.02 48.8847C950.455 48.544 950.531 47.9154 950.19 47.4807C949.85 47.0461 949.221 46.9699 948.787 47.3106L949.403 48.0977L950.02 48.8847ZM955.244 42.5409C954.791 42.8571 954.68 43.4805 954.996 43.9333C955.312 44.3862 955.936 44.497 956.388 44.1808L955.816 43.3609L955.244 42.5409ZM962.99 39.8022C963.457 39.5075 963.596 38.8899 963.302 38.4228C963.007 37.9558 962.389 37.8161 961.922 38.1109L962.456 38.9566L962.99 39.8022ZM968.788 33.9745C968.31 34.25 968.145 34.8613 968.42 35.34C968.696 35.8187 969.307 35.9834 969.786 35.708L969.287 34.8412L968.788 33.9745ZM976.753 31.8711C977.241 31.6135 977.429 31.0087 977.171 30.5201C976.913 30.0316 976.309 29.8443 975.82 30.1019L976.286 30.9865L976.753 31.8711ZM983.002 26.4742C982.505 26.7148 982.297 27.3128 982.537 27.8099C982.778 28.3071 983.376 28.5151 983.873 28.2745L983.438 27.3744L983.002 26.4742ZM991.048 24.946C991.552 24.7217 991.779 24.1307 991.555 23.626C991.331 23.1213 990.74 22.8941 990.235 23.1185L990.641 24.0323L991.048 24.946ZM997.583 19.9882C997.071 20.1968 996.826 20.7805 997.034 21.2919C997.243 21.8032 997.827 22.0487 998.338 21.8401L997.96 20.9142L997.583 19.9882ZM1005.75 18.9463C1006.27 18.7533 1006.53 18.1773 1006.34 17.6599C1006.15 17.1424 1005.57 16.8794 1005.05 17.0724L1005.4 18.0093L1005.75 18.9463ZM1012.61 14.3817C1012.09 14.5593 1011.81 15.1271 1011.99 15.6501C1012.16 16.1731 1012.73 16.4531 1013.25 16.2756L1012.93 15.3286L1012.61 14.3817ZM1020.78 13.8414C1021.31 13.6792 1021.61 13.1197 1021.45 12.5918C1021.28 12.0639 1020.72 11.7674 1020.2 11.9296L1020.49 12.8855L1020.78 13.8414ZM1027.89 9.6882C1027.36 9.83496 1027.04 10.3856 1027.19 10.918C1027.34 11.4504 1027.89 11.7631 1028.42 11.6163L1028.15 10.6522L1027.89 9.6882ZM1036.12 9.61334C1036.66 9.48215 1036.99 8.9409 1036.86 8.40442C1036.72 7.86795 1036.18 7.53939 1035.65 7.67058L1035.88 8.64196L1036.12 9.61334ZM1043.42 5.88851C1042.88 6.00403 1042.54 6.53548 1042.65 7.07555C1042.77 7.61562 1043.3 7.95979 1043.84 7.84427L1043.63 6.86639L1043.42 5.88851ZM1051.65 6.29426C1052.19 6.1947 1052.55 5.67361 1052.45 5.13037C1052.35 4.58713 1051.83 4.22746 1051.29 4.32703L1051.47 5.31064L1051.65 6.29426ZM1059.17 3.00183C1058.63 3.08522 1058.25 3.59541 1058.34 4.14136C1058.42 4.68731 1058.93 5.06229 1059.48 4.97889L1059.33 3.99036L1059.17 3.00183ZM1067.34 3.89862C1067.88 3.83165 1068.27 3.33295 1068.21 2.78474C1068.14 2.23653 1067.64 1.84641 1067.09 1.91338L1067.21 2.906L1067.34 3.89862ZM1075.08 1.06143C1074.53 1.1116 1074.12 1.59814 1074.17 2.14814C1074.22 2.69814 1074.71 3.10333 1075.26 3.05315L1075.17 2.05729L1075.08 1.06143ZM1083.15 2.45542C1083.7 2.42223 1084.12 1.94842 1084.09 1.39713C1084.06 0.845844 1083.58 0.425843 1083.03 0.459032L1083.09 1.45722L1083.15 2.45542ZM1091.03 0.10316C1090.48 0.118984 1090.05 0.579343 1090.06 1.1314C1090.08 1.68346 1090.54 2.11816 1091.09 2.10234L1091.06 1.10275L1091.03 0.10316ZM1099.03 2.00135C1099.58 2.00317 1100.03 1.55694 1100.03 1.00466C1100.04 0.452374 1099.59 0.00318235 1099.04 0.00135767L1099.03 1.00135L1099.03 2.00135ZM1107.03 0.157142C1106.48 0.137399 1106.02 0.568824 1106 1.12076C1105.98 1.67269 1106.41 2.13612 1106.96 2.15586L1107 1.1565L1107.03 0.157142ZM1114.91 2.57165C1115.46 2.60965 1115.94 2.1938 1115.98 1.64282C1116.01 1.09185 1115.6 0.614389 1115.05 0.576393L1114.98 1.57402L1114.91 2.57165ZM1123 1.25804C1122.45 1.20166 1121.96 1.60133 1121.9 2.15072C1121.84 2.70012 1122.24 3.19121 1122.79 3.24759L1122.9 2.25281L1123 1.25804ZM1130.69 4.1941C1131.24 4.26916 1131.74 3.88645 1131.82 3.33929C1131.89 2.79213 1131.51 2.28772 1130.96 2.21265L1130.83 3.20337L1130.69 4.1941ZM1138.86 3.43402C1138.32 3.3402 1137.8 3.70535 1137.7 4.24961C1137.61 4.79386 1137.98 5.31113 1138.52 5.40495L1138.69 4.41948L1138.86 3.43402ZM1146.32 6.89003C1146.86 7.00276 1147.39 6.65585 1147.5 6.11519C1147.62 5.57454 1147.27 5.04486 1146.73 4.93213L1146.53 5.91108L1146.32 6.89003ZM1154.54 6.70327C1154 6.57161 1153.46 6.89968 1153.33 7.43604C1153.19 7.9724 1153.52 8.51394 1154.06 8.64561L1154.3 7.67444L1154.54 6.70327ZM1161.72 10.6716C1162.26 10.8221 1162.81 10.5134 1162.96 9.98206C1163.11 9.45069 1162.8 8.89788 1162.27 8.74732L1162 9.70945L1161.72 10.6716ZM1169.95 11.0706C1169.42 10.9012 1168.86 11.19 1168.69 11.7157C1168.52 12.2414 1168.81 12.8048 1169.33 12.9742L1169.64 12.0224L1169.95 11.0706ZM1176.82 15.5359C1177.34 15.7239 1177.91 15.4554 1178.1 14.9361C1178.29 14.4168 1178.02 13.8434 1177.5 13.6554L1177.16 14.5956L1176.82 15.5359ZM1185 16.525C1184.49 16.3185 1183.91 16.5663 1183.7 17.0786C1183.5 17.5908 1183.74 18.1734 1184.26 18.3799L1184.63 17.4525L1185 16.525ZM1191.53 21.4642C1192.04 21.6887 1192.63 21.4617 1192.85 20.9571C1193.08 20.4525 1192.85 19.8614 1192.35 19.6369L1191.94 20.5505L1191.53 21.4642ZM1199.64 23.0376C1199.14 22.7953 1198.54 23.0012 1198.3 23.4974C1198.06 23.9937 1198.26 24.5925 1198.76 24.8348L1199.2 23.9362L1199.64 23.0376ZM1205.79 28.4211C1206.28 28.6807 1206.88 28.4958 1207.14 28.0083C1207.4 27.5208 1207.22 26.9152 1206.73 26.6557L1206.26 27.5384L1205.79 28.4211ZM1213.77 30.5629C1213.29 30.2865 1212.68 30.45 1212.4 30.9281C1212.12 31.4063 1212.29 32.018 1212.77 32.2944L1213.27 31.4286L1213.77 30.5629ZM1219.52 36.3566C1219.99 36.6492 1220.61 36.5066 1220.9 36.0381C1221.2 35.5697 1221.05 34.9528 1220.58 34.6602L1220.05 35.5084L1219.52 36.3566ZM1227.34 39.04C1226.88 38.7317 1226.26 38.8533 1225.95 39.3116C1225.64 39.7698 1225.76 40.3912 1226.22 40.6995L1226.78 39.8697L1227.34 39.04ZM1232.69 45.209C1233.14 45.5321 1233.77 45.431 1234.09 44.9832C1234.41 44.5353 1234.31 43.9103 1233.86 43.5871L1233.28 44.398L1232.69 45.209ZM1240.31 48.3975C1239.87 48.0599 1239.24 48.1406 1238.9 48.5777C1238.56 49.0148 1238.65 49.6428 1239.08 49.9804L1239.69 49.189L1240.31 48.3975ZM1245.26 54.9091C1245.69 55.2603 1246.32 55.1995 1246.67 54.7733C1247.02 54.347 1246.96 53.7168 1246.53 53.3656L1245.9 54.1374L1245.26 54.9091ZM1252.64 58.5588C1252.22 58.1945 1251.59 58.2358 1251.23 58.651C1250.86 59.0661 1250.9 59.6979 1251.32 60.0622L1251.98 59.3105L1252.64 58.5588ZM1 52.8322L1.97693 53.0458C2.26876 51.7107 2.57504 50.4115 2.89538 49.1475L1.92602 48.9018L0.956669 48.6562C0.630734 49.9422 0.319429 51.2629 0.0230668 52.6187L1 52.8322ZM4.13294 41.371L5.08058 41.6903C5.9517 39.1053 6.89329 36.7014 7.90056 34.4702L6.98914 34.0587L6.07771 33.6473C5.04117 35.9433 4.07581 38.409 3.1853 41.0516L4.13294 41.371ZM10.6492 27.1271L11.5 27.6527C12.9177 25.358 14.4272 23.3131 16.0193 21.5016L15.2682 20.8414L14.5171 20.1813C12.8459 22.0827 11.2707 24.2186 9.79849 26.6015L10.6492 27.1271ZM21.0386 15.4904L21.6354 16.2929C23.7236 14.7399 25.9191 13.4828 28.2102 12.4968L27.8149 11.5783L27.4196 10.6597C24.9862 11.7069 22.6554 13.0419 20.4419 14.688L21.0386 15.4904ZM35.3186 9.31772L35.501 10.301C37.9642 9.84406 40.5161 9.63015 43.1458 9.63877L43.1491 8.63878L43.1523 7.63878C40.4101 7.62979 37.7331 7.85281 35.1362 8.3345L35.3186 9.31772ZM50.9582 9.25478L50.811 10.2439C53.2956 10.6135 55.8321 11.1467 58.4117 11.8278L58.667 10.8609L58.9223 9.89404C56.2793 9.19621 53.6704 8.64723 51.1053 8.26566L50.9582 9.25478ZM66.1651 13.1986L65.8291 14.1405C68.2177 14.9927 70.6327 15.9521 73.0673 17.0068L73.4648 16.0892L73.8623 15.1716C71.3912 14.1011 68.9352 13.1252 66.5012 12.2568L66.1651 13.1986ZM80.5922 19.4113L80.1468 20.3066C82.447 21.4509 84.7578 22.6676 87.0737 23.9466L87.5572 23.0712L88.0406 22.1959C85.7018 20.9042 83.3656 19.6741 81.0376 18.5159L80.5922 19.4113ZM94.374 27.0003L93.8598 27.858C96.0814 29.1899 98.3022 30.5697 100.518 31.9887L101.057 31.1466L101.596 30.3046C99.3657 28.8758 97.128 27.4855 94.8882 26.1427L94.374 27.0003ZM107.62 35.4703L107.06 36.2986C109.22 37.76 111.371 39.2506 113.506 40.762L114.084 39.9457L114.662 39.1294C112.515 37.6106 110.353 36.1119 108.18 34.642L107.62 35.4703ZM120.461 44.5478L119.869 45.3536C121.987 46.9103 124.085 48.4794 126.158 50.0524L126.762 49.2557L127.367 48.459C125.286 46.8806 123.18 45.3053 121.053 43.7421L120.461 44.5478ZM132.998 54.0506L132.383 54.8396C134.474 56.4674 136.532 58.0898 138.554 59.6973L139.176 58.9145L139.799 58.1318C137.772 56.5207 135.708 54.8941 133.612 53.2616L132.998 54.0506ZM145.307 63.8283L144.679 64.6063C146.76 66.2862 148.791 67.9372 150.768 69.5479L151.4 68.7726L152.032 67.9974C150.053 66.3856 148.019 64.7325 145.935 63.0502L145.307 63.8283ZM157.516 73.7624L156.884 74.5373C157.91 75.3742 158.916 76.1948 159.903 76.9971L160.534 76.2212L161.165 75.4454C160.179 74.644 159.173 73.8241 158.148 72.9876L157.516 73.7624ZM160.534 76.2212L159.903 76.9971C160.949 77.8478 162.014 78.6756 163.097 79.4806L163.694 78.678L164.291 77.8754C163.231 77.0876 162.188 76.2775 161.165 75.4454L160.534 76.2212ZM170.315 83.1773L169.788 84.0271C172.072 85.4437 174.419 86.7706 176.823 88.0079L177.281 87.1188L177.738 86.2296C175.381 85.0162 173.08 83.7155 170.842 82.3275L170.315 83.1773ZM184.536 90.5091L184.147 91.4303C186.617 92.4735 189.135 93.43 191.695 94.2999L192.016 93.3531L192.338 92.4063C189.823 91.5515 187.35 90.612 184.925 89.5879L184.536 90.5091ZM199.681 95.6664L199.424 96.633C202.016 97.3201 204.641 97.9235 207.294 98.4434L207.486 97.462L207.678 96.4807C205.068 95.9691 202.486 95.3754 199.937 94.6998L199.681 95.6664ZM215.384 98.7518L215.254 99.7433C217.912 100.092 220.59 100.36 223.282 100.548L223.352 99.5503L223.421 98.5527C220.769 98.3681 218.132 98.104 215.515 97.7604L215.384 98.7518ZM231.353 99.8675L231.343 100.867C234.025 100.894 236.714 100.842 239.405 100.712L239.356 99.7129L239.308 98.714C236.656 98.8427 234.005 98.8939 231.363 98.8676L231.353 99.8675ZM247.339 99.0935L247.445 100.088C250.115 99.8029 252.781 99.4406 255.437 99.001L255.274 98.0144L255.111 97.0278C252.492 97.4612 249.864 97.8183 247.233 98.0991L247.339 99.0935ZM263.131 96.4798L263.351 97.4553C265.972 96.8642 268.578 96.1964 271.163 95.4521L270.887 94.4911L270.61 93.5301C268.062 94.2636 265.494 94.9217 262.911 95.5043L263.131 96.4798ZM278.512 92.0493L278.845 92.9922C281.38 92.0964 283.889 91.1243 286.366 90.076L285.976 89.155L285.587 88.2341C283.147 89.2665 280.676 90.224 278.179 91.1065L278.512 92.0493ZM293.249 85.8083L293.696 86.7032C296.103 85.5032 298.472 84.2269 300.8 82.8745L300.297 82.0099L299.795 81.1453C297.505 82.476 295.173 83.732 292.803 84.9133L293.249 85.8083ZM307.083 77.763L307.642 78.5927C309.872 77.0918 312.055 75.5151 314.184 73.8627L313.57 73.0727L312.957 72.2828C310.865 73.9071 308.719 75.4573 306.525 76.9333L307.083 77.763ZM319.72 67.947L320.387 68.6923C322.389 66.9013 324.332 65.0357 326.212 63.0953L325.493 62.3996L324.775 61.7039C322.929 63.6095 321.021 65.4421 319.054 67.2018L319.72 67.947ZM330.848 56.4532L331.615 57.0947C332.478 56.0626 333.324 55.0123 334.153 53.9438L333.363 53.3311L332.572 52.7183C331.759 53.7672 330.928 54.7983 330.081 55.8116L330.848 56.4532ZM333.363 53.3311L334.153 53.9438C334.997 52.8556 335.792 51.7765 336.54 50.7074L335.72 50.1343L334.901 49.5611C334.172 50.6025 333.397 51.6551 332.572 52.7183L333.363 53.3311ZM339.815 43.5265L340.695 44.0009C342.047 41.4932 343.132 39.0522 343.969 36.688L343.027 36.3541L342.084 36.0201C341.283 38.2805 340.241 40.6278 338.935 43.0521L339.815 43.5265ZM344.907 28.776L345.898 28.9114C346.287 26.0622 346.289 23.3649 345.945 20.845L344.954 20.9802L343.963 21.1154C344.281 23.4441 344.283 25.9588 343.916 28.6405L344.907 28.776ZM342.662 13.5473L343.553 13.0932C342.291 10.6168 340.616 8.44586 338.612 6.62103L337.939 7.36035L337.265 8.09967C339.094 9.76507 340.62 11.7436 341.771 14.0013L342.662 13.5473ZM331.369 3.17087L331.762 2.25126C329.341 1.21727 326.708 0.526321 323.933 0.206839L323.819 1.20028L323.704 2.19372C326.297 2.49219 328.742 3.13591 330.976 4.09047L331.369 3.17087ZM316.017 1.29215L315.886 0.30083C313.332 0.639486 310.72 1.27041 308.093 2.21171L308.431 3.15309L308.768 4.09447C311.266 3.19945 313.74 2.60294 316.149 2.28348L316.017 1.29215ZM301.347 6.47345L300.843 5.60968C298.637 6.89645 296.448 8.41526 294.302 10.177L294.936 10.95L295.571 11.7229C297.637 10.0266 299.739 8.56894 301.85 7.33722L301.347 6.47345ZM289.267 16.313L288.533 15.6342C286.804 17.5047 285.122 19.5554 283.5 21.7928L284.31 22.3795L285.12 22.9662C286.696 20.7911 288.328 18.8021 290.002 16.9918L289.267 16.313ZM280.057 28.9525L279.191 28.452C277.923 30.6457 276.709 32.9781 275.557 35.4533L276.464 35.8751L277.371 36.2968C278.498 33.8735 279.685 31.5938 280.922 29.453L280.057 28.9525ZM273.451 43.087L272.515 42.7368C272.055 43.9665 271.609 45.2257 271.179 46.5148L272.127 46.8315L273.076 47.1482C273.499 45.8813 273.936 44.6444 274.388 43.4372L273.451 43.087ZM272.127 46.8315L271.179 46.5148C270.736 47.8399 270.344 49.1408 270.002 50.4175L270.968 50.6762L271.934 50.9349C272.265 49.6994 272.645 48.4373 273.076 47.1482L272.127 46.8315ZM269.489 58.4522L268.495 58.3476C268.195 61.1943 268.196 63.9022 268.501 66.4698L269.494 66.3516L270.487 66.2334C270.201 63.8298 270.198 61.2723 270.484 58.5568L269.489 58.4522ZM271.529 73.9989L270.612 74.3976C271.698 76.8961 273.16 79.205 274.993 81.3246L275.749 80.6705L276.506 80.0163C274.8 78.0446 273.449 75.907 272.446 73.6003L271.529 73.9989ZM281.64 85.9291L281.066 86.7475C283.166 88.2223 285.519 89.5646 288.121 90.7779L288.543 89.8716L288.966 88.9654C286.457 87.7953 284.208 86.51 282.215 85.1106L281.64 85.9291ZM295.897 92.7404L295.588 93.6914C298.013 94.4803 300.597 95.1898 303.34 95.821L303.564 94.8465L303.788 93.872C301.097 93.2525 298.57 92.5583 296.206 91.7895L295.897 92.7404ZM311.382 96.364L311.222 97.3511C313.755 97.7604 316.398 98.116 319.153 98.4184L319.262 97.4243L319.371 96.4303C316.647 96.1313 314.037 95.7802 311.541 95.3768L311.382 96.364ZM327.162 98.1245L327.093 99.1221C329.655 99.299 332.301 99.4363 335.03 99.5345L335.066 98.5352L335.102 97.5358C332.393 97.4384 329.769 97.3021 327.231 97.1269L327.162 98.1245ZM342.972 98.708L342.964 99.708C345.543 99.73 348.19 99.721 350.903 99.681L350.888 98.6811L350.874 97.6813C348.175 97.721 345.544 97.73 342.981 97.7081L342.972 98.708ZM358.824 98.4828L358.858 99.4822C361.463 99.3916 364.125 99.2752 366.842 99.1331L366.79 98.1344L366.738 97.1358C364.031 97.2774 361.382 97.3933 358.789 97.4834L358.824 98.4828ZM374.703 97.6586L374.771 98.6563C377.354 98.4816 379.984 98.2854 382.662 98.068L382.581 97.0713L382.5 96.0745C379.831 96.2913 377.21 96.4868 374.636 96.6609L374.703 97.6586ZM390.514 96.3775L390.608 97.3732C393.205 97.1304 395.843 96.869 398.523 96.589L398.419 95.5945L398.316 94.5999C395.642 94.8791 393.011 95.1398 390.421 95.3819L390.514 96.3775ZM406.272 94.7345L406.385 95.728C408.997 95.4293 411.645 95.114 414.33 94.7822L414.208 93.7898L414.085 92.7973C411.405 93.1284 408.763 93.443 406.158 93.741L406.272 94.7345ZM422.031 92.7903L422.162 93.7817C424.757 93.4395 427.385 93.0828 430.047 92.7115L429.908 91.7211L429.77 90.7307C427.114 91.1013 424.49 91.4574 421.9 91.7989L422.031 92.7903ZM437.769 90.5962L437.914 91.5856C440.496 91.2071 443.108 90.8156 445.749 90.411L445.598 89.4226L445.447 88.4341C442.809 88.838 440.202 89.2289 437.624 89.6068L437.769 90.5962ZM453.474 88.1919L453.632 89.1795C456.204 88.7698 458.804 88.3483 461.43 87.9151L461.267 86.9285L461.105 85.9418C458.482 86.3744 455.886 86.7952 453.317 87.2044L453.474 88.1919ZM469.142 85.6084L469.31 86.5942C471.877 86.157 474.469 85.7092 477.086 85.2507L476.913 84.2657L476.74 83.2807C474.127 83.7387 471.538 84.186 468.974 84.6225L469.142 85.6084ZM484.773 82.8696L484.95 83.8538C487.516 83.3921 490.105 82.9205 492.717 82.4391L492.535 81.4556L492.354 80.4722C489.745 80.9531 487.159 81.4242 484.596 81.8854L484.773 82.8696ZM500.371 79.9949L500.556 80.9776C503.125 80.4933 505.715 79.9998 508.327 79.4973L508.138 78.5153L507.949 77.5333C505.34 78.0354 502.752 78.5284 500.185 79.0122L500.371 79.9949ZM515.94 76.9993L516.133 77.9806C517.444 77.7234 518.761 77.464 520.083 77.2023L519.889 76.2213L519.694 75.2404C518.374 75.5018 517.058 75.761 515.748 76.018L515.94 76.9993ZM623.022 30.5005L623.251 31.4739C624.522 31.1748 625.812 30.877 627.121 30.5808L626.901 29.6054L626.68 28.6301C625.365 28.9276 624.069 29.2266 622.793 29.5271L623.022 30.5005ZM634.835 27.8773L635.04 28.856C637.633 28.3119 640.288 27.7744 643 27.2445L642.809 26.2631L642.617 25.2816C639.896 25.8132 637.232 26.3526 634.629 26.8986L634.835 27.8773ZM650.764 24.7609L650.943 25.7447C653.548 25.2693 656.197 24.8014 658.888 24.3417L658.72 23.356L658.552 22.3703C655.853 22.8312 653.196 23.3004 650.584 23.7772L650.764 24.7609ZM666.721 22.0337L666.879 23.0212C669.522 22.5986 672.2 22.1844 674.909 21.7793L674.761 20.7903L674.613 19.8013C671.897 20.2074 669.213 20.6226 666.563 21.0462L666.721 22.0337ZM682.762 19.6334L682.9 20.6238C685.547 20.254 688.219 19.8931 690.915 19.5418L690.786 18.5502L690.657 17.5586C687.955 17.9107 685.276 18.2724 682.623 18.6431L682.762 19.6334ZM698.847 17.5374L698.967 18.5301C701.627 18.2082 704.305 17.896 707.001 17.5941L706.889 16.6003L706.778 15.6065C704.077 15.9091 701.392 16.222 698.727 16.5446L698.847 17.5374ZM714.942 15.7343L715.045 16.729C717.722 16.4531 720.413 16.1876 723.116 15.9332L723.022 14.9376L722.928 13.942C720.219 14.197 717.522 14.463 714.84 14.7396L714.942 15.7343ZM731.086 14.2143L731.171 15.2107C733.852 14.9822 736.543 14.7649 739.241 14.5594L739.165 13.5622L739.089 12.5651C736.385 12.7711 733.689 12.9889 731.001 13.2179L731.086 14.2143ZM747.256 12.9827L747.323 13.9805C750.011 13.8003 752.703 13.6323 755.398 13.4768L755.34 12.4785L755.282 11.4802C752.581 11.636 749.883 11.8044 747.189 11.9849L747.256 12.9827ZM763.436 12.0502L763.484 13.049C766.179 12.9195 768.875 12.803 771.569 12.7002L771.531 11.7009L771.492 10.7016C768.792 10.8047 766.09 10.9215 763.388 11.0514L763.436 12.0502ZM779.636 11.4329L779.664 12.4326C782.366 12.3572 785.063 12.2962 787.755 12.25L787.738 11.2502L787.72 10.2503C785.022 10.2966 782.317 10.3578 779.608 10.4333L779.636 11.4329ZM795.838 11.1564L795.844 12.1564C798.554 12.1404 801.256 12.1402 803.947 12.1563L803.953 11.1563L803.959 10.1563C801.26 10.1402 798.55 10.1404 795.832 10.1564L795.838 11.1564ZM812.049 11.2551L812.03 12.2549C814.741 12.3052 817.438 12.373 820.119 12.4588L820.151 11.4593L820.183 10.4598C817.493 10.3737 814.787 10.3057 812.067 10.2553L812.049 11.2551ZM828.263 11.7768L828.216 12.7757C830.925 12.9016 833.614 13.047 836.28 13.2124L836.342 12.2143L836.404 11.2163C833.727 11.0501 831.028 10.9042 828.309 10.7779L828.263 11.7768ZM844.425 12.7836L844.346 13.7805C847.065 13.9955 849.758 14.2329 852.421 14.4934L852.518 13.4981L852.615 12.5029C849.94 12.2412 847.235 12.0027 844.504 11.7867L844.425 12.7836ZM860.568 14.3674L860.451 15.3604C863.147 15.68 865.808 16.0252 868.43 16.3966L868.571 15.4065L868.711 14.4164C866.073 14.0427 863.397 13.6956 860.686 13.3743L860.568 14.3674ZM876.615 16.6497L876.449 17.6359C879.151 18.0898 881.804 18.5744 884.407 19.0906L884.601 18.1097L884.796 17.1288C882.173 16.6087 879.5 16.1206 876.781 15.6635L876.615 16.6497ZM892.518 19.8153L892.29 20.7891C894.954 21.4113 897.554 22.0704 900.086 22.7677L900.351 21.8036L900.617 20.8395C898.058 20.1348 895.433 19.4693 892.745 18.8415L892.518 19.8153ZM908.085 24.1225L907.775 25.0732C910.399 25.9288 912.933 26.8317 915.372 27.7831L915.735 26.8515L916.099 25.9198C913.622 24.9537 911.052 24.0382 908.395 23.1718L908.085 24.1225ZM923.188 30.0511L922.761 30.9552C925.255 32.1346 927.622 33.376 929.853 34.6811L930.358 33.818L930.863 32.9549C928.577 31.6177 926.159 30.3493 923.616 29.1471L923.188 30.0511ZM937.106 38.2691L936.507 39.0703C938.714 40.7186 940.73 42.4513 942.544 44.2706L943.253 43.5644L943.961 42.8583C942.071 40.9641 939.981 39.1687 937.704 37.468L937.106 38.2691ZM948.444 49.7829L947.619 50.3482C948.367 51.4385 949.051 52.5554 949.671 53.6994L950.55 53.2231L951.429 52.7468C950.775 51.5399 950.055 50.3636 949.269 49.2175L948.444 49.7829ZM950.55 53.2231L949.671 53.6994C950.285 54.8335 950.869 55.9443 951.425 57.032L952.316 56.5772L953.206 56.1223C952.643 55.0197 952.051 53.8946 951.429 52.7468L950.55 53.2231ZM955.504 63.2647L954.589 63.6679C955.66 66.0996 956.569 68.3945 957.328 70.5561L958.271 70.2248L959.215 69.8935C958.437 67.6791 957.509 65.3361 956.419 62.8615L955.504 63.2647ZM960.368 77.3481L959.393 77.5735C960.011 80.2432 960.351 82.6388 960.457 84.7723L961.456 84.7227L962.454 84.6731C962.342 82.4038 961.982 79.8897 961.342 77.1227L960.368 77.3481ZM960.735 92.0905L959.776 91.8104C959.016 94.412 957.713 96.2235 956.117 97.3736L956.701 98.185L957.285 98.9964C959.295 97.5491 960.83 95.3358 961.695 92.3706L960.735 92.0905ZM949.626 99.9534L949.713 98.9572C947.598 98.7724 945.33 98.0285 943.101 96.7434L942.601 97.6098L942.102 98.4762C944.544 99.8835 947.09 100.736 949.539 100.95L949.626 99.9534ZM936.84 92.9313L937.577 92.2558C936.042 90.5801 934.642 88.6109 933.466 86.3693L932.581 86.8337L931.695 87.298C932.95 89.6913 934.45 91.8026 936.102 93.6067L936.84 92.9313ZM929.927 79.8858L930.896 79.6378C930.604 78.4958 930.365 77.3088 930.188 76.0785L929.198 76.2213L928.208 76.3642C928.396 77.665 928.648 78.9222 928.959 80.1338L929.927 79.8858ZM929.198 76.2213L930.188 76.0785C930.033 75.0071 930.099 73.8186 930.399 72.5167L929.424 72.2923L928.45 72.0679C928.105 73.5646 928.012 75.0055 928.208 76.3642L929.198 76.2213ZM932.758 65.0375L933.595 65.5847C934.857 63.6544 936.451 61.6232 938.364 59.5182L937.624 58.8458L936.884 58.1733C934.915 60.3404 933.251 62.4549 931.921 64.4903L932.758 65.0375ZM943.289 53.2305L943.96 53.9723C945.812 52.2976 947.835 50.5978 950.02 48.8847L949.403 48.0977L948.787 47.3106C946.567 49.0501 944.508 50.78 942.618 52.4888L943.289 53.2305ZM955.816 43.3609L956.388 44.1808C958.481 42.72 960.683 41.2581 962.99 39.8022L962.456 38.9566L961.922 38.1109C959.591 39.5826 957.362 41.0616 955.244 42.5409L955.816 43.3609ZM969.287 34.8412L969.786 35.708C972.03 34.4167 974.353 33.136 976.753 31.8711L976.286 30.9865L975.82 30.1019C973.399 31.3781 971.054 32.6707 968.788 33.9745L969.287 34.8412ZM983.438 27.3744L983.873 28.2745C986.205 27.1461 988.598 26.0353 991.048 24.946L990.641 24.0323L990.235 23.1185C987.766 24.2165 985.353 25.3364 983.002 26.4742L983.438 27.3744ZM997.96 20.9142L998.338 21.8401C1000.76 20.8515 1003.23 19.8857 1005.75 18.9463L1005.4 18.0093L1005.05 17.0724C1002.52 18.0189 1000.03 18.992 997.583 19.9882L997.96 20.9142ZM1012.93 15.3286L1013.25 16.2756C1015.73 15.4366 1018.24 14.6242 1020.78 13.8414L1020.49 12.8855L1020.2 11.9296C1017.63 12.7182 1015.1 13.5365 1012.61 14.3817L1012.93 15.3286ZM1028.15 10.6522L1028.42 11.6163C1030.96 10.9174 1033.52 10.2488 1036.12 9.61334L1035.88 8.64196L1035.65 7.67058C1033.03 8.31072 1030.44 8.98415 1027.89 9.6882L1028.15 10.6522ZM1043.63 6.86639L1043.84 7.84427C1046.42 7.29331 1049.02 6.77585 1051.65 6.29426L1051.47 5.31064L1051.29 4.32703C1048.64 4.81219 1046.02 5.33349 1043.42 5.88851L1043.63 6.86639ZM1059.33 3.99036L1059.48 4.97889C1062.08 4.58199 1064.7 4.22117 1067.34 3.89862L1067.21 2.906L1067.09 1.91338C1064.43 2.23838 1061.79 2.60194 1059.17 3.00183L1059.33 3.99036ZM1075.17 2.05729L1075.26 3.05315C1077.87 2.81472 1080.5 2.61479 1083.15 2.45542L1083.09 1.45722L1083.03 0.459032C1080.36 0.619661 1077.71 0.821146 1075.08 1.06143L1075.17 2.05729ZM1091.06 1.10275L1091.09 2.10234C1093.72 2.02687 1096.37 1.99256 1099.03 2.00135L1099.03 1.00135L1099.04 0.00135767C1096.36 -0.00750029 1093.69 0.0270876 1091.03 0.10316L1091.06 1.10275ZM1107 1.1565L1106.96 2.15586C1109.6 2.25028 1112.25 2.38826 1114.91 2.57165L1114.98 1.57402L1115.05 0.576393C1112.37 0.39146 1109.69 0.252333 1107.03 0.157142L1107 1.1565ZM1122.9 2.25281L1122.79 3.24759C1125.42 3.51705 1128.05 3.83197 1130.69 4.1941L1130.83 3.20337L1130.96 2.21265C1128.3 1.84741 1125.65 1.52979 1123 1.25804L1122.9 2.25281ZM1138.69 4.41948L1138.52 5.40495C1141.12 5.8525 1143.72 6.34698 1146.32 6.89003L1146.53 5.91108L1146.73 4.93213C1144.1 4.38429 1141.48 3.88547 1138.86 3.43402L1138.69 4.41948ZM1154.3 7.67444L1154.06 8.64561C1156.61 9.27239 1159.17 9.9472 1161.72 10.6716L1162 9.70945L1162.27 8.74732C1159.69 8.01646 1157.11 7.33563 1154.54 6.70327L1154.3 7.67444ZM1169.64 12.0224L1169.33 12.9742C1171.83 13.7789 1174.33 14.6324 1176.82 15.5359L1177.16 14.5956L1177.5 13.6554C1174.98 12.7437 1172.46 11.8826 1169.95 11.0706L1169.64 12.0224ZM1184.63 17.4525L1184.26 18.3799C1186.68 19.3586 1189.11 20.3863 1191.53 21.4642L1191.94 20.5505L1192.35 19.6369C1189.9 18.5493 1187.45 17.5125 1185 16.525L1184.63 17.4525ZM1199.2 23.9362L1198.76 24.8348C1201.11 25.9811 1203.45 27.1761 1205.79 28.4211L1206.26 27.5384L1206.73 26.6557C1204.37 25.3997 1202 24.1941 1199.64 23.0376L1199.2 23.9362ZM1213.27 31.4286L1212.77 32.2944C1215.02 33.5999 1217.28 34.9536 1219.52 36.3566L1220.05 35.5084L1220.58 34.6602C1218.32 33.2452 1216.05 31.8798 1213.77 30.5629L1213.27 31.4286ZM1226.78 39.8697L1226.22 40.6995C1228.39 42.155 1230.54 43.6578 1232.69 45.209L1233.28 44.398L1233.86 43.5871C1231.7 42.0231 1229.52 40.5078 1227.34 39.04L1226.78 39.8697ZM1239.69 49.189L1239.08 49.9804C1241.15 51.5767 1243.21 53.2193 1245.26 54.9091L1245.9 54.1374L1246.53 53.3656C1244.46 51.6625 1242.39 50.0067 1240.31 48.3975L1239.69 49.189ZM1251.98 59.3105L1251.32 60.0622C1252.32 60.9444 1253.33 61.8385 1254.33 62.7444L1255 62.0029L1255.67 61.2615C1254.66 60.3487 1253.65 59.4478 1252.64 58.5588L1251.98 59.3105Z" fill="#B0B0C0" fill-opacity="0.3"/>
</svg>
