<svg width="1368" height="118" viewBox="0 0 1368 118" fill="none" xmlns="http://www.w3.org/2000/svg">
<path d="M545.04 53.3281L544.421 52.5426L545.04 53.3281ZM444.805 46.8286L443.927 46.349L444.805 46.8286ZM1216.81 69.7187L1217.55 69.0552L1216.81 69.7187ZM1181.86 92.7169L1182.83 92.487L1181.86 92.7169ZM1366.34 31.4848C1366.89 31.5725 1367.4 31.2014 1367.49 30.6561C1367.57 30.1108 1367.2 29.5978 1366.66 29.5102L1366.5 30.4975L1366.34 31.4848ZM3.41945 49.3304C3.63075 48.8201 3.38839 48.2352 2.87812 48.0239C2.36785 47.8126 1.78291 48.0549 1.57161 48.5652L2.49553 48.9478L3.41945 49.3304ZM5.11954 41.1275C4.85467 41.6121 5.03281 42.2197 5.51744 42.4846C6.00206 42.7494 6.60965 42.5713 6.87452 42.0867L5.99703 41.6071L5.11954 41.1275ZM11.1337 35.3006C11.4561 34.8521 11.3539 34.2273 10.9054 33.9049C10.457 33.5825 9.83211 33.6847 9.50975 34.1332L10.3217 34.7169L11.1337 35.3006ZM14.777 27.7553C14.3969 28.156 14.4136 28.7889 14.8143 29.169C15.215 29.5491 15.8479 29.5324 16.228 29.1317L15.5025 28.4435L14.777 27.7553ZM22.1262 23.7373C22.5593 23.3945 22.6325 22.7656 22.2898 22.3326C21.9471 21.8995 21.3182 21.8262 20.8851 22.1689L21.5056 22.9531L22.1262 23.7373ZM27.7225 17.505C27.2456 17.7836 27.0849 18.396 27.3635 18.8729C27.6421 19.3497 28.2546 19.5104 28.7314 19.2318L28.2269 18.3684L27.7225 17.505ZM35.9006 15.6614C36.4098 15.4476 36.6493 14.8615 36.4356 14.3523C36.2218 13.843 35.6357 13.6035 35.1264 13.8173L35.5135 14.7393L35.9006 15.6614ZM42.9229 11.0805C42.3921 11.2333 42.0857 11.7874 42.2385 12.3181C42.3913 12.8489 42.9454 13.1553 43.4761 13.0025L43.1995 12.0415L42.9229 11.0805ZM51.3152 11.1816C51.8587 11.0834 52.2196 10.5632 52.1213 10.0197C52.0231 9.4762 51.5029 9.11527 50.9594 9.21352L51.1373 10.1976L51.3152 11.1816ZM59.1212 8.10931C58.5713 8.1603 58.1668 8.64743 58.2178 9.19736C58.2688 9.74728 58.7559 10.1518 59.3058 10.1008L59.2135 9.10504L59.1212 8.10931ZM67.3693 9.65821C67.9215 9.64758 68.3605 9.19133 68.3499 8.63915C68.3392 8.08696 67.883 7.64795 67.3308 7.65858L67.3501 8.6584L67.3693 9.65821ZM75.5404 7.76225C74.9886 7.7386 74.5221 8.16673 74.4985 8.7185C74.4748 9.27028 74.903 9.73676 75.4548 9.76042L75.4976 8.76133L75.5404 7.76225ZM83.5313 10.3268C84.0811 10.3797 84.5695 9.97683 84.6224 9.42708C84.6752 8.87733 84.2724 8.38884 83.7226 8.336L83.627 9.33142L83.5313 10.3268ZM91.8627 9.31022C91.316 9.23244 90.8097 9.61264 90.7319 10.1594C90.6541 10.7062 91.0343 11.2125 91.5811 11.2903L91.7219 10.3003L91.8627 9.31022ZM99.5939 12.5954C100.137 12.6947 100.658 12.3347 100.757 11.7914C100.857 11.2481 100.497 10.7272 99.9533 10.628L99.7736 11.6117L99.5939 12.5954ZM107.991 12.2426C107.451 12.1247 106.918 12.4666 106.8 13.0061C106.682 13.5457 107.024 14.0786 107.564 14.1965L107.777 13.2195L107.991 12.2426ZM115.487 16.0554C116.023 16.1895 116.566 15.8638 116.7 15.3281C116.834 14.7923 116.508 14.2493 115.972 14.1152L115.73 15.0853L115.487 16.0554ZM123.868 16.2053C123.336 16.0571 122.785 16.3681 122.637 16.9002C122.488 17.4322 122.799 17.9836 123.332 18.1319L123.6 17.1686L123.868 16.2053ZM131.13 20.4068C131.658 20.5676 132.217 20.2697 132.378 19.7413C132.538 19.213 132.24 18.6543 131.712 18.4935L131.421 19.4502L131.13 20.4068ZM139.509 20.9584C138.984 20.7864 138.419 21.0725 138.247 21.5974C138.075 22.1222 138.361 22.687 138.886 22.859L139.197 21.9087L139.509 20.9584ZM146.598 25.4684C147.119 25.6503 147.689 25.375 147.871 24.8535C148.053 24.332 147.778 23.7619 147.256 23.58L146.927 24.5242L146.598 25.4684ZM154.953 26.3397C154.435 26.149 153.86 26.4144 153.669 26.9327C153.478 27.451 153.744 28.0258 154.262 28.2166L154.607 27.2782L154.953 26.3397ZM161.873 31.0862C162.388 31.285 162.967 31.0284 163.166 30.5131C163.364 29.9978 163.108 29.419 162.592 29.2202L162.233 30.1532L161.873 31.0862ZM170.194 32.2147C169.681 32.0087 169.099 32.2572 168.893 32.7696C168.687 33.2821 168.936 33.8644 169.448 34.0704L169.821 33.1425L170.194 32.2147ZM176.985 37.156C177.495 37.3684 178.08 37.1273 178.293 36.6175C178.505 36.1077 178.264 35.5223 177.754 35.3098L177.369 36.2329L176.985 37.156ZM185.27 38.4933C184.763 38.275 184.174 38.5093 183.956 39.0166C183.738 39.524 183.972 40.1122 184.479 40.3304L184.875 39.4118L185.27 38.4933ZM191.945 43.589C192.45 43.8125 193.04 43.5843 193.264 43.0792C193.487 42.5742 193.259 41.9836 192.754 41.7601L192.349 42.6745L191.945 43.589ZM200.211 45.1029C199.708 44.8746 199.115 45.0973 198.887 45.6002C198.658 46.1031 198.881 46.6959 199.384 46.9241L199.797 46.0135L200.211 45.1029ZM206.791 50.3238C207.292 50.5562 207.887 50.3385 208.119 49.8375C208.352 49.3365 208.134 48.742 207.633 48.5095L207.212 49.4167L206.791 50.3238ZM215.02 51.9705C214.52 51.7344 213.924 51.9477 213.688 52.447C213.452 52.9462 213.665 53.5424 214.164 53.7785L214.592 52.8745L215.02 51.9705ZM221.504 57.2792C222.002 57.5186 222.599 57.3091 222.838 56.8113C223.078 56.3136 222.868 55.7161 222.37 55.4768L221.937 56.378L221.504 57.2792ZM229.721 59.0364C229.225 58.7944 228.626 59.0007 228.384 59.4971C228.142 59.9935 228.348 60.5922 228.845 60.8342L229.283 59.9353L229.721 59.0364ZM236.176 64.4284C236.671 64.6726 237.271 64.4689 237.515 63.9735C237.759 63.4781 237.556 62.8786 237.06 62.6345L236.618 63.5315L236.176 64.4284ZM244.38 66.257C243.886 66.0114 243.286 66.2132 243.04 66.7079C242.794 67.2025 242.996 67.8026 243.491 68.0483L243.936 67.1526L244.38 66.257ZM250.795 71.684C251.289 71.9304 251.89 71.7295 252.136 71.2352C252.383 70.741 252.182 70.1405 251.688 69.8941L251.241 70.7891L250.795 71.684ZM258.989 73.5341C258.494 73.2879 257.894 73.489 257.648 73.9834C257.402 74.4777 257.603 75.0781 258.097 75.3243L258.543 74.4292L258.989 73.5341ZM265.393 78.8934C265.894 79.1267 266.489 78.9099 266.722 78.4093C266.955 77.9087 266.739 77.3138 266.238 77.0805L265.816 77.987L265.393 78.8934ZM273.719 80.3521C273.208 80.1424 272.624 80.3867 272.414 80.8977C272.205 81.4086 272.449 81.9928 272.96 82.2024L273.339 81.2772L273.719 80.3521ZM280.662 85.1706C281.181 85.3585 281.754 85.0897 281.942 84.5703C282.13 84.051 281.861 83.4777 281.342 83.2898L281.002 84.2302L280.662 85.1706ZM289.082 85.9183C288.555 85.7507 287.993 86.0414 287.825 86.5677C287.658 87.0939 287.948 87.6564 288.475 87.824L288.778 86.8711L289.082 85.9183ZM296.379 90.185C296.911 90.3337 297.462 90.0231 297.611 89.4912C297.76 88.9594 297.449 88.4076 296.917 88.2589L296.648 89.2219L296.379 90.185ZM304.832 90.3302C304.296 90.1991 303.755 90.5278 303.624 91.0643C303.493 91.6008 303.821 92.142 304.358 92.273L304.595 91.3016L304.832 90.3302ZM312.399 94.1049C312.939 94.2193 313.47 93.8741 313.584 93.3338C313.699 92.7935 313.354 92.2627 312.813 92.1483L312.606 93.1266L312.399 94.1049ZM320.848 93.727C320.305 93.6283 319.784 93.9889 319.686 94.5323C319.587 95.0757 319.947 95.5962 320.491 95.6948L320.67 94.7109L320.848 93.727ZM328.619 97.0541C329.165 97.1378 329.675 96.763 329.759 96.2171C329.843 95.6712 329.468 95.1608 328.922 95.0772L328.771 96.0657L328.619 97.0541ZM337.022 96.2088C336.474 96.1395 335.974 96.5276 335.905 97.0755C335.835 97.6234 336.223 98.1237 336.771 98.193L336.897 97.2009L337.022 96.2088ZM344.952 99.1221C345.502 99.1776 345.992 98.7771 346.048 98.2276C346.103 97.6781 345.703 97.1877 345.153 97.1322L345.053 98.1272L344.952 99.1221ZM353.308 97.8543C352.758 97.8122 352.277 98.2246 352.235 98.7753C352.193 99.3259 352.605 99.8064 353.156 99.8485L353.232 98.8514L353.308 97.8543ZM361.376 100.378C361.928 100.407 362.398 99.9833 362.427 99.4317C362.456 98.8802 362.033 98.4096 361.481 98.3806L361.429 99.3792L361.376 100.378ZM369.666 98.7158C369.114 98.6995 368.653 99.1339 368.637 99.6859C368.621 100.238 369.055 100.699 369.607 100.715L369.637 99.7153L369.666 98.7158ZM377.843 100.863C378.396 100.867 378.846 100.422 378.85 99.8699C378.854 99.3176 378.409 98.867 377.857 98.8633L377.85 99.8633L377.843 100.863ZM386.044 98.8259C385.492 98.8346 385.051 99.2893 385.06 99.8416C385.069 100.394 385.524 100.834 386.076 100.826L386.06 99.8258L386.044 98.8259ZM394.306 100.604C394.858 100.583 395.288 100.119 395.267 99.5667C395.246 99.0149 394.782 98.5845 394.23 98.6055L394.268 99.6048L394.306 100.604ZM402.411 98.2028C401.859 98.2361 401.439 98.71 401.473 99.2613C401.506 99.8126 401.98 100.232 402.531 100.199L402.471 99.201L402.411 98.2028ZM410.745 99.6109C411.296 99.5653 411.705 99.0821 411.659 98.5317C411.614 97.9813 411.131 97.5721 410.58 97.6177L410.663 98.6143L410.745 99.6109ZM418.733 96.8495C418.184 96.9076 417.786 97.3998 417.844 97.9491C417.902 98.4983 418.394 98.8965 418.943 98.8385L418.838 97.844L418.733 96.8495ZM427.119 97.8803C427.667 97.8097 428.054 97.3084 427.983 96.7607C427.913 96.2129 427.412 95.8261 426.864 95.8967L426.992 96.8885L427.119 97.8803ZM434.974 94.7556C434.428 94.8389 434.053 95.3491 434.137 95.8951C434.22 96.441 434.73 96.816 435.276 96.7327L435.125 95.7441L434.974 94.7556ZM443.405 95.3922C443.949 95.2958 444.312 94.7768 444.215 94.233C444.119 93.6892 443.6 93.3265 443.056 93.4229L443.231 94.4075L443.405 95.3922ZM451.102 91.8944C450.56 92.0042 450.211 92.532 450.32 93.0733C450.43 93.6145 450.958 93.9643 451.499 93.8545L451.301 92.8744L451.102 91.8944ZM459.551 92.1141C460.09 91.9904 460.426 91.4539 460.302 90.9156C460.178 90.3773 459.642 90.0412 459.104 90.1648L459.327 91.1394L459.551 92.1141ZM467.054 88.2278C466.519 88.3657 466.198 88.911 466.336 89.4458C466.474 89.9806 467.019 90.3023 467.554 90.1644L467.304 89.1961L467.054 88.2278ZM475.498 87.9977C476.029 87.8449 476.335 87.2908 476.183 86.7601C476.03 86.2294 475.476 85.923 474.945 86.0758L475.222 87.0368L475.498 87.9977ZM482.769 83.6994C482.243 83.8678 481.953 84.4306 482.121 84.9567C482.289 85.4827 482.852 85.7726 483.378 85.6043L483.073 84.6519L482.769 83.6994ZM491.195 82.969C491.716 82.7843 491.988 82.2127 491.803 81.6922C491.618 81.1717 491.047 80.8994 490.526 81.0841L490.861 82.0265L491.195 82.969ZM498.193 78.2217C497.679 78.4235 497.426 79.0039 497.627 79.518C497.829 80.0321 498.41 80.2852 498.924 80.0834L498.558 79.1525L498.193 78.2217ZM506.549 76.9335C507.056 76.7135 507.288 76.1245 507.068 75.6179C506.848 75.1113 506.259 74.879 505.753 75.099L506.151 76.0162L506.549 76.9335ZM513.188 71.7011C512.69 71.9404 512.481 72.5379 512.72 73.0356C512.959 73.5334 513.557 73.743 514.055 73.5037L513.621 72.6024L513.188 71.7011ZM521.419 69.7766C521.907 69.517 522.091 68.9113 521.831 68.4239C521.572 67.9365 520.966 67.7519 520.479 68.0116L520.949 68.8941L521.419 69.7766ZM527.599 64.0121C527.124 64.2936 526.966 64.9069 527.248 65.3821C527.529 65.8573 528.143 66.0144 528.618 65.733L528.108 64.8725L527.599 64.0121ZM535.621 61.3519C536.081 61.0474 536.208 60.427 535.904 59.9663C535.599 59.5056 534.979 59.379 534.518 59.6835L535.069 60.5177L535.621 61.3519ZM541.199 55.0058C540.756 55.3349 540.663 55.9612 540.992 56.4047C541.321 56.8483 541.948 56.9411 542.391 56.612L541.795 55.8089L541.199 55.0058ZM548.999 51.3682C549.418 51.0082 549.465 50.3768 549.106 49.958C548.746 49.5391 548.114 49.4914 547.695 49.8513L548.347 50.6097L548.999 51.3682ZM553.625 44.2105C553.247 44.6134 553.268 45.2462 553.671 45.6239C554.074 46.0017 554.706 45.9812 555.084 45.5783L554.355 44.8944L553.625 44.2105ZM560.382 38.9982C560.69 38.5395 560.567 37.9183 560.109 37.6107C559.65 37.3031 559.029 37.4257 558.721 37.8844L559.552 38.4413L560.382 38.9982ZM562.353 30.7227C562.177 31.2462 562.459 31.8132 562.982 31.9891C563.506 32.165 564.073 31.8832 564.249 31.3597L563.301 31.0412L562.353 30.7227ZM565.315 22.7493C565.258 22.2 564.766 21.8012 564.217 21.8585C563.667 21.9157 563.268 22.4075 563.326 22.9568L564.32 22.8531L565.315 22.7493ZM560.626 15.6867C560.936 16.144 561.558 16.2635 562.015 15.9537C562.472 15.644 562.592 15.0222 562.282 14.565L561.454 15.1258L560.626 15.6867ZM556.172 8.46881C555.722 8.14843 555.098 8.25339 554.778 8.70325C554.457 9.15312 554.562 9.77752 555.012 10.0979L555.592 9.28336L556.172 8.46881ZM547.902 6.24712C548.413 6.45711 548.997 6.21325 549.207 5.70244C549.417 5.19164 549.173 4.60732 548.662 4.39733L548.282 5.32222L547.902 6.24712ZM540.552 1.83492C540.014 1.70907 539.476 2.04298 539.35 2.58073C539.225 3.11849 539.558 3.65645 540.096 3.7823L540.324 2.80861L540.552 1.83492ZM532.025 2.43109C532.574 2.48958 533.067 2.0918 533.125 1.54262C533.184 0.993445 532.786 0.500831 532.237 0.442339L532.131 1.43671L532.025 2.43109ZM523.799 3.46303e-05C523.247 -0.000470638 522.799 0.446835 522.798 0.999119C522.798 1.5514 523.245 1.99953 523.797 2.00003L523.798 1.00003L523.799 3.46303e-05ZM515.587 2.38584C516.137 2.33422 516.54 1.84662 516.489 1.29675C516.437 0.746887 515.95 0.342977 515.4 0.394597L515.493 1.39022L515.587 2.38584ZM507.053 1.55957C506.51 1.66019 506.151 2.18198 506.252 2.72502C506.353 3.26806 506.874 3.62672 507.417 3.5261L507.235 2.54284L507.053 1.55957ZM499.385 5.38182C499.918 5.23409 500.229 4.68293 500.081 4.15077C499.934 3.61861 499.383 3.30697 498.85 3.4547L499.118 4.41826L499.385 5.38182ZM490.855 6.05586C490.338 6.24961 490.076 6.82594 490.269 7.34312C490.463 7.8603 491.039 8.1225 491.557 7.92874L491.206 6.9923L490.855 6.05586ZM483.978 11.1591C484.476 10.92 484.686 10.3226 484.447 9.82477C484.207 9.32694 483.61 9.1172 483.112 9.35632L483.545 10.2577L483.978 11.1591ZM475.693 13.3463C475.22 13.63 475.066 14.2442 475.349 14.718C475.633 15.1918 476.247 15.3459 476.721 15.0622L476.207 14.2042L475.693 13.3463ZM469.858 19.6231C470.303 19.2959 470.398 18.67 470.071 18.225C469.744 17.7801 469.118 17.6846 468.673 18.0117L469.266 18.8174L469.858 19.6231ZM462.142 23.3157C461.731 23.6842 461.696 24.3164 462.065 24.7278C462.433 25.1392 463.065 25.1739 463.477 24.8054L462.809 24.0606L462.142 23.3157ZM457.629 30.5833C458.002 30.1763 457.975 29.5437 457.568 29.1704C457.161 28.797 456.529 28.8242 456.155 29.2312L456.892 29.9072L457.629 30.5833ZM450.776 35.7057C450.444 36.1472 450.533 36.7741 450.975 37.1058C451.416 37.4376 452.043 37.3485 452.375 36.907L451.575 36.3063L450.776 35.7057ZM447.759 43.7137C448.047 43.2423 447.898 42.6269 447.426 42.3392C446.955 42.0516 446.339 42.2006 446.052 42.6721L446.906 43.1929L447.759 43.7137ZM442.101 50.024C441.876 50.5285 442.103 51.1197 442.608 51.3445C443.112 51.5693 443.703 51.3425 443.928 50.838L443.015 50.431L442.101 50.024ZM441.574 58.0629C441.68 57.5208 441.326 56.9958 440.784 56.8904C440.241 56.7849 439.716 57.1389 439.611 57.681L440.593 57.872L441.574 58.0629ZM439.397 65.8822C439.484 66.4274 439.998 66.7983 440.543 66.7105C441.088 66.6228 441.459 66.1096 441.371 65.5644L440.384 65.7233L439.397 65.8822ZM444.012 72.4806C443.717 72.0138 443.099 71.8747 442.632 72.1699C442.165 72.465 442.026 73.0827 442.321 73.5495L443.166 73.0151L444.012 72.4806ZM447.757 79.6393C448.18 79.9944 448.811 79.9394 449.166 79.5164C449.521 79.0934 449.466 78.4626 449.043 78.1075L448.4 78.8734L447.757 79.6393ZM455.382 82.3879C454.898 82.1206 454.29 82.2957 454.022 82.7791C453.755 83.2624 453.93 83.8708 454.414 84.1381L454.898 83.263L455.382 82.3879ZM461.681 87.5492C462.194 87.7546 462.776 87.5055 462.982 86.9929C463.187 86.4802 462.938 85.8981 462.425 85.6927L462.053 86.621L461.681 87.5492ZM469.8 88.2721C469.272 88.1106 468.713 88.4077 468.551 88.9359C468.39 89.464 468.687 90.0231 469.215 90.1847L469.508 89.2284L469.8 88.2721ZM476.87 92.2628C477.407 92.3921 477.947 92.0617 478.076 91.5248C478.205 90.9878 477.875 90.4477 477.338 90.3184L477.104 91.2906L476.87 92.2628ZM484.978 91.9661C484.436 91.8615 483.911 92.2164 483.807 92.7587C483.702 93.3009 484.057 93.8253 484.599 93.9299L484.789 92.948L484.978 91.9661ZM492.401 95.283C492.947 95.3679 493.458 94.9943 493.543 94.4486C493.628 93.9028 493.254 93.3916 492.708 93.3067L492.555 94.2948L492.401 95.283ZM500.538 94.4031C499.99 94.3343 499.49 94.7227 499.421 95.2707C499.352 95.8187 499.741 96.3187 500.289 96.3875L500.413 95.3953L500.538 94.4031ZM508.165 97.2766C508.714 97.3321 509.205 96.9316 509.26 96.3821C509.316 95.8326 508.915 95.3422 508.366 95.2867L508.265 96.2817L508.165 97.2766ZM516.137 95.9898C515.586 95.9455 515.104 96.3558 515.06 96.9063C515.016 97.4568 515.426 97.939 515.976 97.9834L516.057 96.9866L516.137 95.9898ZM523.917 98.5506C524.469 98.5852 524.943 98.1665 524.978 97.6153C525.013 97.0641 524.594 96.5892 524.043 96.5546L523.98 97.5526L523.917 98.5506ZM531.88 96.9856C531.328 96.9594 530.86 97.3853 530.833 97.937C530.807 98.4886 531.233 98.9571 531.785 98.9833L531.832 97.9845L531.88 96.9856ZM539.662 99.3042C540.214 99.3231 540.676 98.891 540.695 98.339C540.714 97.787 540.282 97.3243 539.73 97.3054L539.696 98.3048L539.662 99.3042ZM547.663 97.5284C547.111 97.5161 546.653 97.9537 546.641 98.5059C546.629 99.058 547.066 99.5156 547.618 99.5279L547.641 98.5281L547.663 97.5284ZM555.446 99.6602C555.998 99.6667 556.451 99.2242 556.458 98.672C556.464 98.1197 556.022 97.6668 555.469 97.6603L555.458 98.6602L555.446 99.6602ZM563.439 97.7148C562.887 97.7137 562.438 98.1605 562.437 98.7127C562.436 99.265 562.882 99.7137 563.435 99.7148L563.437 98.7148L563.439 97.7148ZM571.24 99.6974C571.792 99.6939 572.237 99.2433 572.233 98.691C572.23 98.1388 571.779 97.6939 571.227 97.6975L571.233 98.6975L571.24 99.6974ZM579.192 97.6141C578.64 97.6221 578.199 98.0762 578.207 98.6284C578.214 99.1806 578.669 99.6219 579.221 99.6139L579.206 98.614L579.192 97.6141ZM587.034 99.4734C587.586 99.4615 588.024 99.0043 588.012 98.4521C588 97.8999 587.543 97.462 586.991 97.4738L587.012 98.4736L587.034 99.4734ZM594.924 97.2764C594.372 97.292 593.937 97.7521 593.953 98.3042C593.968 98.8562 594.428 99.2912 594.98 99.2756L594.952 98.276L594.924 97.2764ZM602.832 99.0302C603.384 99.0113 603.816 98.5485 603.797 97.9966C603.778 97.4446 603.315 97.0125 602.763 97.0314L602.798 98.0308L602.832 99.0302ZM610.646 96.7387C610.094 96.7607 609.665 97.226 609.687 97.7778C609.709 98.3297 610.174 98.7592 610.726 98.7371L610.686 97.7379L610.646 96.7387ZM618.644 98.3997C619.196 98.3747 619.623 97.9073 619.598 97.3555C619.573 96.8038 619.106 96.3768 618.554 96.4017L618.599 97.4007L618.644 98.3997ZM626.373 96.0288C625.822 96.0564 625.397 96.526 625.424 97.0776C625.452 97.6292 625.922 98.0539 626.473 98.0263L626.423 97.0276L626.373 96.0288ZM634.47 97.6067C635.021 97.5765 635.444 97.105 635.413 96.5535C635.383 96.0021 634.912 95.5795 634.36 95.6097L634.415 96.6082L634.47 97.6067ZM642.123 95.1678C641.571 95.2004 641.151 95.6737 641.183 96.225C641.216 96.7764 641.689 97.1969 642.24 97.1644L642.182 96.1661L642.123 95.1678ZM650.148 96.6813C650.699 96.6466 651.117 96.1715 651.083 95.6203C651.048 95.0692 650.573 94.6505 650.022 94.6853L650.085 95.6833L650.148 96.6813ZM657.912 94.1721C657.361 94.209 656.944 94.6856 656.981 95.2367C657.018 95.7877 657.494 96.2046 658.045 96.1677L657.979 95.1699L657.912 94.1721ZM665.861 95.6304C666.412 95.5915 666.827 95.1134 666.788 94.5625C666.749 94.0116 666.271 93.5965 665.72 93.6354L665.79 94.6329L665.861 95.6304ZM673.666 93.0612C673.115 93.1019 672.702 93.5814 672.743 94.1322C672.783 94.683 673.263 95.0965 673.814 95.0557L673.74 94.0585L673.666 93.0612ZM681.628 94.465C682.179 94.4225 682.591 93.9417 682.548 93.3911C682.506 92.8404 682.025 92.4285 681.474 92.471L681.551 93.468L681.628 94.465ZM689.316 91.8536C688.766 91.8978 688.355 92.3799 688.399 92.9304C688.444 93.4809 688.926 93.8914 689.476 93.8472L689.396 92.8504L689.316 91.8536ZM697.45 93.1955C698 93.1497 698.409 92.6664 698.363 92.116C698.317 91.5656 697.834 91.1566 697.284 91.2024L697.367 92.1989L697.45 93.1955ZM705.041 90.5462C704.491 90.5935 704.083 91.0779 704.13 91.6282C704.178 92.1785 704.662 92.5862 705.212 92.5389L705.127 91.5426L705.041 90.5462ZM713.072 91.8529C713.622 91.8041 714.029 91.3187 713.98 90.7685C713.931 90.2184 713.446 89.812 712.896 89.8607L712.984 90.8568L713.072 91.8529ZM720.857 89.1451C720.307 89.1953 719.901 89.6818 719.951 90.2318C720.002 90.7818 720.488 91.187 721.038 91.1369L720.947 90.141L720.857 89.1451ZM728.789 90.4211C729.338 90.3696 729.743 89.8822 729.691 89.3323C729.64 88.7824 729.152 88.3783 728.602 88.4298L728.695 89.4254L728.789 90.4211ZM736.453 87.6862C735.904 87.7389 735.501 88.2273 735.553 88.7771C735.606 89.3268 736.095 89.7298 736.644 89.6771L736.549 88.6817L736.453 87.6862ZM744.606 88.905C745.155 88.8511 745.557 88.3618 745.503 87.8121C745.449 87.2625 744.96 86.8606 744.41 86.9146L744.508 87.9098L744.606 88.905ZM752.156 86.1465C751.607 86.2016 751.206 86.6917 751.261 87.2412C751.316 87.7908 751.806 88.1916 752.356 88.1366L752.256 87.1415L752.156 86.1465ZM760.195 87.3431C760.744 87.2869 761.144 86.796 761.088 86.2466C761.032 85.6972 760.541 85.2973 759.992 85.3535L760.093 86.3483L760.195 87.3431ZM767.924 84.5347C767.375 84.5919 766.976 85.0836 767.033 85.6329C767.09 86.1822 767.582 86.5811 768.131 86.5239L768.028 85.5293L767.924 84.5347ZM775.917 85.7052C776.466 85.647 776.864 85.1545 776.806 84.6053C776.748 84.0561 776.255 83.6581 775.706 83.7164L775.812 84.7108L775.917 85.7052ZM783.516 82.8809C782.967 82.9402 782.569 83.4333 782.629 83.9824C782.688 84.5315 783.181 84.9286 783.73 84.8694L783.623 83.8752L783.516 82.8809ZM791.633 84.0098C792.182 83.9496 792.578 83.4558 792.518 82.9068C792.458 82.3578 791.964 81.9616 791.415 82.0217L791.524 83.0158L791.633 84.0098ZM799.258 81.1553C798.709 81.2164 798.314 81.7109 798.375 82.2598C798.436 82.8086 798.93 83.2041 799.479 83.143L799.369 82.1491L799.258 81.1553ZM807.259 82.2707C807.808 82.2087 808.203 81.7136 808.141 81.1648C808.079 80.616 807.583 80.2213 807.035 80.2833L807.147 81.277L807.259 82.2707ZM814.895 79.3895C814.346 79.4523 813.952 79.948 814.015 80.4967C814.078 81.0454 814.573 81.4393 815.122 81.3765L815.008 80.383L814.895 79.3895ZM823.051 80.4625C823.6 80.3989 823.993 79.9025 823.929 79.3539C823.866 78.8053 823.369 78.4122 822.821 78.4759L822.936 79.4692L823.051 80.4625ZM830.559 77.5724C830.01 77.6369 829.618 78.1338 829.682 78.6823C829.747 79.2308 830.243 79.6232 830.792 79.5588L830.675 78.5656L830.559 77.5724ZM838.61 78.6348C839.159 78.5696 839.55 78.0722 839.485 77.5238C839.42 76.9754 838.922 76.5836 838.374 76.6488L838.492 77.6418L838.61 78.6348ZM846.267 75.7051C845.719 75.771 845.328 76.269 845.393 76.8173C845.459 77.3656 845.957 77.7567 846.506 77.6907L846.386 76.6979L846.267 75.7051ZM1023.36 30.6372C1023.9 30.5251 1024.25 29.9958 1024.13 29.455C1024.02 28.9142 1023.49 28.5668 1022.95 28.6789L1023.16 29.6581L1023.36 30.6372ZM1030.97 27.0807C1030.43 27.1844 1030.07 27.7081 1030.17 28.2506C1030.28 28.7931 1030.8 29.1488 1031.34 29.0452L1031.16 28.0629L1030.97 27.0807ZM1039.34 27.5883C1039.88 27.494 1040.25 26.9765 1040.15 26.4323C1040.06 25.8881 1039.54 25.5234 1039 25.6176L1039.17 26.603L1039.34 27.5883ZM1047.06 24.2989C1046.51 24.3828 1046.14 24.8934 1046.22 25.4392C1046.3 25.9851 1046.81 26.3596 1047.36 26.2757L1047.21 25.2873L1047.06 24.2989ZM1055.41 25.1222C1055.96 25.0496 1056.34 24.5469 1056.27 23.9994C1056.2 23.4519 1055.69 23.0669 1055.15 23.1395L1055.28 24.1308L1055.41 25.1222ZM1063.26 22.1552C1062.71 22.2155 1062.31 22.7094 1062.37 23.2583C1062.43 23.8073 1062.93 24.2035 1063.48 24.1433L1063.37 23.1492L1063.26 22.1552ZM1071.56 23.3541C1072.11 23.3072 1072.52 22.8231 1072.47 22.2728C1072.43 21.7225 1071.94 21.3144 1071.39 21.3613L1071.48 22.3577L1071.56 23.3541ZM1079.55 20.7737C1079 20.806 1078.57 21.2792 1078.61 21.8305C1078.64 22.3818 1079.11 22.8026 1079.66 22.7702L1079.61 21.7719L1079.55 20.7737ZM1087.78 22.409C1088.33 22.3924 1088.76 21.9314 1088.75 21.3794C1088.73 20.8274 1088.27 20.3933 1087.72 20.4099L1087.75 21.4094L1087.78 22.409ZM1095.9 20.2884C1095.34 20.288 1094.9 20.7354 1094.9 21.2877C1094.89 21.84 1095.34 22.288 1095.89 22.2884L1095.9 21.2884L1095.9 20.2884ZM1104.01 22.4275C1104.56 22.4462 1105.02 22.014 1105.04 21.462C1105.06 20.91 1104.63 20.4474 1104.08 20.4286L1104.04 21.4281L1104.01 22.4275ZM1112.25 20.8509C1111.7 20.8124 1111.22 21.2279 1111.18 21.7788C1111.14 22.3297 1111.56 22.8076 1112.11 22.846L1112.18 21.8485L1112.25 20.8509ZM1120.19 23.5647C1120.74 23.6243 1121.23 23.2276 1121.29 22.6785C1121.35 22.1295 1120.95 21.636 1120.4 21.5764L1120.3 22.5705L1120.19 23.5647ZM1128.53 22.6267C1127.98 22.5445 1127.47 22.9205 1127.39 23.4666C1127.31 24.0128 1127.68 24.5222 1128.23 24.6044L1128.38 23.6156L1128.53 22.6267ZM1136.21 25.9864C1136.76 26.0927 1137.28 25.7395 1137.39 25.1976C1137.49 24.6556 1137.14 24.1301 1136.6 24.0238L1136.41 25.0051L1136.21 25.9864ZM1144.6 25.7885C1144.07 25.6568 1143.52 25.9848 1143.39 26.5211C1143.26 27.0575 1143.59 27.5991 1144.12 27.7308L1144.36 26.7597L1144.6 25.7885ZM1151.94 29.8567C1152.47 30.0151 1153.02 29.7147 1153.18 29.1856C1153.34 28.6565 1153.04 28.0992 1152.51 27.9408L1152.22 28.8988L1151.94 29.8567ZM1160.3 30.4982C1159.78 30.3121 1159.21 30.5827 1159.03 31.1027C1158.84 31.6226 1159.11 32.1951 1159.63 32.3812L1159.97 31.4397L1160.3 30.4982ZM1167.17 35.3164C1167.68 35.531 1168.27 35.2925 1168.48 34.7836C1168.69 34.2747 1168.46 33.6882 1167.95 33.4736L1167.56 34.395L1167.17 35.3164ZM1175.41 36.8763C1174.92 36.6327 1174.32 36.8371 1174.07 37.3328C1173.83 37.8285 1174.03 38.4278 1174.53 38.6713L1174.97 37.7738L1175.41 36.8763ZM1181.68 42.4504C1182.16 42.7228 1182.77 42.5543 1183.04 42.0739C1183.31 41.5936 1183.15 40.9832 1182.67 40.7107L1182.17 41.5805L1181.68 42.4504ZM1189.68 44.975C1189.22 44.674 1188.6 44.8053 1188.3 45.2684C1188 45.7314 1188.13 46.3508 1188.59 46.6518L1189.14 45.8134L1189.68 44.975ZM1195.24 51.2668C1195.68 51.5955 1196.31 51.5022 1196.64 51.0584C1196.97 50.6146 1196.87 49.9883 1196.43 49.6596L1195.83 50.4632L1195.24 51.2668ZM1202.87 54.7384C1202.44 54.3834 1201.81 54.4385 1201.46 54.8616C1201.1 55.2846 1201.16 55.9154 1201.58 56.2704L1202.22 55.5044L1202.87 54.7384ZM1207.61 61.6493C1208.01 62.0291 1208.65 62.0118 1209.03 61.6108C1209.41 61.2098 1209.39 60.5768 1208.99 60.1971L1208.3 60.9232L1207.61 61.6493ZM1214.77 66.0093C1214.4 65.6067 1213.76 65.5869 1213.36 65.9651C1212.96 66.3432 1212.94 66.976 1213.32 67.3786L1214.05 66.6939L1214.77 66.0093ZM1218.65 73.3782C1219 73.8008 1219.63 73.8552 1220.06 73.4996C1220.48 73.1441 1220.53 72.5132 1220.18 72.0906L1219.41 72.7344L1218.65 73.3782ZM1225.03 78.2235C1224.7 77.7792 1224.08 77.6852 1223.63 78.0133C1223.19 78.3415 1223.09 78.9676 1223.42 79.4118L1224.23 78.8176L1225.03 78.2235ZM1227.71 85.7457C1227.99 86.2174 1228.61 86.3668 1229.08 86.0795C1229.55 85.7921 1229.7 85.1769 1229.41 84.7052L1228.56 85.2255L1227.71 85.7457ZM1233.1 91.743C1232.89 91.2359 1232.3 91.0022 1231.79 91.221C1231.28 91.4398 1231.05 92.0282 1231.27 92.5353L1232.19 92.1392L1233.1 91.743ZM1233.47 99.7044C1233.55 100.25 1234.07 100.62 1234.61 100.532C1235.16 100.443 1235.53 99.9299 1235.44 99.3847L1234.45 99.5445L1233.47 99.7044ZM1234.97 107.555C1235.15 107.031 1234.87 106.464 1234.34 106.289C1233.82 106.114 1233.25 106.396 1233.08 106.92L1234.02 107.237L1234.97 107.555ZM1228.82 112.471C1228.36 112.784 1228.25 113.406 1228.56 113.862C1228.87 114.317 1229.49 114.433 1229.95 114.121L1229.38 113.296L1228.82 112.471ZM1222.34 117.06C1222.89 116.963 1223.25 116.444 1223.15 115.9C1223.06 115.356 1222.54 114.994 1221.99 115.09L1222.17 116.075L1222.34 117.06ZM1214.5 115.395C1213.95 115.352 1213.47 115.764 1213.42 116.314C1213.38 116.865 1213.79 117.346 1214.34 117.389L1214.42 116.392L1214.5 115.395ZM1206.49 115.997C1207.03 116.144 1207.58 115.831 1207.72 115.298C1207.87 114.766 1207.56 114.215 1207.02 114.069L1206.76 115.033L1206.49 115.997ZM1199.9 111.417C1199.4 111.18 1198.81 111.391 1198.57 111.889C1198.33 112.388 1198.54 112.985 1199.04 113.222L1199.47 112.32L1199.9 111.417ZM1192.21 109.13C1192.65 109.459 1193.28 109.367 1193.6 108.923C1193.93 108.48 1193.84 107.853 1193.4 107.524L1192.8 108.327L1192.21 109.13ZM1187.9 102.377C1187.54 101.953 1186.91 101.896 1186.49 102.25C1186.06 102.604 1186.01 103.235 1186.36 103.659L1187.13 103.018L1187.9 102.377ZM1182.14 96.8037C1182.36 97.3127 1182.94 97.5517 1183.45 97.3374C1183.96 97.1232 1184.2 96.5368 1183.99 96.0278L1183.06 96.4157L1182.14 96.8037ZM1182.38 88.6814C1182.38 88.1291 1181.94 87.6822 1181.38 87.6831C1180.83 87.6841 1180.38 88.1325 1180.38 88.6848L1181.38 88.6831L1182.38 88.6814ZM1182.08 80.3907C1181.88 80.903 1182.12 81.4856 1182.64 81.6919C1183.15 81.8982 1183.73 81.6502 1183.94 81.1379L1183.01 80.7643L1182.08 80.3907ZM1187.83 74.2893C1188.16 73.8436 1188.06 73.2179 1187.62 72.8917C1187.17 72.5655 1186.55 72.6623 1186.22 73.108L1187.03 73.6986L1187.83 74.2893ZM1191.66 66.8656C1191.27 67.2536 1191.27 67.8867 1191.65 68.2798C1192.04 68.673 1192.68 68.6772 1193.07 68.2893L1192.37 67.5775L1191.66 66.8656ZM1199.1 63.0007C1199.54 62.6592 1199.61 62.0305 1199.27 61.5965C1198.93 61.1624 1198.3 61.0875 1197.87 61.429L1198.48 62.2149L1199.1 63.0007ZM1204.56 56.6203C1204.1 56.9239 1203.97 57.5441 1204.28 58.0054C1204.58 58.4667 1205.2 58.5945 1205.66 58.2908L1205.11 57.4555L1204.56 56.6203ZM1212.54 54.0964C1213.02 53.8244 1213.19 53.2143 1212.92 52.7336C1212.65 52.2529 1212.04 52.0837 1211.56 52.3557L1212.05 53.226L1212.54 54.0964ZM1218.8 48.5286C1218.31 48.773 1218.11 49.3727 1218.35 49.8679C1218.6 50.3631 1219.19 50.5665 1219.69 50.322L1219.25 49.4253L1218.8 48.5286ZM1227.05 46.9161C1227.56 46.6962 1227.79 46.1073 1227.57 45.6006C1227.35 45.094 1226.76 44.8616 1226.25 45.0815L1226.65 45.9988L1227.05 46.9161ZM1233.84 41.9862C1233.32 42.1838 1233.07 42.762 1233.26 43.2778C1233.46 43.7935 1234.04 44.0514 1234.56 43.8538L1234.2 42.92L1233.84 41.9862ZM1242.17 41.1119C1242.69 40.9349 1242.97 40.3673 1242.79 39.8442C1242.62 39.321 1242.05 39.0404 1241.53 39.2174L1241.85 40.1647L1242.17 41.1119ZM1249.32 36.7428C1248.79 36.9004 1248.48 37.4572 1248.64 37.9865C1248.8 38.5159 1249.36 38.8172 1249.89 38.6596L1249.6 37.7012L1249.32 36.7428ZM1257.69 36.4834C1258.23 36.3443 1258.55 35.7982 1258.41 35.2638C1258.27 34.7293 1257.72 34.4088 1257.19 34.5479L1257.44 35.5156L1257.69 36.4834ZM1265.14 32.6213C1264.6 32.7426 1264.26 33.2777 1264.38 33.8165C1264.5 34.3553 1265.04 34.6938 1265.57 34.5725L1265.35 33.5969L1265.14 32.6213ZM1273.51 32.9186C1274.06 32.8146 1274.41 32.2906 1274.31 31.7482C1274.2 31.2058 1273.68 30.8504 1273.14 30.9544L1273.33 31.9365L1273.51 32.9186ZM1281.19 29.5408C1280.64 29.6279 1280.27 30.1406 1280.36 30.6859C1280.45 31.2313 1280.96 31.6029 1281.5 31.5158L1281.35 30.5283L1281.19 29.5408ZM1289.53 30.3595C1290.08 30.2891 1290.47 29.788 1290.4 29.2402C1290.33 28.6924 1289.83 28.3054 1289.28 28.3758L1289.41 29.3676L1289.53 30.3595ZM1297.4 27.4563C1296.85 27.5102 1296.45 27.9995 1296.5 28.5491C1296.56 29.0988 1297.05 29.5007 1297.6 29.4468L1297.5 28.4516L1297.4 27.4563ZM1305.68 28.776C1306.23 28.7385 1306.65 28.2615 1306.61 27.7105C1306.57 27.1595 1306.1 26.7431 1305.55 26.7806L1305.61 27.7783L1305.68 28.776ZM1313.71 26.3478C1313.16 26.3688 1312.73 26.8332 1312.75 27.3851C1312.77 27.937 1313.23 28.3674 1313.79 28.3463L1313.75 27.347L1313.71 26.3478ZM1321.9 28.1579C1322.45 28.1533 1322.89 27.7018 1322.89 27.1496C1322.89 26.5973 1322.43 26.1533 1321.88 26.1579L1321.89 27.1579L1321.9 28.1579ZM1330.06 26.2119C1329.51 26.2 1329.05 26.638 1329.04 27.1901C1329.02 27.7423 1329.46 28.1995 1330.01 28.2114L1330.04 27.2117L1330.06 26.2119ZM1338.12 28.5079C1338.67 28.5364 1339.14 28.1124 1339.17 27.5609C1339.2 27.0093 1338.77 26.5391 1338.22 26.5106L1338.17 27.5093L1338.12 28.5079ZM1346.37 27.0554C1345.82 27.0102 1345.34 27.4197 1345.29 27.9702C1345.25 28.5206 1345.66 29.0035 1346.21 29.0486L1346.29 28.052L1346.37 27.0554ZM1354.28 29.8357C1354.83 29.8977 1355.32 29.5032 1355.38 28.9544C1355.45 28.4056 1355.05 27.9104 1354.5 27.8484L1354.39 28.842L1354.28 29.8357ZM1362.61 28.8919C1362.06 28.8128 1361.55 29.1919 1361.47 29.7385C1361.4 30.2851 1361.77 30.7922 1362.32 30.8713L1362.46 29.8816L1362.61 28.8919ZM1 52.8293L1.94154 53.1662C2.41143 51.8529 2.90426 50.5746 3.41945 49.3304L2.49553 48.9478L1.57161 48.5652C1.04363 49.8403 0.539078 51.1491 0.0584552 52.4924L1 52.8293ZM5.99703 41.6071L6.87452 42.0867C8.19503 39.6706 9.61672 37.4109 11.1337 35.3006L10.3217 34.7169L9.50975 34.1332C7.94335 36.3122 6.47816 38.6417 5.11954 41.1275L5.99703 41.6071ZM15.5025 28.4435L16.228 29.1317C18.0895 27.1694 20.0579 25.374 22.1262 23.7373L21.5056 22.9531L20.8851 22.1689C18.7426 23.8643 16.7041 25.7238 14.777 27.7553L15.5025 28.4435ZM28.2269 18.3684L28.7314 19.2318C31.0264 17.8909 33.4184 16.7034 35.9006 15.6614L35.5135 14.7393L35.1264 13.8173C32.5669 14.8918 30.0962 16.118 27.7225 17.505L28.2269 18.3684ZM43.1995 12.0415L43.4761 13.0025C46.0146 12.2718 48.6297 11.6671 51.3152 11.1816L51.1373 10.1976L50.9594 9.21352C48.2116 9.71026 45.5304 10.33 42.9229 11.0805L43.1995 12.0415ZM59.2135 9.10504L59.3058 10.1008C61.9396 9.8566 64.6291 9.71098 67.3693 9.65821L67.3501 8.6584L67.3308 7.65858C64.5451 7.71223 61.8067 7.86034 59.1212 8.10931L59.2135 9.10504ZM75.4976 8.76133L75.4548 9.76042C78.1089 9.8742 80.8025 10.0646 83.5313 10.3268L83.627 9.33142L83.7226 8.336C80.9609 8.07061 78.232 7.87764 75.5404 7.76225L75.4976 8.76133ZM91.7219 10.3003L91.5811 11.2903C94.2259 11.6665 96.8981 12.1029 99.5939 12.5954L99.7736 11.6117L99.9533 10.628C97.2332 10.1311 94.5351 9.69036 91.8627 9.31022L91.7219 10.3003ZM107.777 13.2195L107.564 14.1965C110.188 14.7696 112.83 15.3905 115.487 16.0554L115.73 15.0853L115.972 14.1152C113.297 13.4457 110.635 12.8202 107.991 12.2426L107.777 13.2195ZM123.6 17.1686L123.332 18.1319C125.921 18.8537 128.522 19.6131 131.13 20.4068L131.421 19.4502L131.712 18.4935C129.09 17.6954 126.474 16.9315 123.868 16.2053L123.6 17.1686ZM139.197 21.9087L138.886 22.859C141.453 23.7 144.025 24.5709 146.598 25.4684L146.927 24.5242L147.256 23.58C144.672 22.6785 142.088 21.8036 139.509 20.9584L139.197 21.9087ZM154.607 27.2782L154.262 28.2166C156.801 29.1512 159.339 30.1088 161.873 31.0862L162.233 30.1532L162.592 29.2202C160.049 28.2393 157.502 27.2781 154.953 26.3397L154.607 27.2782ZM169.821 33.1425L169.448 34.0704C171.968 35.0831 174.481 36.1126 176.985 37.156L177.369 36.2329L177.754 35.3098C175.243 34.2634 172.722 33.2306 170.194 32.2147L169.821 33.1425ZM184.875 39.4118L184.479 40.3304C186.981 41.4067 189.47 42.4938 191.945 43.589L192.349 42.6745L192.754 41.7601C190.274 40.6623 187.778 39.5723 185.27 38.4933L184.875 39.4118ZM199.797 46.0135L199.384 46.9241C201.872 48.0534 204.342 49.1877 206.791 50.3238L207.212 49.4167L207.633 48.5095C205.179 47.3713 202.704 46.2346 200.211 45.1029L199.797 46.0135ZM214.592 52.8745L214.164 53.7785C216.638 54.9482 219.085 56.1163 221.504 57.2792L221.937 56.378L222.37 55.4768C219.948 54.3122 217.497 53.1422 215.02 51.9705L214.592 52.8745ZM229.283 59.9353L228.845 60.8342C231.326 62.0434 233.77 63.2429 236.176 64.4284L236.618 63.5315L237.06 62.6345C234.652 61.4479 232.205 60.2471 229.721 59.0364L229.283 59.9353ZM243.936 67.1526L243.491 68.0483C245.977 69.2828 248.413 70.4964 250.795 71.684L251.241 70.7891L251.688 69.8941C249.305 68.7063 246.868 67.4922 244.38 66.257L243.936 67.1526ZM258.543 74.4292L258.097 75.3243C259.313 75.9301 260.513 76.5269 261.694 77.1139L262.139 76.2183L262.584 75.3227C261.403 74.7362 260.205 74.1397 258.989 73.5341L258.543 74.4292ZM262.139 76.2183L261.694 77.1139C262.912 77.7187 264.145 78.3119 265.393 78.8934L265.816 77.987L266.238 77.0805C265.005 76.5059 263.787 75.92 262.584 75.3227L262.139 76.2183ZM273.339 81.2772L272.96 82.2024C275.476 83.2349 278.045 84.2243 280.662 85.1706L281.002 84.2302L281.342 83.2898C278.751 82.3527 276.208 81.3735 273.719 80.3521L273.339 81.2772ZM288.778 86.8711L288.475 87.824C291.07 88.6504 293.705 89.4374 296.379 90.185L296.648 89.2219L296.917 88.2589C294.266 87.5175 291.653 86.7373 289.082 85.9183L288.778 86.8711ZM304.595 91.3016L304.358 92.273C307.007 92.9203 309.689 93.5309 312.399 94.1049L312.606 93.1266L312.813 92.1483C310.123 91.5785 307.461 90.9724 304.832 90.3302L304.595 91.3016ZM320.67 94.7109L320.491 95.6948C323.177 96.1824 325.887 96.6355 328.619 97.0541L328.771 96.0657L328.922 95.0772C326.208 94.6613 323.516 94.2113 320.848 93.727L320.67 94.7109ZM336.897 97.2009L336.771 98.193C339.481 98.5356 342.209 98.8453 344.952 99.1221L345.053 98.1272L345.153 97.1322C342.426 96.8571 339.715 96.5493 337.022 96.2088L336.897 97.2009ZM353.232 98.8514L353.156 99.8485C355.884 100.057 358.625 100.233 361.376 100.378L361.429 99.3792L361.481 98.3806C358.746 98.2368 356.021 98.0613 353.308 97.8543L353.232 98.8514ZM369.637 99.7153L369.607 100.715C372.346 100.795 375.092 100.845 377.843 100.863L377.85 99.8633L377.857 98.8633C375.12 98.845 372.389 98.7958 369.666 98.7158L369.637 99.7153ZM386.06 99.8258L386.076 100.826C388.817 100.782 391.561 100.709 394.306 100.604L394.268 99.6048L394.23 98.6055C391.5 98.7095 388.771 98.7829 386.044 98.8259L386.06 99.8258ZM402.471 99.201L402.531 100.199C405.272 100.034 408.011 99.8375 410.745 99.6109L410.663 98.6143L410.58 97.6177C407.86 97.8431 405.136 98.0382 402.411 98.2028L402.471 99.201ZM418.838 97.844L418.943 98.8385C421.676 98.5498 424.402 98.2304 427.119 97.8803L426.992 96.8885L426.864 95.8967C424.162 96.2448 421.451 96.5625 418.733 96.8495L418.838 97.844ZM435.125 95.7441L435.276 96.7327C437.998 96.3171 440.708 95.8703 443.405 95.3922L443.231 94.4075L443.056 93.4229C440.375 93.8982 437.68 94.3424 434.974 94.7556L435.125 95.7441ZM451.301 92.8744L451.499 93.8545C454.201 93.3064 456.886 92.7263 459.551 92.1141L459.327 91.1394L459.104 90.1648C456.455 90.7731 453.787 91.3497 451.102 91.8944L451.301 92.8744ZM467.304 89.1961L467.554 90.1644C470.225 89.4754 472.874 88.7532 475.498 87.9977L475.222 87.0368L474.945 86.0758C472.339 86.826 469.708 87.5434 467.054 88.2278L467.304 89.1961ZM483.073 84.6519L483.378 85.6043C486.014 84.7608 488.62 83.8824 491.195 82.969L490.861 82.0265L490.526 81.0841C487.972 81.9904 485.385 82.8622 482.769 83.6994L483.073 84.6519ZM498.558 79.1525L498.924 80.0834C501.503 79.0704 504.046 78.0205 506.549 76.9335L506.151 76.0162L505.753 75.099C503.272 76.1763 500.751 77.2172 498.193 78.2217L498.558 79.1525ZM513.621 72.6024L514.055 73.5037C516.557 72.3011 519.013 71.0588 521.419 69.7766L520.949 68.8941L520.479 68.0116C518.098 69.2802 515.666 70.5101 513.188 71.7011L513.621 72.6024ZM528.108 64.8725L528.618 65.733C531.011 64.3157 533.346 62.8554 535.621 61.3519L535.069 60.5177L534.518 59.6835C532.272 61.1681 529.964 62.611 527.599 64.0121L528.108 64.8725ZM541.795 55.8089L542.391 56.612C543.498 55.7907 544.588 54.9579 545.659 54.1136L545.04 53.3281L544.421 52.5426C543.365 53.3748 542.291 54.1958 541.199 55.0058L541.795 55.8089ZM545.04 53.3281L545.659 54.1136C546.829 53.1919 547.942 52.2766 548.999 51.3682L548.347 50.6097L547.695 49.8513C546.661 50.7404 545.57 51.6376 544.421 52.5426L545.04 53.3281ZM554.355 44.8944L555.084 45.5783C557.186 43.3359 558.946 41.1404 560.382 38.9982L559.552 38.4413L558.721 37.8844C557.353 39.925 555.664 42.0362 553.625 44.2105L554.355 44.8944ZM563.301 31.0412L564.249 31.3597C565.262 28.3432 565.598 25.462 565.315 22.7493L564.32 22.8531L563.326 22.9568C563.576 25.3548 563.285 27.9479 562.353 30.7227L563.301 31.0412ZM561.454 15.1258L562.282 14.565C560.733 12.279 558.661 10.2412 556.172 8.46881L555.592 9.28336L555.012 10.0979C557.34 11.756 559.233 13.6296 560.626 15.6867L561.454 15.1258ZM548.282 5.32222L548.662 4.39733C546.161 3.36891 543.442 2.51139 540.552 1.83492L540.324 2.80861L540.096 3.7823C542.893 4.43696 545.509 5.26334 547.902 6.24712L548.282 5.32222ZM532.131 1.43671L532.237 0.442339C529.516 0.152555 526.694 0.00268358 523.799 3.46303e-05L523.798 1.00003L523.797 2.00003C526.625 2.00262 529.376 2.14901 532.025 2.43109L532.131 1.43671ZM515.493 1.39022L515.4 0.394597C512.652 0.652535 509.863 1.03892 507.053 1.55957L507.235 2.54284L507.417 3.5261C510.169 3.01632 512.899 2.63819 515.587 2.38584L515.493 1.39022ZM499.118 4.41826L498.85 3.4547C496.181 4.19566 493.51 5.06105 490.855 6.05586L491.206 6.9923L491.557 7.92874C494.156 6.9548 496.772 6.10742 499.385 5.38182L499.118 4.41826ZM483.545 10.2577L483.112 9.35632C480.605 10.5607 478.127 11.8892 475.693 13.3463L476.207 14.2042L476.721 15.0622C479.101 13.6372 481.525 12.3376 483.978 11.1591L483.545 10.2577ZM469.266 18.8174L468.673 18.0117C466.437 19.656 464.255 21.4227 462.142 23.3157L462.809 24.0606L463.477 24.8054C465.541 22.9562 467.672 21.2301 469.858 19.6231L469.266 18.8174ZM456.892 29.9072L456.155 29.2312C454.284 31.2707 452.487 33.4278 450.776 35.7057L451.575 36.3063L452.375 36.907C454.046 34.6819 455.802 32.5751 457.629 30.5833L456.892 29.9072ZM446.906 43.1929L446.052 42.6721C445.321 43.8696 444.613 45.0951 443.927 46.349L444.805 46.8286L445.682 47.3081C446.353 46.0821 447.045 44.8841 447.759 43.7137L446.906 43.1929ZM444.805 46.8286L443.927 46.349C443.247 47.594 442.638 48.819 442.101 50.024L443.015 50.431L443.928 50.838C444.441 49.6861 445.026 48.5095 445.682 47.3081L444.805 46.8286ZM440.593 57.872L439.611 57.681C439.054 60.5433 438.978 63.2791 439.397 65.8822L440.384 65.7233L441.371 65.5644C440.994 63.22 441.057 60.7225 441.574 58.0629L440.593 57.872ZM443.166 73.0151L442.321 73.5495C443.701 75.7308 445.517 77.759 447.757 79.6393L448.4 78.8734L449.043 78.1075C446.938 76.34 445.265 74.4634 444.012 72.4806L443.166 73.0151ZM454.898 83.263L454.414 84.1381C456.605 85.35 459.028 86.4864 461.681 87.5492L462.053 86.621L462.425 85.6927C459.838 84.6562 457.491 83.5543 455.382 82.3879L454.898 83.263ZM469.508 89.2284L469.215 90.1847C471.623 90.9213 474.175 91.6138 476.87 92.2628L477.104 91.2906L477.338 90.3184C474.678 89.6779 472.166 88.9958 469.8 88.2721L469.508 89.2284ZM484.789 92.948L484.599 93.9299C487.097 94.4115 489.698 94.8624 492.401 95.283L492.555 94.2948L492.708 93.3067C490.027 92.8896 487.45 92.4427 484.978 91.9661L484.789 92.948ZM500.413 95.3953L500.289 96.3875C502.835 96.7071 505.46 97.0034 508.165 97.2766L508.265 96.2817L508.366 95.2867C505.676 95.0151 503.067 94.7206 500.538 94.4031L500.413 95.3953ZM516.057 96.9866L515.976 97.9834C518.558 98.1913 521.205 98.3803 523.917 98.5506L523.98 97.5526L524.043 96.5546C521.342 96.385 518.706 96.1967 516.137 95.9898L516.057 96.9866ZM531.832 97.9845L531.785 98.9833C534.357 99.1057 536.982 99.2126 539.662 99.3042L539.696 98.3048L539.73 97.3054C537.059 97.2141 534.442 97.1075 531.88 96.9856L531.832 97.9845ZM547.641 98.5281L547.618 99.5279C550.182 99.5849 552.791 99.629 555.446 99.6602L555.458 98.6602L555.469 97.6603C552.821 97.6292 550.219 97.5852 547.663 97.5284L547.641 98.5281ZM563.437 98.7148L563.435 99.7148C565.997 99.7202 568.598 99.7144 571.24 99.6974L571.233 98.6975L571.227 97.6975C568.591 97.7144 565.995 97.7202 563.439 97.7148L563.437 98.7148ZM579.206 98.614L579.221 99.6139C581.79 99.577 584.394 99.5301 587.034 99.4734L587.012 98.4736L586.991 97.4738C584.356 97.5305 581.756 97.5773 579.192 97.6141L579.206 98.614ZM594.952 98.276L594.98 99.2756C597.565 99.2028 600.183 99.121 602.832 99.0302L602.798 98.0308L602.763 97.0314C600.118 97.122 597.505 97.2037 594.924 97.2764L594.952 98.276ZM610.686 97.7379L610.726 98.7371C613.336 98.6329 615.975 98.5204 618.644 98.3997L618.599 97.4007L618.554 96.4017C615.888 96.5223 613.252 96.6346 610.646 96.7387L610.686 97.7379ZM626.423 97.0276L626.473 98.0263C629.111 97.8941 631.776 97.7543 634.47 97.6067L634.415 96.6082L634.36 95.6097C631.67 95.7571 629.008 95.8968 626.373 96.0288L626.423 97.0276ZM642.182 96.1661L642.24 97.1644C644.851 97.0103 647.487 96.8493 650.148 96.6813L650.085 95.6833L650.022 94.6853C647.363 94.8531 644.73 95.0139 642.123 95.1678L642.182 96.1661ZM657.979 95.1699L658.045 96.1677C660.628 95.9948 663.233 95.8157 665.861 95.6304L665.79 94.6329L665.72 93.6354C663.094 93.8205 660.492 93.9995 657.912 94.1721L657.979 95.1699ZM673.74 94.0585L673.814 95.0557C676.397 94.8646 679.002 94.6677 681.628 94.465L681.551 93.468L681.474 92.471C678.85 92.6735 676.247 92.8702 673.666 93.0612L673.74 94.0585ZM689.396 92.8504L689.476 93.8472C692.113 93.6356 694.771 93.4184 697.45 93.1955L697.367 92.1989L697.284 91.2024C694.607 91.4251 691.951 91.6422 689.316 91.8536L689.396 92.8504ZM705.127 91.5426L705.212 92.5389C707.813 92.3154 710.433 92.0867 713.072 91.8529L712.984 90.8568L712.896 89.8607C710.258 90.0943 707.64 90.3229 705.041 90.5462L705.127 91.5426ZM720.947 90.141L721.038 91.1369C723.604 90.903 726.188 90.6644 728.789 90.4211L728.695 89.4254L728.602 88.4298C726.003 88.6729 723.421 88.9114 720.857 89.1451L720.947 90.141ZM736.549 88.6817L736.644 89.6771C739.281 89.4244 741.934 89.167 744.606 88.905L744.508 87.9098L744.41 86.9146C741.74 87.1765 739.088 87.4337 736.453 87.6862L736.549 88.6817ZM752.256 87.1415L752.356 88.1366C754.953 87.8764 757.566 87.6119 760.195 87.3431L760.093 86.3483L759.992 85.3535C757.364 85.6221 754.752 85.8865 752.156 86.1465L752.256 87.1415ZM768.028 85.5293L768.131 86.5239C770.711 86.255 773.307 85.9821 775.917 85.7052L775.812 84.7108L775.706 83.7164C773.097 83.9932 770.503 84.2659 767.924 84.5347L768.028 85.5293ZM783.623 83.8752L783.73 84.8694C786.35 84.5868 788.984 84.3003 791.633 84.0098L791.524 83.0158L791.415 82.0217C788.767 82.3121 786.134 82.5985 783.516 82.8809L783.623 83.8752ZM799.369 82.1491L799.479 83.143C802.059 82.8559 804.652 82.5651 807.259 82.2707L807.147 81.277L807.035 80.2833C804.429 80.5776 801.836 80.8682 799.258 81.1553L799.369 82.1491ZM815.008 80.383L815.122 81.3765C817.751 81.0755 820.394 80.7708 823.051 80.4625L822.936 79.4692L822.821 78.4759C820.165 78.784 817.523 79.0886 814.895 79.3895L815.008 80.383ZM830.675 78.5656L830.792 79.5588C833.385 79.2542 835.991 78.9462 838.61 78.6348L838.492 77.6418L838.374 76.6488C835.756 76.9601 833.151 77.2679 830.559 77.5724L830.675 78.5656ZM846.386 76.6979L846.506 77.6907C847.828 77.5317 849.154 77.3719 850.482 77.2112L850.362 76.2184L850.242 75.2256C848.914 75.3863 847.589 75.5461 846.267 75.7051L846.386 76.6979ZM1019.18 30.4976L1019.39 31.4753C1020.7 31.1928 1022.03 30.9133 1023.36 30.6372L1023.16 29.6581L1022.95 28.6789C1021.62 28.9559 1020.29 29.2364 1018.97 29.5199L1019.18 30.4976ZM1031.16 28.0629L1031.34 29.0452C1033.98 28.5409 1036.65 28.054 1039.34 27.5883L1039.17 26.603L1039 25.6176C1036.3 26.0854 1033.62 26.5744 1030.97 27.0807L1031.16 28.0629ZM1047.21 25.2873L1047.36 26.2757C1050.03 25.8659 1052.71 25.4802 1055.41 25.1222L1055.28 24.1308L1055.15 23.1395C1052.43 23.4995 1049.73 23.8872 1047.06 24.2989L1047.21 25.2873ZM1063.37 23.1492L1063.48 24.1433C1066.16 23.8487 1068.86 23.5845 1071.56 23.3541L1071.48 22.3577L1071.39 21.3613C1068.67 21.5931 1065.96 21.8589 1063.26 22.1552L1063.37 23.1492ZM1079.61 21.7719L1079.66 22.7702C1082.36 22.612 1085.07 22.4904 1087.78 22.409L1087.75 21.4094L1087.72 20.4099C1084.99 20.4919 1082.26 20.6143 1079.55 20.7737L1079.61 21.7719ZM1095.9 21.2884L1095.89 22.2884C1098.6 22.2904 1101.3 22.3357 1104.01 22.4275L1104.04 21.4281L1104.08 20.4286C1101.35 20.336 1098.62 20.2904 1095.9 20.2884L1095.9 21.2884ZM1112.18 21.8485L1112.11 22.846C1114.81 23.0345 1117.5 23.2729 1120.19 23.5647L1120.3 22.5705L1120.4 21.5764C1117.69 21.2817 1114.97 21.0411 1112.25 20.8509L1112.18 21.8485ZM1128.38 23.6156L1128.23 24.6044C1130.9 25.007 1133.56 25.4666 1136.21 25.9864L1136.41 25.0051L1136.6 24.0238C1133.92 23.4981 1131.23 23.0336 1128.53 22.6267L1128.38 23.6156ZM1144.36 26.7597L1144.12 27.7308C1146.75 28.3747 1149.35 29.0822 1151.94 29.8567L1152.22 28.8988L1152.51 27.9408C1149.89 27.1564 1147.25 26.4401 1144.6 25.7885L1144.36 26.7597ZM1159.97 31.4397L1159.63 32.3812C1162.17 33.2887 1164.68 34.266 1167.17 35.3164L1167.56 34.395L1167.95 33.4736C1165.42 32.4085 1162.87 31.4179 1160.3 30.4982L1159.97 31.4397ZM1174.97 37.7738L1174.53 38.6713C1176.94 39.8554 1179.32 41.114 1181.68 42.4504L1182.17 41.5805L1182.67 40.7107C1180.27 39.3545 1177.86 38.0775 1175.41 36.8763L1174.97 37.7738ZM1189.14 45.8134L1188.59 46.6518C1190.84 48.1117 1193.05 49.649 1195.24 51.2668L1195.83 50.4632L1196.43 49.6596C1194.21 48.0174 1191.96 46.4569 1189.68 44.975L1189.14 45.8134ZM1202.22 55.5044L1201.58 56.2704C1203.62 57.9848 1205.64 59.7769 1207.61 61.6493L1208.3 60.9232L1208.99 60.1971C1206.98 58.2972 1204.94 56.4785 1202.87 54.7384L1202.22 55.5044ZM1214.05 66.6939L1213.32 67.3786C1214.24 68.3603 1215.15 69.3613 1216.06 70.3821L1216.81 69.7187L1217.55 69.0552C1216.64 68.0201 1215.71 67.0049 1214.77 66.0093L1214.05 66.6939ZM1216.81 69.7187L1216.06 70.3821C1216.96 71.3996 1217.82 72.3982 1218.65 73.3782L1219.41 72.7344L1220.18 72.0906C1219.34 71.0969 1218.47 70.0851 1217.55 69.0552L1216.81 69.7187ZM1224.23 78.8176L1223.42 79.4118C1225.07 81.6355 1226.49 83.7459 1227.71 85.7457L1228.56 85.2255L1229.41 84.7052C1228.16 82.6492 1226.71 80.4894 1225.03 78.2235L1224.23 78.8176ZM1232.19 92.1392L1231.27 92.5353C1232.41 95.184 1233.12 97.5699 1233.47 99.7044L1234.45 99.5445L1235.44 99.3847C1235.06 97.0585 1234.3 94.5133 1233.1 91.743L1232.19 92.1392ZM1234.02 107.237L1233.08 106.92C1232.29 109.268 1230.81 111.105 1228.82 112.471L1229.38 113.296L1229.95 114.121C1232.27 112.53 1234.04 110.351 1234.97 107.555L1234.02 107.237ZM1222.17 116.075L1221.99 115.09C1219.68 115.502 1217.14 115.6 1214.5 115.395L1214.42 116.392L1214.34 117.389C1217.13 117.605 1219.84 117.505 1222.34 117.06L1222.17 116.075ZM1206.76 115.033L1207.02 114.069C1204.61 113.405 1202.21 112.517 1199.9 111.417L1199.47 112.32L1199.04 113.222C1201.45 114.374 1203.97 115.303 1206.49 115.997L1206.76 115.033ZM1192.8 108.327L1193.4 107.524C1191.35 106.001 1189.49 104.28 1187.9 102.377L1187.13 103.018L1186.36 103.659C1188.06 105.695 1190.04 107.523 1192.21 109.13L1192.8 108.327ZM1183.06 96.4157L1183.99 96.0278C1183.51 94.8901 1183.12 93.7094 1182.83 92.487L1181.86 92.7169L1180.88 92.9468C1181.2 94.2803 1181.62 95.5666 1182.14 96.8037L1183.06 96.4157ZM1181.86 92.7169L1182.83 92.487C1182.53 91.2345 1182.39 89.965 1182.38 88.6814L1181.38 88.6831L1180.38 88.6848C1180.39 90.1197 1180.55 91.5424 1180.88 92.9468L1181.86 92.7169ZM1183.01 80.7643L1183.94 81.1379C1184.85 78.8776 1186.15 76.5875 1187.83 74.2893L1187.03 73.6986L1186.22 73.108C1184.46 75.5175 1183.06 77.9522 1182.08 80.3907L1183.01 80.7643ZM1192.37 67.5775L1193.07 68.2893C1194.87 66.5108 1196.89 64.7444 1199.1 63.0007L1198.48 62.2149L1197.87 61.429C1195.6 63.2138 1193.53 65.0293 1191.66 66.8656L1192.37 67.5775ZM1205.11 57.4555L1205.66 58.2908C1207.83 56.8666 1210.12 55.4664 1212.54 54.0964L1212.05 53.226L1211.56 52.3557C1209.1 53.7463 1206.77 55.1698 1204.56 56.6203L1205.11 57.4555ZM1219.25 49.4253L1219.69 50.322C1222.05 49.1564 1224.51 48.0196 1227.05 46.9161L1226.65 45.9988L1226.25 45.0815C1223.68 46.1975 1221.2 47.3479 1218.8 48.5286L1219.25 49.4253ZM1234.2 42.92L1234.56 43.8538C1237.03 42.9074 1239.56 41.9924 1242.17 41.1119L1241.85 40.1647L1241.53 39.2174C1238.9 40.1061 1236.34 41.0302 1233.84 41.9862L1234.2 42.92ZM1249.6 37.7012L1249.89 38.6596C1252.44 37.9001 1255.04 37.1738 1257.69 36.4834L1257.44 35.5156L1257.19 34.5479C1254.52 35.244 1251.89 35.9766 1249.32 36.7428L1249.6 37.7012ZM1265.35 33.5969L1265.57 34.5725C1268.18 33.9857 1270.83 33.4336 1273.51 32.9186L1273.33 31.9365L1273.14 30.9544C1270.43 31.4734 1267.76 32.0298 1265.14 32.6213L1265.35 33.5969ZM1281.35 30.5283L1281.5 31.5158C1284.15 31.0935 1286.83 30.7074 1289.53 30.3595L1289.41 29.3676L1289.28 28.3758C1286.55 28.7263 1283.85 29.1153 1281.19 29.5408L1281.35 30.5283ZM1297.5 28.4516L1297.6 29.4468C1300.27 29.185 1302.96 28.9608 1305.68 28.776L1305.61 27.7783L1305.55 26.7806C1302.81 26.9667 1300.09 27.1926 1297.4 27.4563L1297.5 28.4516ZM1313.75 27.347L1313.79 28.3463C1316.47 28.2439 1319.18 28.1806 1321.9 28.1579L1321.89 27.1579L1321.88 26.1579C1319.14 26.1808 1316.41 26.2446 1313.71 26.3478L1313.75 27.347ZM1330.04 27.2117L1330.01 28.2114C1332.7 28.2694 1335.41 28.3677 1338.12 28.5079L1338.17 27.5093L1338.22 26.5106C1335.49 26.3693 1332.77 26.2703 1330.06 26.2119L1330.04 27.2117ZM1346.29 28.052L1346.21 29.0486C1348.89 29.2688 1351.58 29.5306 1354.28 29.8357L1354.39 28.842L1354.5 27.8484C1351.78 27.541 1349.07 27.2772 1346.37 27.0554L1346.29 28.052ZM1362.46 29.8816L1362.32 30.8713C1363.66 31.0649 1365 31.2693 1366.34 31.4848L1366.5 30.4975L1366.66 29.5102C1365.31 29.293 1363.96 29.0869 1362.61 28.8919L1362.46 29.8816Z" fill="#B0B0C0" fill-opacity="0.3"/>
</svg>
