<svg width="1294" height="101" viewBox="0 0 1294 101" fill="none" xmlns="http://www.w3.org/2000/svg">
<path d="M199 76.2239L198.452 77.0603L199 76.2239ZM337.5 46.832L338.424 47.2148L337.5 46.832ZM1292.79 14.9783C1293.33 15.0928 1293.86 14.7476 1293.98 14.2073C1294.09 13.667 1293.75 13.1362 1293.21 13.0217L1293 14L1292.79 14.9783ZM3.09026 49.2438C3.25572 48.7168 2.96271 48.1556 2.4358 47.9901C1.90888 47.8246 1.3476 48.1176 1.18213 48.6445L2.13619 48.9442L3.09026 49.2438ZM3.89956 41.144C3.68757 41.654 3.92913 42.2393 4.43911 42.4512C4.94909 42.6632 5.53436 42.4217 5.74635 41.9117L4.82295 41.5278L3.89956 41.144ZM9.11134 34.8964C9.37824 34.4128 9.20264 33.8045 8.71913 33.5376C8.23562 33.2707 7.62729 33.4463 7.36039 33.9298L8.23587 34.4131L9.11134 34.8964ZM11.6871 27.1736C11.3577 27.617 11.4501 28.2434 11.8935 28.5727C12.3368 28.9021 12.9632 28.8097 13.2925 28.3664L12.4898 27.77L11.6871 27.1736ZM18.3603 22.5457C18.7556 22.16 18.7633 21.5269 18.3775 21.1316C17.9918 20.7364 17.3587 20.7287 16.9634 21.1144L17.6619 21.8301L18.3603 22.5457ZM23.1868 16.0172C22.7302 16.3279 22.6119 16.9499 22.9226 17.4065C23.2332 17.8632 23.8553 17.9815 24.3119 17.6708L23.7493 16.844L23.1868 16.0172ZM31.0578 13.921C31.5625 13.6967 31.7899 13.1057 31.5656 12.601C31.3413 12.0964 30.7503 11.869 30.2456 12.0933L30.6517 13.0072L31.0578 13.921ZM37.8557 9.45554C37.3209 9.59343 36.9992 10.1387 37.1371 10.6735C37.2749 11.2083 37.8203 11.5301 38.355 11.3922L38.1054 10.4239L37.8557 9.45554ZM45.9941 10.0131C46.5431 9.95296 46.9393 9.45913 46.8792 8.91013C46.819 8.36113 46.3252 7.96486 45.7762 8.02503L45.8851 9.01908L45.9941 10.0131ZM53.7819 7.63911C53.2297 7.63421 52.778 8.07792 52.7731 8.63019C52.7682 9.18245 53.2119 9.63413 53.7642 9.63904L53.7731 8.63907L53.7819 7.63911ZM61.5444 10.0946C62.0937 10.1523 62.5857 9.75378 62.6434 9.20452C62.7011 8.65526 62.3027 8.16321 61.7534 8.1055L61.6489 9.10003L61.5444 10.0946ZM69.6466 9.25768C69.1035 9.1574 68.582 9.51639 68.4817 10.0595C68.3814 10.6026 68.7404 11.1242 69.2835 11.2244L69.4651 10.2411L69.6466 9.25768ZM76.9427 12.9011C77.4783 13.0358 78.0217 12.7108 78.1564 12.1752C78.2911 11.6396 77.9661 11.0962 77.4304 10.9615L77.1866 11.9313L76.9427 12.9011ZM85.0937 13.1118C84.5659 12.949 84.0061 13.2449 83.8434 13.7726C83.6806 14.3004 83.9765 14.8602 84.5043 15.0229L84.799 14.0673L85.0937 13.1118ZM91.963 17.5104C92.483 17.6964 93.0553 17.4255 93.2413 16.9055C93.4272 16.3854 93.1564 15.8131 92.6363 15.6272L92.2997 16.5688L91.963 17.5104ZM100.064 18.445C99.5513 18.2398 98.9693 18.489 98.764 19.0017C98.5587 19.5144 98.8079 20.0965 99.3206 20.3018L99.6923 19.3734L100.064 18.445ZM106.582 23.3484C107.088 23.57 107.678 23.3396 107.9 22.8337C108.121 22.3278 107.891 21.7381 107.385 21.5165L106.984 22.4324L106.582 23.3484ZM114.607 24.8028C114.108 24.5673 113.512 24.7814 113.276 25.281C113.041 25.7805 113.255 26.3764 113.754 26.6119L114.181 25.7074L114.607 24.8028ZM120.844 30.061C121.338 30.3085 121.938 30.1088 122.186 29.615C122.433 29.1213 122.234 28.5204 121.74 28.273L121.292 29.167L120.844 30.061ZM128.79 31.9013C128.302 31.6435 127.697 31.8306 127.439 32.319C127.181 32.8075 127.368 33.4124 127.857 33.6701L128.324 32.7857L128.79 31.9013ZM134.8 37.4177C135.284 37.6844 135.892 37.5085 136.159 37.0249C136.425 36.5413 136.249 35.933 135.766 35.6663L135.283 36.542L134.8 37.4177ZM142.673 39.5498C142.194 39.2753 141.583 39.4413 141.308 39.9206C141.034 40.3999 141.2 41.0109 141.679 41.2853L142.176 40.4176L142.673 39.5498ZM148.499 45.2571C148.975 45.5384 149.588 45.381 149.869 44.9057C150.151 44.4303 149.993 43.817 149.518 43.5358L149.009 44.3965L148.499 45.2571ZM156.307 47.6105C155.835 47.3234 155.22 47.4732 154.933 47.9451C154.646 48.4169 154.796 49.0321 155.268 49.3191L155.787 48.4648L156.307 47.6105ZM161.99 53.4587C162.458 53.7508 163.075 53.6075 163.367 53.1387C163.659 52.67 163.516 52.0532 163.047 51.7612L162.518 52.61L161.99 53.4587ZM169.745 55.9765C169.279 55.6803 168.661 55.8181 168.365 56.2843C168.069 56.7504 168.206 57.3684 168.673 57.6646L169.209 56.8205L169.745 55.9765ZM175.324 61.9257C175.788 62.2252 176.407 62.0919 176.707 61.6278C177.006 61.1638 176.873 60.5449 176.409 60.2454L175.867 61.0855L175.324 61.9257ZM183.047 64.5563C182.585 64.2544 181.965 64.3845 181.663 64.847C181.361 65.3094 181.491 65.9291 181.954 66.231L182.501 65.3936L183.047 64.5563ZM188.571 70.5673C189.033 70.8706 189.653 70.7423 189.956 70.2808C190.259 69.8192 190.131 69.1992 189.67 68.8959L189.12 69.7316L188.571 70.5673ZM196.285 73.2456C195.823 72.9422 195.203 73.0705 194.9 73.532C194.596 73.9936 194.725 74.6136 195.186 74.9169L195.735 74.0812L196.285 73.2456ZM201.96 79.2689C202.432 79.5548 203.047 79.4035 203.333 78.9309C203.619 78.4584 203.468 77.8436 202.995 77.5577L202.477 78.4133L201.96 79.2689ZM210.131 81.5469C209.641 81.2937 209.037 81.4862 208.784 81.977C208.531 82.4678 208.723 83.071 209.214 83.3243L209.673 82.4356L210.131 81.5469ZM216.708 86.8958C217.213 87.118 217.803 86.8883 218.026 86.3826C218.248 85.877 218.018 85.287 217.512 85.0648L217.11 85.9803L216.708 86.8958ZM225.09 88.134C224.572 87.9413 223.996 88.2046 223.803 88.7222C223.611 89.2398 223.874 89.8156 224.392 90.0083L224.741 89.0711L225.09 88.134ZM232.237 92.6894C232.764 92.8541 233.325 92.5602 233.489 92.0331C233.654 91.5059 233.36 90.9451 232.833 90.7804L232.535 91.7349L232.237 92.6894ZM240.71 93.0236C240.175 92.8855 239.63 93.2071 239.492 93.7419C239.354 94.2767 239.675 94.8221 240.21 94.9601L240.46 93.9918L240.71 93.0236ZM248.283 96.8396C248.824 96.9522 249.353 96.6051 249.466 96.0644C249.579 95.5237 249.232 94.9942 248.691 94.8816L248.487 95.8606L248.283 96.8396ZM256.752 96.3704C256.207 96.2822 255.694 96.6527 255.605 97.1979C255.517 97.7431 255.888 98.2565 256.433 98.3447L256.593 97.3575L256.752 96.3704ZM264.634 99.4894C265.183 99.5541 265.68 99.1618 265.745 98.6133C265.809 98.0648 265.417 97.5678 264.868 97.5032L264.751 98.4963L264.634 99.4894ZM273.026 98.2925C272.475 98.2507 271.995 98.6632 271.953 99.2139C271.911 99.7646 272.323 100.245 272.874 100.287L272.95 99.2896L273.026 98.2925ZM281.14 100.747C281.692 100.766 282.155 100.335 282.175 99.783C282.194 99.2311 281.763 98.7677 281.211 98.7481L281.175 99.7475L281.14 100.747ZM289.409 98.877C288.857 98.8792 288.411 99.3287 288.413 99.881C288.415 100.433 288.865 100.879 289.417 100.877L289.413 99.877L289.409 98.877ZM297.693 100.683C298.245 100.659 298.673 100.192 298.65 99.6405C298.626 99.0887 298.159 98.6607 297.608 98.6844L297.65 99.6835L297.693 100.683ZM305.793 98.1734C305.242 98.2185 304.832 98.7013 304.877 99.2517C304.923 99.8022 305.405 100.212 305.956 100.167L305.874 99.1701L305.793 98.1734ZM314.192 99.331C314.74 99.2645 315.131 98.7662 315.064 98.218C314.998 97.6697 314.5 97.2791 313.951 97.3455L314.072 98.3382L314.192 99.331ZM322.071 96.2002C321.526 96.2881 321.155 96.8013 321.243 97.3466C321.331 97.8918 321.844 98.2626 322.389 98.1748L322.23 97.1875L322.071 96.2002ZM330.534 96.6958C331.076 96.5863 331.426 96.0588 331.316 95.5174C331.207 94.9761 330.679 94.6261 330.138 94.7356L330.336 95.7157L330.534 96.6958ZM338.138 92.9477C337.601 93.0792 337.273 93.6206 337.404 94.157C337.536 94.6934 338.077 95.0217 338.614 94.8903L338.376 93.919L338.138 92.9477ZM346.614 92.7515C347.145 92.5976 347.45 92.0429 347.296 91.5125C347.142 90.9821 346.588 90.6768 346.057 90.8307L346.336 91.7911L346.614 92.7515ZM353.878 88.3775C353.355 88.5543 353.074 89.1218 353.251 89.645C353.428 90.1682 353.995 90.449 354.519 90.2723L354.198 89.3249L353.878 88.3775ZM362.307 87.4439C362.821 87.2435 363.076 86.6639 362.876 86.1493C362.675 85.6346 362.096 85.3798 361.581 85.5801L361.944 86.512L362.307 87.4439ZM369.143 82.4292C368.638 82.6538 368.411 83.2449 368.636 83.7494C368.861 84.254 369.452 84.4809 369.956 84.2564L369.55 83.3428L369.143 82.4292ZM377.443 80.6987C377.935 80.4491 378.132 79.8474 377.883 79.3547C377.633 78.862 377.032 78.665 376.539 78.9146L376.991 79.8066L377.443 80.6987ZM383.74 75.0257C383.261 75.301 383.097 75.9123 383.372 76.3911C383.647 76.8698 384.259 77.0347 384.737 76.7594L384.239 75.8925L383.74 75.0257ZM391.807 72.4271C392.27 72.1252 392.4 71.5056 392.098 71.0431C391.796 70.5806 391.177 70.4503 390.714 70.7521L391.261 71.5896L391.807 72.4271ZM397.426 66.0833C396.983 66.4122 396.89 67.0385 397.218 67.4821C397.547 67.9258 398.174 68.0188 398.617 67.6898L398.022 66.8866L397.426 66.0833ZM405.129 62.5359C405.551 62.1794 405.604 61.5484 405.248 61.1266C404.891 60.7048 404.26 60.6518 403.838 61.0083L404.484 61.7721L405.129 62.5359ZM409.899 55.528C409.502 55.9122 409.492 56.5452 409.876 56.942C410.26 57.3387 410.893 57.3489 411.29 56.9647L410.594 56.2463L409.899 55.528ZM416.95 51.0555C417.314 50.6401 417.272 50.0083 416.857 49.6444C416.441 49.2805 415.809 49.3224 415.446 49.7379L416.198 50.3967L416.95 51.0555ZM420.167 43.7198C419.853 44.174 419.966 44.7969 420.42 45.1112C420.874 45.4255 421.497 45.3122 421.812 44.8581L420.989 44.289L420.167 43.7198ZM425.853 37.9684C426.091 37.4703 425.881 36.8731 425.383 36.6346C424.885 36.3961 424.287 36.6066 424.049 37.1047L424.951 37.5366L425.853 37.9684ZM426.566 30.0052C426.445 30.544 426.784 31.0789 427.323 31.1999C427.862 31.3209 428.397 30.9822 428.518 30.4433L427.542 30.2242L426.566 30.0052ZM429.079 22.3643C429.025 21.8146 428.536 21.4124 427.987 21.4659C427.437 21.5195 427.035 22.0085 427.088 22.5582L428.084 22.4612L429.079 22.3643ZM425 15.4751C425.255 15.9648 425.859 16.1546 426.349 15.8992C426.838 15.6437 427.028 15.0397 426.773 14.55L425.886 15.0126L425 15.4751ZM421.756 8.16159C421.345 7.79295 420.713 7.82749 420.344 8.23874C419.976 8.64998 420.01 9.28221 420.421 9.65084L421.089 8.90622L421.756 8.16159ZM414.151 5.52354C414.649 5.76204 415.247 5.55156 415.485 5.05343C415.724 4.5553 415.513 3.95814 415.015 3.71964L414.583 4.62159L414.151 5.52354ZM407.434 1.10617C406.896 0.982565 406.36 1.31873 406.236 1.857C406.112 2.39528 406.449 2.93184 406.987 3.05544L407.211 2.0808L407.434 1.10617ZM399.436 2.04697C399.987 2.07181 400.455 1.64469 400.479 1.09297C400.504 0.54124 400.077 0.0738383 399.525 0.0489946L399.48 1.04798L399.436 2.04697ZM391.567 0.327737C391.018 0.389505 390.624 0.884483 390.685 1.4333C390.747 1.98212 391.242 2.37696 391.791 2.31519L391.679 1.32146L391.567 0.327737ZM384.239 3.72498C384.774 3.58558 385.094 3.03936 384.955 2.50496C384.815 1.97055 384.269 1.65033 383.734 1.78973L383.987 2.75735L384.239 3.72498ZM376.221 4.29948C375.71 4.50863 375.465 5.09255 375.675 5.6037C375.884 6.11485 376.468 6.35967 376.979 6.15052L376.6 5.225L376.221 4.29948ZM370.055 9.51632C370.535 9.24406 370.704 8.63381 370.432 8.1533C370.16 7.67279 369.549 7.50397 369.069 7.77623L369.562 8.64627L370.055 9.51632ZM362.438 12.085C361.994 12.413 361.9 13.0391 362.228 13.4834C362.556 13.9277 363.182 14.0219 363.626 13.6939L363.032 12.8894L362.438 12.085ZM357.707 18.6193C358.111 18.2425 358.132 17.6097 357.756 17.2059C357.379 16.8022 356.746 16.7803 356.342 17.1571L357.025 17.8882L357.707 18.6193ZM350.849 22.8767C350.488 23.2949 350.535 23.9264 350.953 24.2871C351.371 24.6478 352.003 24.6012 352.363 24.183L351.606 23.5298L350.849 22.8767ZM347.645 30.2517C347.962 29.7994 347.853 29.1759 347.4 28.8589C346.948 28.542 346.324 28.6517 346.007 29.104L346.826 29.6778L347.645 30.2517ZM341.788 35.7726C341.514 36.2523 341.682 36.8631 342.161 37.1367C342.641 37.4103 343.252 37.2432 343.525 36.7634L342.657 36.268L341.788 35.7726ZM339.995 43.6277C340.227 43.1264 340.008 42.5321 339.507 42.3003C339.006 42.0685 338.411 42.287 338.179 42.7883L339.087 43.208L339.995 43.6277ZM335.155 50.2333C334.98 50.757 335.262 51.3238 335.785 51.4993C336.309 51.6748 336.876 51.3926 337.051 50.869L336.103 50.5511L335.155 50.2333ZM335.261 58.2623C335.338 57.7154 334.956 57.2098 334.409 57.1331C333.862 57.0564 333.357 57.4376 333.28 57.9845L334.27 58.1234L335.261 58.2623ZM333.181 66.0532C333.252 66.6008 333.754 66.9871 334.302 66.9159C334.849 66.8447 335.236 66.343 335.164 65.7953L334.173 65.9242L333.181 66.0532ZM337.324 72.9242C337.077 72.4303 336.476 72.2304 335.982 72.4776C335.488 72.7247 335.288 73.3255 335.536 73.8194L336.43 73.3718L337.324 72.9242ZM340.26 80.3764C340.646 80.7717 341.279 80.7794 341.674 80.3937C342.07 80.0079 342.077 79.3748 341.692 78.9796L340.976 79.678L340.26 80.3764ZM347.634 83.7565C347.17 83.4578 346.551 83.5921 346.252 84.0566C345.953 84.5211 346.088 85.1398 346.552 85.4386L347.093 84.5976L347.634 83.7565ZM353.529 89.1734C354.033 89.3991 354.625 89.1734 354.85 88.6694C355.076 88.1653 354.85 87.5737 354.346 87.348L353.938 88.2607L353.529 89.1734ZM361.557 90.1074C361.032 89.9356 360.468 90.222 360.296 90.7469C360.124 91.2718 360.411 91.8365 360.936 92.0082L361.246 91.0578L361.557 90.1074ZM368.549 94.1686C369.086 94.3002 369.627 93.9721 369.759 93.4357C369.89 92.8993 369.562 92.3578 369.026 92.2262L368.788 93.1974L368.549 94.1686ZM376.625 93.8535C376.082 93.7525 375.56 94.1108 375.459 94.6538C375.358 95.1968 375.716 95.7188 376.259 95.8198L376.442 94.8366L376.625 93.8535ZM384.017 97.079C384.564 97.1559 385.069 96.7749 385.146 96.228C385.223 95.6811 384.842 95.1754 384.295 95.0985L384.156 96.0888L384.017 97.079ZM392.016 96.04C391.467 95.9826 390.975 96.3813 390.918 96.9306C390.86 97.4799 391.259 97.9717 391.808 98.0292L391.912 97.0346L392.016 96.04ZM399.637 98.729C400.188 98.7704 400.668 98.3575 400.709 97.8068C400.75 97.256 400.337 96.776 399.787 96.7346L399.712 97.7318L399.637 98.729ZM407.613 97.2233C407.062 97.1954 406.592 97.62 406.564 98.1716C406.536 98.7232 406.961 99.1929 407.513 99.2207L407.563 98.222L407.613 97.2233ZM415.364 99.5326C415.916 99.5489 416.377 99.1146 416.393 98.5626C416.41 98.0105 415.975 97.5498 415.423 97.5335L415.394 98.533L415.364 99.5326ZM423.18 97.6915C422.628 97.6851 422.175 98.1276 422.168 98.6798C422.162 99.2321 422.605 99.685 423.157 99.6914L423.168 98.6915L423.18 97.6915ZM431.024 99.7195C431.576 99.7172 432.022 99.2676 432.02 98.7153C432.017 98.1631 431.568 97.7172 431.016 97.7195L431.02 98.7195L431.024 99.7195ZM438.858 97.6312C438.305 97.6412 437.866 98.097 437.876 98.6492C437.886 99.2013 438.341 99.6409 438.894 99.6309L438.876 98.6311L438.858 97.6312ZM446.678 99.4415C447.23 99.4247 447.664 98.9636 447.647 98.4116C447.63 97.8596 447.169 97.4256 446.617 97.4424L446.647 98.4419L446.678 99.4415ZM454.493 97.1585C453.941 97.1814 453.512 97.6473 453.535 98.1991C453.558 98.751 454.024 99.1797 454.576 99.1568L454.534 98.1576L454.493 97.1585ZM462.351 98.7945C462.903 98.7661 463.327 98.2959 463.298 97.7444C463.27 97.1928 462.8 96.7687 462.248 96.7971L462.3 97.7958L462.351 98.7945ZM470.075 96.3578C469.524 96.3912 469.104 96.8652 469.138 97.4165C469.171 97.9678 469.645 98.3876 470.196 98.3542L470.136 97.356L470.075 96.3578ZM478.012 97.8475C478.563 97.8095 478.979 97.3321 478.941 96.7811C478.903 96.2301 478.425 95.8142 477.874 95.8522L477.943 96.8499L478.012 97.8475ZM485.666 95.285C485.116 95.3272 484.703 95.8078 484.746 96.3584C484.788 96.9091 485.268 97.3214 485.819 97.2792L485.743 96.2821L485.666 95.285ZM493.645 96.6522C494.196 96.6062 494.605 96.1227 494.559 95.5723C494.513 95.022 494.029 94.6131 493.479 94.6591L493.562 95.6556L493.645 96.6522ZM501.253 93.9837C500.703 94.0333 500.297 94.5193 500.347 95.0694C500.396 95.6194 500.882 96.0252 501.432 95.9756L501.343 94.9797L501.253 93.9837ZM509.248 95.2476C509.798 95.1948 510.201 94.7063 510.148 94.1565C510.095 93.6068 509.607 93.2039 509.057 93.2568L509.153 94.2522L509.248 95.2476ZM516.832 92.4873C516.282 92.5432 515.882 93.0339 515.938 93.5834C515.994 94.1328 516.485 94.5329 517.034 94.477L516.933 93.4821L516.832 92.4873ZM524.824 93.6637C525.373 93.605 525.771 93.1122 525.712 92.563C525.653 92.0139 525.16 91.6163 524.611 91.6751L524.718 92.6694L524.824 93.6637ZM532.405 90.8217C531.856 90.8831 531.461 91.3779 531.523 91.9267C531.584 92.4756 532.079 92.8707 532.628 92.8093L532.516 91.8155L532.405 90.8217ZM540.38 91.9237C540.928 91.8597 541.321 91.3632 541.257 90.8146C541.193 90.2661 540.697 89.8732 540.148 89.9371L540.264 90.9304L540.38 91.9237ZM547.979 89.0073C547.431 89.0736 547.04 89.5718 547.106 90.1201C547.172 90.6684 547.671 91.0591 548.219 90.9929L548.099 90.0001L547.979 89.0073ZM555.924 90.0455C556.472 89.977 556.861 89.4773 556.793 88.9292C556.724 88.3812 556.224 87.9925 555.676 88.0609L555.8 89.0532L555.924 90.0455ZM563.51 87.0667C562.962 87.1372 562.575 87.6385 562.646 88.1863C562.717 88.734 563.218 89.1208 563.766 89.0503L563.638 88.0585L563.51 87.0667ZM571.469 88.0435C572.016 87.971 572.402 87.4684 572.329 86.9209C572.256 86.3734 571.754 85.9883 571.206 86.0609L571.338 87.0522L571.469 88.0435ZM578.977 85.0177C578.43 85.0921 578.047 85.596 578.121 86.1433C578.196 86.6905 578.7 87.0739 579.247 86.9995L579.112 86.0086L578.977 85.0177ZM587.025 85.9291C587.572 85.8529 587.953 85.3477 587.877 84.8007C587.801 84.2537 587.296 83.872 586.749 83.9482L586.887 84.9386L587.025 85.9291ZM594.454 82.8631C593.908 82.9409 593.527 83.4473 593.605 83.994C593.683 84.5408 594.189 84.921 594.736 84.8431L594.595 83.8531L594.454 82.8631ZM602.563 83.7169C603.11 83.6375 603.488 83.13 603.409 82.5835C603.33 82.0369 602.822 81.6583 602.276 81.7377L602.419 82.7273L602.563 83.7169ZM609.952 80.6108C609.406 80.6918 609.029 81.2003 609.11 81.7466C609.191 82.2929 609.699 82.6702 610.246 82.5892L610.099 81.6L609.952 80.6108ZM617.996 81.4301C618.542 81.3477 618.918 80.8382 618.836 80.2921C618.753 79.746 618.244 79.3701 617.698 79.4525L617.847 80.4413L617.996 81.4301ZM625.483 78.2674C624.937 78.3512 624.563 78.8617 624.646 79.4076C624.73 79.9535 625.241 80.3281 625.787 80.2443L625.635 79.2558L625.483 78.2674ZM633.46 79.0568C634.006 78.9717 634.379 78.4603 634.294 77.9146C634.209 77.3689 633.698 76.9956 633.152 77.0807L633.306 78.0687L633.46 79.0568ZM640.921 75.8597C640.375 75.9461 640.003 76.4583 640.089 77.0038C640.176 77.5493 640.688 77.9215 641.234 77.8351L641.077 76.8474L640.921 75.8597ZM777.044 30.7622C777.587 30.6624 777.947 30.1411 777.847 29.5979C777.747 29.0547 777.226 28.6953 776.682 28.7951L776.863 29.7786L777.044 30.7622ZM784.661 27.3743C784.117 27.4682 783.752 27.9856 783.846 28.5298C783.94 29.0741 784.457 29.4391 785.002 29.3451L784.831 28.3597L784.661 27.3743ZM792.85 28.0287C793.395 27.9399 793.765 27.426 793.676 26.8809C793.588 26.3358 793.074 25.9659 792.529 26.0547L792.689 27.0417L792.85 28.0287ZM800.465 24.7971C799.919 24.8813 799.545 25.3919 799.629 25.9378C799.713 26.4836 800.224 26.8579 800.769 26.7738L800.617 25.7855L800.465 24.7971ZM808.752 25.5768C809.298 25.4971 809.677 24.9894 809.597 24.4429C809.517 23.8965 809.01 23.5181 808.463 23.5978L808.608 24.5873L808.752 25.5768ZM816.361 22.4756C815.814 22.5513 815.432 23.0561 815.508 23.6032C815.583 24.1503 816.088 24.5324 816.635 24.4567L816.498 23.4661L816.361 22.4756ZM824.616 23.3813C825.163 23.3095 825.549 22.8073 825.477 22.2597C825.405 21.7121 824.903 21.3265 824.356 21.3983L824.486 22.3898L824.616 23.3813ZM832.306 20.3824C831.758 20.4506 831.369 20.9502 831.437 21.4982C831.505 22.0463 832.005 22.4353 832.553 22.3671L832.429 21.3748L832.306 20.3824ZM840.516 21.4023C841.065 21.3376 841.457 20.8406 841.392 20.2921C841.327 19.7436 840.83 19.3514 840.282 19.4161L840.399 20.4092L840.516 21.4023ZM848.277 18.4985C847.728 18.5598 847.333 19.0544 847.394 19.6033C847.455 20.1522 847.95 20.5475 848.499 20.4862L848.388 19.4924L848.277 18.4985ZM856.454 19.6224C857.003 19.5644 857.402 19.0722 857.344 18.523C857.286 17.9737 856.793 17.5755 856.244 17.6335L856.349 18.6279L856.454 19.6224ZM864.265 16.811C863.715 16.8657 863.314 17.3555 863.369 17.9051C863.424 18.4547 863.914 18.8558 864.463 18.8011L864.364 17.806L864.265 16.811ZM872.418 18.0324C872.968 17.9809 873.372 17.4933 873.32 16.9434C873.269 16.3936 872.781 15.9896 872.231 16.0411L872.325 17.0368L872.418 18.0324ZM880.264 15.3117C879.714 15.36 879.308 15.8452 879.356 16.3954C879.404 16.9456 879.889 17.3523 880.44 17.304L880.352 16.3078L880.264 15.3117ZM888.401 16.627C888.952 16.5817 889.361 16.0989 889.316 15.5484C889.271 14.998 888.788 14.5885 888.237 14.6337L888.319 15.6303L888.401 16.627ZM896.267 13.997C895.716 14.0391 895.304 14.5196 895.346 15.0703C895.388 15.621 895.869 16.0333 896.419 15.9912L896.343 14.9941L896.267 13.997ZM904.4 15.4043C904.951 15.3653 905.366 14.8872 905.327 14.3363C905.288 13.7853 904.81 13.3703 904.259 13.4092L904.329 14.4068L904.4 15.4043ZM912.287 12.8651C911.736 12.9008 911.318 13.3766 911.354 13.9277C911.389 14.4788 911.865 14.8966 912.416 14.8609L912.352 13.863L912.287 12.8651ZM920.411 14.3654C920.962 14.3329 921.383 13.8595 921.35 13.3082C921.318 12.7569 920.844 12.3363 920.293 12.3689L920.352 13.3672L920.411 14.3654ZM928.321 11.9185C927.769 11.9478 927.346 12.4187 927.375 12.9702C927.405 13.5217 927.875 13.945 928.427 13.9157L928.374 12.9171L928.321 11.9185ZM936.432 13.5144C936.984 13.4884 937.41 13.0201 937.384 12.4685C937.358 11.9168 936.89 11.4906 936.338 11.5166L936.385 12.5155L936.432 13.5144ZM944.367 11.163C943.815 11.1856 943.386 11.6512 943.408 12.2031C943.431 12.7549 943.897 13.1839 944.448 13.1613L944.407 12.1621L944.367 11.163ZM952.462 12.8581C953.014 12.839 953.446 12.376 953.427 11.824C953.408 11.2721 952.945 10.8402 952.393 10.8593L952.428 11.8587L952.462 12.8581ZM960.422 10.6067C959.87 10.6223 959.435 11.0825 959.45 11.6345C959.466 12.1866 959.926 12.6215 960.478 12.6059L960.45 11.6063L960.422 10.6067ZM968.498 12.4063C969.05 12.3944 969.488 11.9372 969.477 11.385C969.465 10.8328 969.007 10.3949 968.455 10.4068L968.477 11.4065L968.498 12.4063ZM976.485 10.2614C975.932 10.2694 975.491 10.7237 975.499 11.2759C975.507 11.8281 975.962 12.2692 976.514 12.2611L976.499 11.2612L976.485 10.2614ZM984.537 12.1723C985.09 12.1681 985.534 11.7171 985.53 11.1648C985.526 10.6125 985.075 10.1682 984.523 10.1723L984.53 11.1723L984.537 12.1723ZM992.553 10.1421C992.001 10.1421 991.553 10.5898 991.553 11.1421C991.553 11.6944 992.001 12.1421 992.553 12.1421L992.553 11.1421L992.553 10.1421ZM1000.58 12.1731C1001.13 12.1774 1001.58 11.7332 1001.58 11.181C1001.59 10.6287 1001.14 10.1775 1000.59 10.1732L1000.58 11.1732L1000.58 12.1731ZM1008.62 10.2686C1008.07 10.2597 1007.62 10.7002 1007.61 11.2524C1007.6 11.8046 1008.04 12.2595 1008.59 12.2683L1008.61 11.2684L1008.62 10.2686ZM1016.61 12.4309C1017.16 12.4445 1017.62 12.008 1017.63 11.4559C1017.65 10.9038 1017.21 10.4451 1016.66 10.4315L1016.63 11.4312L1016.61 12.4309ZM1024.7 10.666C1024.14 10.6474 1023.68 11.0797 1023.66 11.6317C1023.64 12.1837 1024.08 12.6462 1024.63 12.6649L1024.66 11.6655L1024.7 10.666ZM1032.63 12.9738C1033.18 12.9978 1033.65 12.5699 1033.67 12.0182C1033.7 11.4664 1033.27 10.9996 1032.72 10.9756L1032.67 11.9747L1032.63 12.9738ZM1040.76 11.367C1040.21 11.3372 1039.74 11.7602 1039.71 12.3117C1039.68 12.8632 1040.1 13.3343 1040.65 13.3641L1040.71 12.3655L1040.76 11.367ZM1048.62 13.8376C1049.18 13.8734 1049.65 13.4557 1049.69 12.9045C1049.72 12.3534 1049.31 11.8776 1048.75 11.8418L1048.69 12.8397L1048.62 13.8376ZM1056.81 12.4133C1056.26 12.3708 1055.78 12.7828 1055.73 13.3335C1055.69 13.8841 1056.1 14.3649 1056.65 14.4074L1056.73 13.4103L1056.81 12.4133ZM1064.59 15.0702C1065.14 15.1197 1065.63 14.7139 1065.68 14.1639C1065.73 13.6138 1065.32 13.1278 1064.77 13.0782L1064.68 14.0742L1064.59 15.0702ZM1072.82 13.8599C1072.27 13.8026 1071.78 14.2014 1071.72 14.7507C1071.67 15.3 1072.06 15.7918 1072.61 15.8491L1072.72 14.8545L1072.82 13.8599ZM1080.56 16.7399C1081.11 16.8057 1081.61 16.4146 1081.67 15.8662C1081.74 15.3179 1081.35 14.82 1080.8 14.7541L1080.68 15.747L1080.56 16.7399ZM1088.77 15.7797C1088.22 15.7045 1087.72 16.087 1087.65 16.6342C1087.57 17.1813 1087.95 17.6858 1088.5 17.7611L1088.64 16.7704L1088.77 15.7797ZM1096.45 18.9302C1096.99 19.0159 1097.51 18.643 1097.59 18.0975C1097.68 17.5519 1097.3 17.0401 1096.76 16.9544L1096.6 17.9423L1096.45 18.9302ZM1104.64 18.2772C1104.1 18.1799 1103.58 18.5417 1103.48 19.0854C1103.39 19.629 1103.75 20.1486 1104.29 20.2459L1104.47 19.2616L1104.64 18.2772ZM1112.19 21.7579C1112.73 21.8685 1113.26 21.5196 1113.37 20.9785C1113.48 20.4374 1113.13 19.9091 1112.59 19.7984L1112.39 20.7782L1112.19 21.7579ZM1120.47 21.5233C1119.94 21.3975 1119.4 21.7314 1119.27 22.2692C1119.15 22.807 1119.48 23.3449 1120.02 23.4707L1120.25 22.497L1120.47 21.5233ZM1127.73 25.4034C1128.26 25.5466 1128.81 25.2304 1128.95 24.697C1129.1 24.1636 1128.78 23.6151 1128.25 23.4718L1127.99 24.4376L1127.73 25.4034ZM1136 25.7123C1135.47 25.5484 1134.91 25.8431 1134.75 26.3705C1134.59 26.8979 1134.88 27.4583 1135.41 27.6222L1135.71 26.6672L1136 25.7123ZM1143.01 30.1748C1143.53 30.3633 1144.1 30.0954 1144.29 29.5763C1144.48 29.0572 1144.21 28.4835 1143.69 28.2949L1143.35 29.2348L1143.01 30.1748ZM1151.21 31.2684C1150.71 31.05 1150.12 31.2842 1149.9 31.7915C1149.68 32.2988 1149.92 32.887 1150.42 33.1054L1150.82 32.1869L1151.21 31.2684ZM1157.6 36.4997C1158.09 36.7547 1158.7 36.5642 1158.95 36.0743C1159.21 35.5844 1159.02 34.9806 1158.53 34.7256L1158.06 35.6127L1157.6 36.4997ZM1165.54 38.793C1165.08 38.4924 1164.46 38.6244 1164.16 39.0878C1163.86 39.5511 1163.99 40.1704 1164.45 40.4709L1165 39.6319L1165.54 38.793ZM1170.8 45.1576C1171.22 45.5146 1171.85 45.4625 1172.21 45.0411C1172.57 44.6198 1172.51 43.9888 1172.09 43.6317L1171.45 44.3947L1170.8 45.1576ZM1177.88 49.4154C1177.53 48.9916 1176.9 48.9351 1176.48 49.2893C1176.05 49.6434 1176 50.274 1176.35 50.6978L1177.12 50.0566L1177.88 49.4154ZM1180.89 57.1845C1181.19 57.6512 1181.8 57.79 1182.27 57.4946C1182.74 57.1992 1182.88 56.5815 1182.58 56.1148L1181.74 56.6497L1180.89 57.1845ZM1186.66 63.0412C1186.4 62.5559 1185.79 62.3762 1185.31 62.6398C1184.82 62.9034 1184.64 63.5105 1184.91 63.9958L1185.79 63.5185L1186.66 63.0412ZM1188.41 71.1853C1188.62 71.6935 1189.21 71.9302 1189.72 71.714C1190.23 71.4978 1190.46 70.9105 1190.25 70.4023L1189.33 70.7938L1188.41 71.1853ZM1192.93 78.1183C1192.79 77.584 1192.25 77.2641 1191.71 77.4039C1191.18 77.5436 1190.86 78.09 1191 78.6244L1191.96 78.3713L1192.93 78.1183ZM1192.08 86.2744C1192.08 86.8267 1192.53 87.2756 1193.08 87.2771C1193.63 87.2786 1194.08 86.8321 1194.08 86.2798L1193.08 86.2771L1192.08 86.2744ZM1192.13 94.5065C1192.4 94.0259 1192.24 93.4157 1191.76 93.1436C1191.27 92.8714 1190.66 93.0404 1190.39 93.521L1191.26 94.0137L1192.13 94.5065ZM1184.89 98.1428C1184.37 98.3355 1184.11 98.9113 1184.3 99.4289C1184.5 99.9465 1185.07 100.21 1185.59 100.017L1185.24 99.08L1184.89 98.1428ZM1177.19 100.851C1177.74 100.917 1178.24 100.526 1178.31 99.9778C1178.37 99.4294 1177.98 98.9315 1177.43 98.8656L1177.31 99.8585L1177.19 100.851ZM1170.05 96.702C1169.54 96.4691 1168.95 96.6863 1168.72 97.1871C1168.48 97.6879 1168.7 98.2827 1169.2 98.5155L1169.62 97.6087L1170.05 96.702ZM1162.23 94.0381C1162.65 94.3957 1163.28 94.3444 1163.64 93.9235C1164 93.5026 1163.95 92.8715 1163.53 92.5139L1162.88 93.276L1162.23 94.0381ZM1158.34 86.7522C1158.03 86.2953 1157.41 86.1765 1156.95 86.4868C1156.5 86.7971 1156.38 87.419 1156.69 87.8759L1157.52 87.314L1158.34 86.7522ZM1153.03 80.4401C1153.2 80.965 1153.77 81.2511 1154.29 81.0792C1154.82 80.9074 1155.1 80.3426 1154.93 79.8177L1153.98 80.1289L1153.03 80.4401ZM1153.64 72.3604C1153.64 71.8081 1153.19 71.3644 1152.63 71.3692C1152.08 71.3741 1151.64 71.8257 1151.64 72.378L1152.64 72.3692L1153.64 72.3604ZM1152.78 64.449C1152.63 64.9796 1152.93 65.5339 1153.46 65.6871C1153.99 65.8403 1154.55 65.5343 1154.7 65.0037L1153.74 64.7263L1152.78 64.449ZM1157.59 58.0558C1157.86 57.5702 1157.68 56.9633 1157.19 56.7001C1156.71 56.437 1156.1 56.6173 1155.84 57.1029L1156.72 57.5793L1157.59 58.0558ZM1160.16 50.4892C1159.83 50.9272 1159.91 51.555 1160.35 51.8914C1160.79 52.2277 1161.41 52.1452 1161.75 51.7072L1160.96 51.0982L1160.16 50.4892ZM1166.77 45.962C1167.15 45.5677 1167.15 44.9346 1166.75 44.5479C1166.36 44.1612 1165.73 44.1673 1165.34 44.5616L1166.05 45.2618L1166.77 45.962ZM1171.12 39.2343C1170.69 39.5891 1170.64 40.2199 1170.99 40.6431C1171.35 41.0662 1171.98 41.1216 1172.4 40.7667L1171.76 40.0005L1171.12 39.2343ZM1178.48 36.0868C1178.93 35.7676 1179.04 35.1434 1178.72 34.6928C1178.4 34.2421 1177.77 34.1356 1177.32 34.4548L1177.9 35.2708L1178.48 36.0868ZM1183.87 30.1672C1183.39 30.4536 1183.24 31.0686 1183.53 31.5408C1183.82 32.013 1184.43 32.1636 1184.9 31.8771L1184.39 31.0221L1183.87 30.1672ZM1191.61 28.1027C1192.1 27.847 1192.29 27.2428 1192.03 26.7533C1191.77 26.2638 1191.17 26.0743 1190.68 26.3301L1191.14 27.2164L1191.61 28.1027ZM1197.72 22.9168C1197.21 23.1433 1196.99 23.7353 1197.21 24.239C1197.44 24.7427 1198.03 24.9674 1198.54 24.7409L1198.13 23.8289L1197.72 22.9168ZM1205.63 21.7835C1206.15 21.5852 1206.41 21.0065 1206.21 20.4911C1206.01 19.9757 1205.43 19.7186 1204.92 19.917L1205.28 20.8503L1205.63 21.7835ZM1212.28 17.306C1211.75 17.4769 1211.47 18.0411 1211.64 18.5663C1211.81 19.0915 1212.37 19.3788 1212.9 19.2079L1212.59 18.257L1212.28 17.306ZM1220.29 17.0116C1220.82 16.8679 1221.14 16.319 1221 15.7858C1220.85 15.2525 1220.3 14.9368 1219.77 15.0805L1220.03 16.0461L1220.29 17.0116ZM1227.35 13.2409C1226.81 13.3578 1226.46 13.8901 1226.58 14.4299C1226.7 14.9697 1227.23 15.3125 1227.77 15.1956L1227.56 14.2182L1227.35 13.2409ZM1235.34 13.7518C1235.88 13.6617 1236.25 13.147 1236.16 12.6021C1236.07 12.0572 1235.55 11.6885 1235.01 11.7786L1235.17 12.7652L1235.34 13.7518ZM1242.74 10.6949C1242.19 10.7581 1241.8 11.2542 1241.86 11.8028C1241.92 12.3515 1242.42 12.745 1242.97 12.6818L1242.85 11.6883L1242.74 10.6949ZM1250.65 11.9875C1251.2 11.9513 1251.62 11.4752 1251.58 10.9241C1251.54 10.373 1251.07 9.95561 1250.52 9.99182L1250.58 10.9897L1250.65 11.9875ZM1258.32 9.6718C1257.77 9.68083 1257.33 10.1358 1257.33 10.688C1257.34 11.2402 1257.8 11.6806 1258.35 11.6715L1258.33 10.6717L1258.32 9.6718ZM1266.05 11.7359C1266.6 11.7541 1267.06 11.3215 1267.08 10.7695C1267.1 10.2175 1266.67 9.75523 1266.12 9.73695L1266.08 10.7364L1266.05 11.7359ZM1273.9 10.1889C1273.35 10.1432 1272.87 10.5523 1272.82 11.1027C1272.78 11.6531 1273.19 12.1363 1273.74 12.182L1273.82 11.1855L1273.9 10.1889ZM1281.4 13.0117C1281.94 13.0849 1282.45 12.7005 1282.52 12.1531C1282.59 11.6057 1282.21 11.1026 1281.66 11.0293L1281.53 12.0205L1281.4 13.0117ZM1289.37 12.2587C1288.82 12.158 1288.3 12.5165 1288.2 13.0595C1288.1 13.6026 1288.46 14.1244 1289 14.2252L1289.18 13.242L1289.37 12.2587ZM1 52.8331L1.96512 53.0949C2.32282 51.7763 2.69802 50.4928 3.09026 49.2438L2.13619 48.9442L1.18213 48.6445C0.78178 49.9194 0.399239 51.2282 0.0348805 52.5713L1 52.8331ZM4.82295 41.5278L5.74635 41.9117C6.78773 39.4065 7.91115 37.0706 9.11134 34.8964L8.23587 34.4131L7.36039 33.9298C6.1225 36.1724 4.96747 38.575 3.89956 41.144L4.82295 41.5278ZM12.4898 27.77L13.2925 28.3664C14.8864 26.221 16.5783 24.2849 18.3603 22.5457L17.6619 21.8301L16.9634 21.1144C15.1029 22.9302 13.3417 24.9465 11.6871 27.1736L12.4898 27.77ZM23.7493 16.844L24.3119 17.6708C26.4619 16.2079 28.7135 14.9628 31.0578 13.921L30.6517 13.0072L30.2456 12.0933C27.7946 13.1826 25.438 14.4855 23.1868 16.0172L23.7493 16.844ZM38.1054 10.4239L38.355 11.3922C40.8221 10.7562 43.3712 10.3006 45.9941 10.0131L45.8851 9.01908L45.7762 8.02503C43.0654 8.32215 40.4218 8.79396 37.8557 9.45554L38.1054 10.4239ZM53.7731 8.63907L53.7642 9.63904C56.3051 9.66162 58.9008 9.81679 61.5444 10.0946L61.6489 9.10003L61.7534 8.1055C59.0517 7.82163 56.3919 7.66231 53.7819 7.63911L53.7731 8.63907ZM69.4651 10.2411L69.2835 11.2244C71.8043 11.6899 74.3593 12.2515 76.9427 12.9011L77.1866 11.9313L77.4304 10.9615C74.8091 10.3023 72.2125 9.73142 69.6466 9.25768L69.4651 10.2411ZM84.799 14.0673L84.5043 15.0229C86.9725 15.7842 89.4603 16.6156 91.963 17.5104L92.2997 16.5688L92.6363 15.6272C90.1079 14.7232 87.5921 13.8823 85.0937 13.1118L84.799 14.0673ZM99.6923 19.3734L99.3206 20.3018C101.734 21.2678 104.155 22.2854 106.582 23.3484L106.984 22.4324L107.385 21.5165C104.94 20.4454 102.498 19.4195 100.064 18.445L99.6923 19.3734ZM114.181 25.7074L113.754 26.6119C116.118 27.7262 118.483 28.8778 120.844 30.061L121.292 29.167L121.74 28.273C119.365 27.083 116.986 25.9244 114.607 24.8028L114.181 25.7074ZM128.324 32.7857L127.857 33.6701C130.179 34.8956 132.495 36.1466 134.8 37.4177L135.283 36.542L135.766 35.6663C133.451 34.3897 131.124 33.1329 128.79 31.9013L128.324 32.7857ZM142.176 40.4176L141.679 41.2853C143.968 42.5963 146.243 43.9221 148.499 45.2571L149.009 44.3965L149.518 43.5358C147.254 42.1963 144.971 40.8658 142.673 39.5498L142.176 40.4176ZM155.787 48.4648L155.268 49.3191C157.532 50.697 159.774 52.0788 161.99 53.4587L162.518 52.61L163.047 51.7612C160.826 50.3778 158.578 48.9923 156.307 47.6105L155.787 48.4648ZM169.209 56.8205L168.673 57.6646C170.925 59.0957 173.144 60.5183 175.324 61.9257L175.867 61.0855L176.409 60.2454C174.225 58.8357 172.002 57.4105 169.745 55.9765L169.209 56.8205ZM182.501 65.3936L181.954 66.231C184.211 67.7047 186.419 69.1529 188.571 70.5673L189.12 69.7316L189.67 68.8959C187.516 67.4809 185.307 66.0316 183.047 64.5563L182.501 65.3936ZM195.735 74.0812L195.186 74.9169C196.293 75.6445 197.382 76.3594 198.452 77.0603L199 76.2239L199.548 75.3874C198.479 74.6872 197.391 73.9728 196.285 73.2456L195.735 74.0812ZM199 76.2239L198.452 77.0603C199.603 77.8146 200.773 78.5508 201.96 79.2689L202.477 78.4133L202.995 77.5577C201.828 76.8517 200.679 76.1283 199.548 75.3874L199 76.2239ZM209.673 82.4356L209.214 83.3243C211.653 84.5828 214.153 85.7733 216.708 86.8958L217.11 85.9803L217.512 85.0648C214.995 83.9585 212.532 82.7858 210.131 81.5469L209.673 82.4356ZM224.741 89.0711L224.392 90.0083C226.962 90.9654 229.579 91.8591 232.237 92.6894L232.535 91.7349L232.833 90.7804C230.209 89.9604 227.626 89.0783 225.09 88.134L224.741 89.0711ZM240.46 93.9918L240.21 94.9601C242.869 95.6464 245.561 96.2729 248.283 96.8396L248.487 95.8606L248.691 94.8816C245.999 94.3212 243.337 93.7018 240.71 93.0236L240.46 93.9918ZM256.593 97.3575L256.433 98.3447C259.145 98.7833 261.88 99.1648 264.634 99.4894L264.751 98.4963L264.868 97.5032C262.142 97.1819 259.435 96.8043 256.752 96.3704L256.593 97.3575ZM272.95 99.2896L272.874 100.287C275.617 100.495 278.373 100.649 281.14 100.747L281.175 99.7475L281.211 98.7481C278.471 98.6507 275.741 98.4989 273.026 98.2925L272.95 99.2896ZM289.413 99.877L289.417 100.877C292.172 100.866 294.932 100.801 297.693 100.683L297.65 99.6835L297.608 98.6844C294.872 98.802 292.138 98.8662 289.409 98.877L289.413 99.877ZM305.874 99.1701L305.956 100.167C308.705 99.9415 311.452 99.6629 314.192 99.331L314.072 98.3382L313.951 97.3455C311.237 97.6743 308.516 97.9503 305.793 98.1734L305.874 99.1701ZM322.23 97.1875L322.389 98.1748C325.116 97.7353 327.833 97.2423 330.534 96.6958L330.336 95.7157L330.138 94.7356C327.462 95.2767 324.772 95.765 322.071 96.2002L322.23 97.1875ZM338.376 93.919L338.614 94.8903C341.301 94.2316 343.969 93.5187 346.614 92.7515L346.336 91.7911L346.057 90.8307C343.439 91.59 340.798 92.2957 338.138 92.9477L338.376 93.919ZM354.198 89.3249L354.519 90.2723C357.144 89.3851 359.742 88.4423 362.307 87.4439L361.944 86.512L361.581 85.5801C359.045 86.5674 356.476 87.4999 353.878 88.3775L354.198 89.3249ZM369.55 83.3428L369.956 84.2564C372.491 83.1279 374.988 81.9421 377.443 80.6987L376.991 79.8066L376.539 78.9146C374.115 80.1425 371.648 81.3141 369.143 82.4292L369.55 83.3428ZM384.239 75.8925L384.737 76.7594C387.144 75.375 389.503 73.9309 391.807 72.4271L391.261 71.5896L390.714 70.7521C388.442 72.2349 386.116 73.6595 383.74 75.0257L384.239 75.8925ZM398.022 66.8866L398.617 67.6898C400.851 66.0339 403.023 64.3159 405.129 62.5359L404.484 61.7721L403.838 61.0083C401.765 62.7603 399.626 64.452 397.426 66.0833L398.022 66.8866ZM410.594 56.2463L411.29 56.9647C412.285 56.0008 413.262 55.0211 414.221 54.0254L413.5 53.332L412.779 52.6386C411.838 53.6171 410.877 54.5802 409.899 55.528L410.594 56.2463ZM413.5 53.332L414.221 54.0254C415.181 53.0276 416.09 52.0375 416.95 51.0555L416.198 50.3967L415.446 49.7379C414.607 50.6954 413.719 51.6625 412.779 52.6386L413.5 53.332ZM420.989 44.289L421.812 44.8581C423.441 42.5036 424.782 40.2044 425.853 37.9684L424.951 37.5366L424.049 37.1047C423.028 39.236 421.742 41.4438 420.167 43.7198L420.989 44.289ZM427.542 30.2242L428.518 30.4433C429.155 27.6063 429.327 24.905 429.079 22.3643L428.084 22.4612L427.088 22.5582C427.314 24.8715 427.16 27.3591 426.566 30.0052L427.542 30.2242ZM425.886 15.0126L426.773 14.55C425.52 12.149 423.818 10.01 421.756 8.16159L421.089 8.90622L420.421 9.65084C422.319 11.3517 423.866 13.303 425 15.4751L425.886 15.0126ZM414.583 4.62159L415.015 3.71964C412.685 2.6042 410.14 1.72751 407.434 1.10617L407.211 2.0808L406.987 3.05544C409.56 3.64636 411.964 4.4765 414.151 5.52354L414.583 4.62159ZM399.48 1.04798L399.525 0.0489946C396.949 -0.067018 394.285 0.0218622 391.567 0.327737L391.679 1.32146L391.791 2.31519C394.407 2.02071 396.967 1.9358 399.436 2.04697L399.48 1.04798ZM383.987 2.75735L383.734 1.78973C381.24 2.44038 378.728 3.27397 376.221 4.29948L376.6 5.225L376.979 6.15052C379.403 5.15855 381.831 4.35313 384.239 3.72498L383.987 2.75735ZM369.562 8.64627L369.069 7.77623C366.828 9.04561 364.612 10.4796 362.438 12.085L363.032 12.8894L363.626 13.6939C365.736 12.1363 367.884 10.7461 370.055 9.51632L369.562 8.64627ZM357.025 17.8882L356.342 17.1571C354.458 18.916 352.622 20.8209 350.849 22.8767L351.606 23.5298L352.363 24.183C354.09 22.1814 355.875 20.3286 357.707 18.6193L357.025 17.8882ZM346.826 29.6778L346.007 29.104C344.538 31.2015 343.128 33.4232 341.788 35.7726L342.657 36.268L343.525 36.7634C344.835 34.4671 346.212 32.2978 347.645 30.2517L346.826 29.6778ZM339.087 43.208L338.179 42.7883C337.628 43.9808 337.093 45.201 336.576 46.4492L337.5 46.832L338.424 47.2148C338.931 45.9912 339.455 44.7956 339.995 43.6277L339.087 43.208ZM337.5 46.832L336.576 46.4492C336.044 47.7327 335.571 48.9941 335.155 50.2333L336.103 50.5511L337.051 50.869C337.451 49.6764 337.909 48.4583 338.424 47.2148L337.5 46.832ZM334.27 58.1234L333.28 57.9845C332.884 60.8062 332.849 63.4966 333.181 66.0532L334.173 65.9242L335.164 65.7953C334.858 63.4361 334.887 60.9269 335.261 58.2623L334.27 58.1234ZM336.43 73.3718L335.536 73.8194C336.714 76.1747 338.292 78.3596 340.26 80.3764L340.976 79.678L341.692 78.9796C339.856 77.0987 338.403 75.0806 337.324 72.9242L336.43 73.3718ZM347.093 84.5976L346.552 85.4386C348.643 86.7834 350.969 88.0275 353.529 89.1734L353.938 88.2607L354.346 87.348C351.866 86.2377 349.63 85.0402 347.634 83.7565L347.093 84.5976ZM361.246 91.0578L360.936 92.0082C363.322 92.7891 365.861 93.509 368.549 94.1686L368.788 93.1974L369.026 92.2262C366.381 91.5773 363.892 90.871 361.557 90.1074L361.246 91.0578ZM376.442 94.8366L376.259 95.8198C378.739 96.2809 381.325 96.7005 384.017 97.079L384.156 96.0888L384.295 95.0985C381.63 94.7238 379.073 94.3088 376.625 93.8535L376.442 94.8366ZM391.912 97.0346L391.808 98.0292C394.336 98.2936 396.946 98.5268 399.637 98.729L399.712 97.7318L399.787 96.7346C397.114 96.5338 394.524 96.3023 392.016 96.04L391.912 97.0346ZM407.563 98.222L407.513 99.2207C410.064 99.3494 412.682 99.4534 415.364 99.5326L415.394 98.533L415.423 97.5335C412.754 97.4546 410.15 97.3512 407.613 97.2233L407.563 98.222ZM423.168 98.6915L423.157 99.6914C425.724 99.7213 428.347 99.7306 431.024 99.7195L431.02 98.7195L431.016 97.7195C428.348 97.7306 425.736 97.7213 423.18 97.6915L423.168 98.6915ZM438.876 98.6311L438.894 99.6309C441.442 99.5848 444.037 99.5217 446.678 99.4415L446.647 98.4419L446.617 97.4424C443.984 97.5223 441.398 97.5853 438.858 97.6312L438.876 98.6311ZM454.534 98.1576L454.576 99.1568C457.127 99.0508 459.719 98.93 462.351 98.7945L462.3 97.7958L462.248 96.7971C459.622 96.9323 457.037 97.0528 454.493 97.1585L454.534 98.1576ZM470.136 97.356L470.196 98.3542C472.765 98.1984 475.37 98.0295 478.012 97.8475L477.943 96.8499L477.874 95.8522C475.238 96.0339 472.639 96.2025 470.075 96.3578L470.136 97.356ZM485.743 96.2821L485.819 97.2792C488.395 97.082 491.004 96.873 493.645 96.6522L493.562 95.6556L493.479 94.6591C490.842 94.8796 488.238 95.0882 485.666 95.285L485.743 96.2821ZM501.343 94.9797L501.432 95.9756C504.008 95.7436 506.613 95.5009 509.248 95.2476L509.153 94.2522L509.057 93.2568C506.426 93.5097 503.825 93.752 501.253 93.9837L501.343 94.9797ZM516.933 93.4821L517.034 94.477C519.604 94.2155 522.2 93.9444 524.824 93.6637L524.718 92.6694L524.611 91.6751C521.991 91.9554 519.398 92.2262 516.832 92.4873L516.933 93.4821ZM532.516 91.8155L532.628 92.8093C535.187 92.5228 537.771 92.2276 540.38 91.9237L540.264 90.9304L540.148 89.9371C537.542 90.2407 534.961 90.5356 532.405 90.8217L532.516 91.8155ZM548.099 90.0001L548.219 90.9929C550.765 90.6851 553.333 90.3693 555.924 90.0455L555.8 89.0532L555.676 88.0609C553.088 88.3844 550.522 88.6999 547.979 89.0073L548.099 90.0001ZM563.638 88.0585L563.766 89.0503C566.312 88.7221 568.88 88.3865 571.469 88.0435L571.338 87.0522L571.206 86.0609C568.62 86.4035 566.054 86.7388 563.51 87.0667L563.638 88.0585ZM579.112 86.0086L579.247 86.9995C581.819 86.6497 584.412 86.2929 587.025 85.9291L586.887 84.9386L586.749 83.9482C584.138 84.3118 581.548 84.6683 578.977 85.0177L579.112 86.0086ZM594.595 83.8531L594.736 84.8431C597.326 84.4744 599.935 84.099 602.563 83.7169L602.419 82.7273L602.276 81.7377C599.649 82.1195 597.042 82.4947 594.454 82.8631L594.595 83.8531ZM610.099 81.6L610.246 82.5892C612.811 82.209 615.395 81.8226 617.996 81.4301L617.847 80.4413L617.698 79.4525C615.098 79.8448 612.516 80.2309 609.952 80.6108L610.099 81.6ZM625.635 79.2558L625.787 80.2443C628.328 79.8541 630.886 79.4583 633.46 79.0568L633.306 78.0687L633.152 77.0807C630.579 77.482 628.023 77.8775 625.483 78.2674L625.635 79.2558ZM641.077 76.8474L641.234 77.8351C642.537 77.6287 643.845 77.4208 645.158 77.2115L645 76.224L644.842 75.2365C643.531 75.4456 642.224 75.6534 640.921 75.8597L641.077 76.8474ZM773 30.4997L773.186 31.4822C774.457 31.2412 775.743 31.0012 777.044 30.7622L776.863 29.7786L776.682 28.7951C775.378 29.0348 774.088 29.2755 772.814 29.5172L773 30.4997ZM784.831 28.3597L785.002 29.3451C787.568 28.902 790.185 28.463 792.85 28.0287L792.689 27.0417L792.529 26.0547C789.857 26.4901 787.234 26.9301 784.661 27.3743L784.831 28.3597ZM800.617 25.7855L800.769 26.7738C803.39 26.3699 806.052 25.9708 808.752 25.5768L808.608 24.5873L808.463 23.5978C805.758 23.9925 803.091 24.3924 800.465 24.7971L800.617 25.7855ZM816.498 23.4661L816.635 24.4567C819.264 24.093 821.925 23.7344 824.616 23.3813L824.486 22.3898L824.356 21.3983C821.66 21.752 818.994 22.1112 816.361 22.4756L816.498 23.4661ZM832.429 21.3748L832.553 22.3671C835.182 22.0399 837.837 21.7182 840.516 21.4023L840.399 20.4092L840.282 19.4161C837.599 19.7325 834.939 20.0547 832.306 20.3824L832.429 21.3748ZM848.388 19.4924L848.499 20.4862C851.131 20.1924 853.783 19.9043 856.454 19.6224L856.349 18.6279L856.244 17.6335C853.569 17.9158 850.913 18.2043 848.277 18.4985L848.388 19.4924ZM864.364 17.806L864.463 18.8011C867.099 18.5387 869.751 18.2823 872.418 18.0324L872.325 17.0368L872.231 16.0411C869.561 16.2914 866.905 16.5481 864.265 16.811L864.364 17.806ZM880.352 16.3078L880.44 17.304C883.081 17.0718 885.736 16.846 888.401 16.627L888.319 15.6303L888.237 14.6337C885.568 14.853 882.91 15.0791 880.264 15.3117L880.352 16.3078ZM896.343 14.9941L896.419 15.9912C899.071 15.7886 901.731 15.5929 904.4 15.4043L904.329 14.4068L904.259 13.4092C901.586 13.5981 898.922 13.7941 896.267 13.997L896.343 14.9941ZM912.352 13.863L912.416 14.8609C915.075 14.6883 917.741 14.5231 920.411 14.3654L920.352 13.3672L920.293 12.3689C917.619 12.5268 914.95 12.6923 912.287 12.8651L912.352 13.863ZM928.374 12.9171L928.427 13.9157C931.092 13.7741 933.761 13.6403 936.432 13.5144L936.385 12.5155L936.338 11.5166C933.663 11.6427 930.99 11.7767 928.321 11.9185L928.374 12.9171ZM944.407 12.1621L944.448 13.1613C947.119 13.0519 949.791 12.9507 952.462 12.8581L952.428 11.8587L952.393 10.8593C949.718 10.9521 947.042 11.0534 944.367 11.163L944.407 12.1621ZM960.45 11.6063L960.478 12.6059C963.154 12.5304 965.828 12.4638 968.498 12.4063L968.477 11.4065L968.455 10.4068C965.78 10.4644 963.102 10.5311 960.422 10.6067L960.45 11.6063ZM976.499 11.2612L976.514 12.2611C979.194 12.2219 981.869 12.1922 984.537 12.1723L984.53 11.1723L984.523 10.1723C981.849 10.1923 979.169 10.2221 976.485 10.2614L976.499 11.2612ZM992.553 11.1421L992.553 12.1421C995.236 12.1421 997.911 12.1523 1000.58 12.1731L1000.58 11.1732L1000.59 10.1732C997.921 10.1523 995.241 10.1421 992.553 10.1421L992.553 11.1421ZM1008.61 11.2684L1008.59 12.2683C1011.28 12.3113 1013.95 12.3654 1016.61 12.4309L1016.63 11.4312L1016.66 10.4315C1013.99 10.3658 1011.31 10.3116 1008.62 10.2686L1008.61 11.2684ZM1024.66 11.6655L1024.63 12.6649C1027.31 12.7556 1029.98 12.8584 1032.63 12.9738L1032.67 11.9747L1032.72 10.9756C1030.06 10.86 1027.38 10.7569 1024.7 10.666L1024.66 11.6655ZM1040.71 12.3655L1040.65 13.3641C1043.33 13.5084 1045.99 13.6661 1048.62 13.8376L1048.69 12.8397L1048.75 11.8418C1046.11 11.6698 1043.44 11.5116 1040.76 11.367L1040.71 12.3655ZM1056.73 13.4103L1056.65 14.4074C1059.32 14.6132 1061.97 14.8341 1064.59 15.0702L1064.68 14.0742L1064.77 13.0782C1062.14 12.8413 1059.49 12.6198 1056.81 12.4133L1056.73 13.4103ZM1072.72 14.8545L1072.61 15.8491C1075.29 16.1289 1077.94 16.4256 1080.56 16.7399L1080.68 15.747L1080.8 14.7541C1078.17 14.4386 1075.51 14.1407 1072.82 13.8599L1072.72 14.8545ZM1088.64 16.7704L1088.5 17.7611C1091.19 18.1307 1093.84 18.5203 1096.45 18.9302L1096.6 17.9423L1096.76 16.9544C1094.14 16.5424 1091.47 16.151 1088.77 15.7797L1088.64 16.7704ZM1104.47 19.2616L1104.29 20.2459C1106.97 20.7262 1109.61 21.23 1112.19 21.7579L1112.39 20.7782L1112.59 19.7984C1109.99 19.2671 1107.34 18.7602 1104.64 18.2772L1104.47 19.2616ZM1120.25 22.497L1120.02 23.4707C1122.65 24.0868 1125.22 24.7308 1127.73 25.4034L1127.99 24.4376L1128.25 23.4718C1125.72 22.7933 1123.13 22.144 1120.47 21.5233L1120.25 22.497ZM1135.71 26.6672L1135.41 27.6222C1138.03 28.4368 1140.56 29.2874 1143.01 30.1748L1143.35 29.2348L1143.69 28.2949C1141.22 27.396 1138.65 26.5355 1136 25.7123L1135.71 26.6672ZM1150.82 32.1869L1150.42 33.1054C1152.94 34.1894 1155.34 35.3205 1157.6 36.4997L1158.06 35.6127L1158.53 34.7256C1156.21 33.5218 1153.77 32.3699 1151.21 31.2684L1150.82 32.1869ZM1165 39.6319L1164.45 40.4709C1166.76 41.9671 1168.88 43.5289 1170.8 45.1576L1171.45 44.3947L1172.09 43.6317C1170.1 41.9423 1167.91 40.3304 1165.54 38.793L1165 39.6319ZM1177.12 50.0566L1176.35 50.6978C1177.19 51.7041 1177.96 52.732 1178.67 53.782L1179.5 53.2241L1180.33 52.6661C1179.58 51.5559 1178.77 50.4725 1177.88 49.4154L1177.12 50.0566ZM1179.5 53.2241L1178.67 53.782C1179.45 54.9404 1180.19 56.0745 1180.89 57.1845L1181.74 56.6497L1182.58 56.1148C1181.87 54.9887 1181.12 53.8393 1180.33 52.6661L1179.5 53.2241ZM1185.79 63.5185L1184.91 63.9958C1186.29 66.5434 1187.45 68.9385 1188.41 71.1853L1189.33 70.7938L1190.25 70.4023C1189.26 68.0909 1188.08 65.6384 1186.66 63.0412L1185.79 63.5185ZM1191.96 78.3713L1191 78.6244C1191.75 81.5135 1192.09 84.0573 1192.08 86.2744L1193.08 86.2771L1194.08 86.2798C1194.09 83.8599 1193.72 81.1424 1192.93 78.1183L1191.96 78.3713ZM1191.26 94.0137L1190.39 93.521C1189.13 95.7567 1187.21 97.2777 1184.89 98.1428L1185.24 99.08L1185.59 100.017C1188.32 99.0019 1190.62 97.1861 1192.13 94.5065L1191.26 94.0137ZM1177.31 99.8585L1177.43 98.8656C1175.02 98.5764 1172.51 97.847 1170.05 96.702L1169.62 97.6087L1169.2 98.5155C1171.84 99.7415 1174.56 100.535 1177.19 100.851L1177.31 99.8585ZM1162.88 93.276L1163.53 92.5139C1161.6 90.8746 1159.83 88.9463 1158.34 86.7522L1157.52 87.314L1156.69 87.8759C1158.28 90.2258 1160.17 92.2875 1162.23 94.0381L1162.88 93.276ZM1153.98 80.1289L1154.93 79.8177C1154.54 78.6109 1154.22 77.3537 1153.98 76.0477L1153 76.224L1152.02 76.4003C1152.27 77.7983 1152.61 79.1457 1153.03 80.4401L1153.98 80.1289ZM1153 76.224L1153.98 76.0477C1153.77 74.8343 1153.65 73.6041 1153.64 72.3604L1152.64 72.3692L1151.64 72.378C1151.66 73.7312 1151.78 75.0735 1152.02 76.4003L1153 76.224ZM1153.74 64.7263L1154.7 65.0037C1155.36 62.7054 1156.33 60.3822 1157.59 58.0558L1156.72 57.5793L1155.84 57.1029C1154.51 59.5409 1153.49 61.9972 1152.78 64.449L1153.74 64.7263ZM1160.96 51.0982L1161.75 51.7072C1163.24 49.7723 1164.91 47.8528 1166.77 45.962L1166.05 45.2618L1165.34 44.5616C1163.43 46.5051 1161.7 48.4852 1160.16 50.4892L1160.96 51.0982ZM1171.76 40.0005L1172.4 40.7667C1174.3 39.1712 1176.33 37.6082 1178.48 36.0868L1177.9 35.2708L1177.32 34.4548C1175.13 36.0061 1173.06 37.6021 1171.12 39.2343L1171.76 40.0005ZM1184.39 31.0221L1184.9 31.8771C1187.05 30.5753 1189.29 29.3149 1191.61 28.1027L1191.14 27.2164L1190.68 26.3301C1188.32 27.5615 1186.05 28.8427 1183.87 30.1672L1184.39 31.0221ZM1198.13 23.8289L1198.54 24.7409C1200.84 23.7061 1203.21 22.7186 1205.63 21.7835L1205.28 20.8503L1204.92 19.917C1202.45 20.8651 1200.05 21.8668 1197.72 22.9168L1198.13 23.8289ZM1212.59 18.257L1212.9 19.2079C1215.31 18.4224 1217.78 17.6888 1220.29 17.0116L1220.03 16.0461L1219.77 15.0805C1217.23 15.7666 1214.73 16.5099 1212.28 17.306L1212.59 18.257ZM1227.56 14.2182L1227.77 15.1956C1230.25 14.6573 1232.78 14.1748 1235.34 13.7518L1235.17 12.7652L1235.01 11.7786C1232.42 12.207 1229.86 12.6957 1227.35 13.2409L1227.56 14.2182ZM1242.85 11.6883L1242.97 12.6818C1245.5 12.39 1248.06 12.1574 1250.65 11.9875L1250.58 10.9897L1250.52 9.99182C1247.9 10.1639 1245.3 10.3994 1242.74 10.6949L1242.85 11.6883ZM1258.33 10.6717L1258.35 11.6715C1260.9 11.6299 1263.47 11.6503 1266.05 11.7359L1266.08 10.7364L1266.12 9.73695C1263.5 9.65026 1260.9 9.62962 1258.32 9.6718L1258.33 10.6717ZM1273.82 11.1855L1273.74 12.182C1276.28 12.3931 1278.83 12.6686 1281.4 13.0117L1281.53 12.0205L1281.66 11.0293C1279.06 10.6818 1276.48 10.4027 1273.9 10.1889L1273.82 11.1855ZM1289.18 13.242L1289 14.2252C1290.26 14.4593 1291.53 14.7102 1292.79 14.9783L1293 14L1293.21 13.0217C1291.93 12.7501 1290.65 12.4959 1289.37 12.2587L1289.18 13.242Z" fill="#B0B0C0" fill-opacity="0.3"/>
</svg>
