<svg width="64" height="64" viewBox="0 0 64 64" fill="none" xmlns="http://www.w3.org/2000/svg">
<rect width="64" height="64" rx="16" fill="#FDD980"/>
<path d="M26 22H38M38 42V36M32 42H32.02M26 42H26.02M26 36H26.02M32 36H32.02M38 30H38.02M32 30H32.02M26 30H26.02M22 50H42C43.0609 50 44.0783 49.5786 44.8284 48.8284C45.5786 48.0783 46 47.0609 46 46V18C46 16.9391 45.5786 15.9217 44.8284 15.1716C44.0783 14.4214 43.0609 14 42 14H22C20.9391 14 19.9217 14.4214 19.1716 15.1716C18.4214 15.9217 18 16.9391 18 18V46C18 47.0609 18.4214 48.0783 19.1716 48.8284C19.9217 49.5786 20.9391 50 22 50Z" stroke="#252422" stroke-width="2" stroke-linecap="round" stroke-linejoin="round"/>
</svg>
