<svg width="64" height="64" viewBox="0 0 64 64" fill="none" xmlns="http://www.w3.org/2000/svg">
<rect width="64" height="64" rx="16" fill="#ACFD80"/>
<path d="M24 46C25.0609 46 26.0783 45.5786 26.8284 44.8284C27.5786 44.0783 28 43.0609 28 42C28 40.9391 27.5786 39.9217 26.8284 39.1716C26.0783 38.4214 25.0609 38 24 38C22.9391 38 21.9217 38.4214 21.1716 39.1716C20.4214 39.9217 20 40.9391 20 42C20 43.0609 20.4214 44.0783 21.1716 44.8284C21.9217 45.5786 22.9391 46 24 46ZM44 46C45.0609 46 46.0783 45.5786 46.8284 44.8284C47.5786 44.0783 48 43.0609 48 42C48 40.9391 47.5786 39.9217 46.8284 39.1716C46.0783 38.4214 45.0609 38 44 38C42.9391 38 41.9217 38.4214 41.1716 39.1716C40.4214 39.9217 40 40.9391 40 42C40 43.0609 40.4214 44.0783 41.1716 44.8284C41.9217 45.5786 42.9391 46 44 46Z" stroke="#252422" stroke-width="2" stroke-miterlimit="1.5" stroke-linecap="round" stroke-linejoin="round"/>
<path d="M28.1 42H38V21.2C38 20.8817 37.8736 20.5765 37.6485 20.3515C37.4235 20.1264 37.1183 20 36.8 20H10M19.3 42H15.2C15.0424 42 14.8864 41.969 14.7408 41.9087C14.5952 41.8484 14.4629 41.76 14.3515 41.6485C14.24 41.5371 14.1517 41.4048 14.0913 41.2592C14.031 41.1136 14 40.9576 14 40.8V31" stroke="#252422" stroke-width="2" stroke-linecap="round"/>
<path d="M12 26H20" stroke="#252422" stroke-width="2" stroke-linecap="round" stroke-linejoin="round"/>
<path d="M38 26H49.22C49.452 26.0001 49.6789 26.0673 49.8734 26.1937C50.0679 26.3201 50.2217 26.5001 50.316 26.712L53.896 34.768C53.9642 34.921 53.9996 35.0865 54 35.254V40.8C54 40.9576 53.969 41.1136 53.9087 41.2592C53.8484 41.4048 53.76 41.5371 53.6485 41.6485C53.5371 41.76 53.4048 41.8484 53.2592 41.9087C53.1136 41.969 52.9576 42 52.8 42H49M38 42H40" stroke="#252422" stroke-width="2" stroke-linecap="round"/>
</svg>
