<svg width="64" height="64" viewBox="0 0 64 64" fill="none" xmlns="http://www.w3.org/2000/svg">
<rect width="64" height="64" rx="16" fill="#9AF8FF"/>
<path d="M50.5 34V25C50.5 22.3478 49.4464 19.8043 47.5711 17.9289C45.6957 16.0536 43.1522 15 40.5 15H23.5C20.8478 15 18.3043 16.0536 16.4289 17.9289C14.5536 19.8043 13.5 22.3478 13.5 25V39C13.5 40.3132 13.7587 41.6136 14.2612 42.8268C14.7638 44.0401 15.5003 45.1425 16.4289 46.0711C18.3043 47.9464 20.8478 49 23.5 49H36.02" stroke="#252422" stroke-width="2" stroke-linecap="round" stroke-linejoin="round"/>
<path d="M14.0195 41.9993L19.4995 35.5993C20.2192 34.8845 21.1638 34.4403 22.1733 34.3419C23.1828 34.2435 24.1954 34.4969 25.0395 35.0593C25.8837 35.6216 26.8962 35.875 27.9058 35.7766C28.9153 35.6782 29.8598 35.2341 30.5795 34.5193L35.2395 29.8593C36.5785 28.5157 38.3513 27.6917 40.2416 27.5342C42.1319 27.3766 44.0166 27.8959 45.5595 28.9993L50.4995 32.8193M24.0195 28.3393C24.4555 28.3367 24.8867 28.2482 25.2885 28.0789C25.6903 27.9096 26.0548 27.6629 26.3613 27.3527C26.6677 27.0426 26.91 26.6751 27.0745 26.2713C27.2389 25.8675 27.3222 25.4353 27.3195 24.9993C27.3169 24.5633 27.2284 24.1321 27.0592 23.7303C26.8899 23.3285 26.6431 22.964 26.333 22.6575C26.0228 22.3511 25.6554 22.1088 25.2516 21.9443C24.8478 21.7799 24.4155 21.6967 23.9795 21.6993C23.099 21.7046 22.2567 22.0595 21.6378 22.6858C21.0189 23.3122 20.6742 24.1588 20.6795 25.0393C20.6848 25.9198 21.0397 26.7621 21.6661 27.381C22.2925 27.9999 23.139 28.3446 24.0195 28.3393Z" stroke="#252422" stroke-width="2" stroke-linecap="round" stroke-linejoin="round"/>
<path d="M45.4141 48V38" stroke="#252422" stroke-width="2" stroke-miterlimit="10" stroke-linecap="round"/>
<path d="M40.828 43.79L44.762 47.724C44.8475 47.8099 44.9491 47.878 45.061 47.9245C45.1729 47.971 45.2928 47.995 45.414 47.995C45.5352 47.995 45.6551 47.971 45.767 47.9245C45.8789 47.878 45.9805 47.8099 46.066 47.724L50 43.79" stroke="#252422" stroke-width="2" stroke-linecap="round" stroke-linejoin="round"/>
</svg>
