<svg width="64" height="64" viewBox="0 0 64 64" fill="none" xmlns="http://www.w3.org/2000/svg">
<rect width="64" height="64" rx="16" fill="#FFAAEA"/>
<path d="M42 18H32M32 18H27C25.1435 18 23.363 18.7375 22.0503 20.0503C20.7375 21.363 20 23.1435 20 25C20 26.8565 20.7375 28.637 22.0503 29.9497C23.363 31.2625 25.1435 32 27 32H32M32 18V14M32 18V32M32 32H37C37.9193 32 38.8295 32.1811 39.6788 32.5328C40.5281 32.8846 41.2997 33.4002 41.9497 34.0503C42.5998 34.7003 43.1154 35.4719 43.4672 36.3212C43.8189 37.1705 44 38.0807 44 39C44 39.9193 43.8189 40.8295 43.4672 41.6788C43.1154 42.5281 42.5998 43.2997 41.9497 43.9497C41.2997 44.5998 40.5281 45.1154 39.6788 45.4672C38.8295 45.8189 37.9193 46 37 46H32M32 32V46M32 46H20M32 46V50" stroke="#252422" stroke-width="2" stroke-linecap="round" stroke-linejoin="round"/>
</svg>
