<svg viewBox="0 0 94 29" fill="none" xmlns="http://www.w3.org/2000/svg">
  <path fill-rule="evenodd" clip-rule="evenodd" d="M57.8969 21.9282C52.4938 25.9152 44.6347 28.0394 37.8563 28.0394C28.3599 28.0394 19.846 24.5426 13.3622 18.7256C12.871 18.2681 13.2967 17.6472 13.9189 18.0066C20.8938 22.0589 29.506 24.4773 38.413 24.4773C44.4055 24.4773 51.0202 23.2354 57.111 20.6537C58.0279 20.2942 58.781 21.2746 57.8969 21.9282Z" fill="#111212" />
  <path fill-rule="evenodd" clip-rule="evenodd" d="M60.1564 19.3465C59.4687 18.4641 55.5719 18.9217 53.8364 19.1504C53.3124 19.2158 53.2142 18.7583 53.7054 18.4315C56.8163 16.2419 61.8919 16.8955 62.4813 17.6145C63.0708 18.3334 62.3176 23.4315 59.4032 25.8498C58.9448 26.2093 58.519 26.0132 58.7155 25.523C59.3704 23.889 60.844 20.2615 60.1564 19.3465Z" fill="#111212" />
  <path fill-rule="evenodd" clip-rule="evenodd" d="M53.9346 3.07191V0.947715C53.9346 0.620916 54.1638 0.424835 54.4585 0.424835H63.9549C64.2496 0.424835 64.5116 0.653596 64.5116 0.947715V2.74511C64.5116 3.03923 64.2496 3.43139 63.7912 4.08499L58.8793 11.0785C60.713 11.0458 62.6451 11.3072 64.2824 12.2223C64.6426 12.4184 64.7408 12.7452 64.7735 13.0393V15.2942C64.7735 15.621 64.4461 15.9805 64.0859 15.7844C61.1715 14.2484 57.2747 14.085 54.0656 15.8171C53.7381 15.9805 53.3779 15.6537 53.3779 15.3269V13.17C53.3779 12.8432 53.3779 12.255 53.7381 11.7321L59.4359 3.59479H54.4913C54.1966 3.59479 53.9346 3.36603 53.9346 3.07191ZM19.322 16.2419H16.4404C16.1784 16.2092 15.9492 16.0131 15.9164 15.7517V0.980397C15.9164 0.686278 16.1784 0.457517 16.4731 0.457517H19.1583C19.453 0.457517 19.6495 0.686276 19.6822 0.947715V2.87583H19.7477C20.4354 1.01307 21.778 0.130718 23.5463 0.130718C25.3473 0.130718 26.4934 1.01307 27.2793 2.87583C27.967 1.01307 29.5715 0.130718 31.2743 0.130718C32.4859 0.130718 33.7958 0.620916 34.6144 1.76471C35.5313 3.00655 35.3348 4.80395 35.3348 6.40526V15.7517C35.3348 16.0458 35.0729 16.2746 34.7782 16.2746H31.9292C31.6345 16.2419 31.4053 16.0131 31.4053 15.7517V7.90853C31.4053 7.28761 31.4708 5.71898 31.3398 5.13074C31.1106 4.15034 30.4884 3.85623 29.637 3.85623C28.9494 3.85623 28.1962 4.31375 27.9015 5.06539C27.6068 5.81702 27.6395 7.05885 27.6395 7.90853V15.7517C27.6395 16.0458 27.3775 16.2746 27.0828 16.2746H24.2012C23.9065 16.2419 23.6772 16.0131 23.6772 15.7517V7.90853C23.6772 6.27454 23.9392 3.82354 21.909 3.82354C19.8459 3.82354 19.9114 6.1765 19.9114 7.90853V15.7517C19.8787 16.0131 19.6495 16.2419 19.322 16.2419ZM72.6981 0.130718C76.9878 0.130718 79.3128 3.79087 79.3128 8.46409C79.3128 12.9739 76.7586 16.5687 72.6981 16.5687C68.5066 16.5687 66.2144 12.9086 66.2144 8.33338C66.1816 3.72551 68.5066 0.130718 72.6981 0.130718ZM72.6981 3.16995C70.5696 3.16995 70.4386 6.07846 70.4386 7.87586C70.4386 9.67325 70.4059 13.5295 72.6654 13.5295C74.8921 13.5295 75.0231 10.4249 75.0231 8.52946C75.0231 7.28762 74.9576 5.78435 74.5974 4.60787C74.2699 3.56211 73.615 3.16995 72.6981 3.16995ZM84.8469 16.2419H81.9652C81.6705 16.2092 81.4413 15.9805 81.4413 15.719V0.915033C81.4741 0.653594 81.7033 0.424835 81.998 0.424835H84.6832C84.9451 0.424835 85.1416 0.62092 85.2071 0.84968V3.10459H85.2726C86.0912 1.07844 87.2046 0.130718 89.2021 0.130718C90.4792 0.130718 91.7563 0.588232 92.575 1.86275C93.3281 3.03923 93.3281 5.0327 93.3281 6.47062V15.7844C93.2954 16.0458 93.0662 16.2419 92.7714 16.2419H89.8898C89.6278 16.2092 89.3986 16.0131 89.3658 15.7844V7.74513C89.3658 6.11114 89.5623 3.75819 87.5648 3.75819C86.8771 3.75819 86.2222 4.21571 85.8948 4.93467C85.5018 5.84971 85.4363 6.73206 85.4363 7.74513V15.719C85.4036 16.0132 85.1416 16.2419 84.8469 16.2419ZM46.3703 9.18306C46.3703 10.2942 46.403 11.2419 45.8463 12.255C45.3879 13.072 44.6675 13.5622 43.8488 13.5622C42.7354 13.5622 42.0805 12.7125 42.0805 11.4706C42.0805 9.01966 44.2745 8.56213 46.3703 8.56213V9.18306ZM49.2847 16.2092C49.0882 16.3726 48.8262 16.4053 48.597 16.2746C47.6474 15.4903 47.4509 15.0981 46.9269 14.3465C45.3551 15.9478 44.209 16.438 42.1788 16.438C39.7556 16.438 37.8563 14.9347 37.8563 11.9608C37.8563 9.6079 39.1334 8.03925 40.9344 7.25493C42.5062 6.56866 44.7002 6.43794 46.3703 6.24186V5.88238C46.3703 5.19611 46.4358 4.37911 46.0101 3.79087C45.6498 3.26799 44.9949 3.03923 44.4055 3.03923C43.2921 3.03923 42.3097 3.59479 42.0805 4.77127C42.015 5.03271 41.8513 5.29414 41.5893 5.29414L38.8059 5.00002C38.5767 4.93466 38.3147 4.77127 38.3802 4.41179C39.0351 1.01308 42.0805 0 44.8312 0C46.2393 0 48.0731 0.359477 49.1864 1.43791C50.5945 2.74511 50.4635 4.50983 50.4635 6.40526V10.8824C50.4635 12.2223 51.0202 12.8105 51.5441 13.5622C51.7406 13.8236 51.7734 14.1504 51.5441 14.3138C50.922 14.804 49.8741 15.719 49.2847 16.2092ZM8.54856 9.18306C8.54856 10.2942 8.5813 11.2419 8.02462 12.255C7.56617 13.072 6.84576 13.5622 6.02711 13.5622C4.91374 13.5622 4.25882 12.7125 4.25882 11.4706C4.25882 9.01966 6.45281 8.56213 8.54856 8.56213V9.18306ZM11.4302 16.2092C11.2337 16.3726 10.9718 16.4053 10.7425 16.2746C9.79291 15.4903 9.59643 15.0981 9.07249 14.3465C7.50068 15.9478 6.35457 16.438 4.32431 16.438C1.9011 16.438 0.00183244 14.9347 0.00183244 11.9608C0.00183244 9.6079 1.27893 8.03925 3.07996 7.25493C4.65177 6.56866 6.84576 6.43794 8.51581 6.24186V5.88238C8.51581 5.19611 8.5813 4.37911 8.1556 3.79087C7.79539 3.26799 7.14048 3.03923 6.55105 3.03923C5.43768 3.03923 4.4553 3.59479 4.22607 4.77127C4.16058 5.03271 3.99685 5.29414 3.73488 5.29414L0.951462 5.00002C0.722239 4.93466 0.460275 4.77127 0.525767 4.41179C1.18069 1.01308 4.22607 0 6.97674 0C8.38482 0 10.2186 0.359477 11.332 1.43791C12.7401 2.74511 12.6091 4.50983 12.6091 6.40526V10.8824C12.6091 12.2223 13.1658 12.8105 13.6897 13.5622C13.8862 13.8236 13.9189 14.1504 13.6897 14.3138C13.0675 14.804 12.0196 15.719 11.4302 16.2092Z" fill="#111212" />
</svg>