<svg viewBox="0 0 62 36" fill="none" xmlns="http://www.w3.org/2000/svg">
  <path d="M7.55065 0.44594C10.8053 0.44594 13.2228 2.09659 13.2228 4.53279C13.2228 6.43655 12.0003 7.34453 10.9227 7.7768C12.6915 8.31017 14.2995 9.32917 14.2995 11.5613C14.2995 14.8632 11.3398 15.9872 8.13719 15.9872H0V0.44594H7.55065ZM4.9849 6.38394H6.81771C7.54148 6.38394 8.1325 5.79422 8.1325 5.24307C8.1325 4.64998 7.56357 4.0655 6.81753 4.0655H4.9849V6.38394ZM4.9849 12.4088H7.25747C8.29444 12.4088 8.95736 11.7624 8.95736 10.9841C8.95736 10.2508 8.24858 9.60942 7.40406 9.60942H4.9849V12.4088ZM11.5826 17.6822C14.8373 17.6822 17.2548 19.3329 17.2548 21.7692C17.2548 23.6728 16.0323 24.5808 14.9547 25.0131C16.7233 25.5466 18.3315 26.5654 18.3315 28.7976C18.3315 32.0994 15.3716 33.2235 12.169 33.2235H4.03199V17.6824L11.5826 17.6822ZM9.0169 23.6202H10.8495C11.5733 23.6202 12.1645 23.0305 12.1645 22.4793C12.1645 21.8862 11.5954 21.3018 10.8495 21.3018H9.01671L9.0169 23.6202ZM9.0169 29.6453H11.2893C12.3264 29.6453 12.9892 28.9988 12.9892 28.2204C12.9892 27.4873 12.2804 26.8459 11.4359 26.8459H9.0169V29.6453ZM14.6907 15.9853V0.444068H27.2265V4.19749H19.661V6.23548H25.8042V9.75414H19.661V12.2467H27.2263V15.9853H14.6907ZM27.4678 13.8649L30.4312 11.0399C31.1473 11.6349 32.0674 12.336 33.2291 12.336C34.2522 12.336 34.8163 11.7463 34.8163 11.1599C34.8163 9.48717 28.0673 10.2609 28.0673 4.93024C28.0673 2.23457 30.5304 0 34.2954 0C36.8022 0 38.6633 0.942801 39.8416 2.0642L36.8958 4.86939C36.8958 4.86939 36.0455 4.09415 34.8689 4.09415C34.1861 4.09415 33.5204 4.43001 33.5204 5.06316C33.5204 6.70201 40.368 5.89195 40.368 11.1558C40.368 14.4174 37.5456 16.4301 34.0172 16.4301C30.5768 16.4301 28.6611 15.0273 27.468 13.8651L27.4678 13.8649ZM44.2044 15.9853V4.18289H40.099V0.444255H53.2943V4.18289H49.1891V15.9853H44.2044ZM18.5028 17.6713H23.4731V26.9814C23.4731 27.9268 24.414 28.7979 25.395 28.7979C26.3204 28.7979 27.2557 28.0113 27.2557 26.9316V17.6713H32.2112V26.8683C32.2112 30.5177 29.1814 33.4288 25.2637 33.4288C21.3235 33.4288 18.5028 30.2606 18.5028 26.6695V17.6713ZM38.3398 33.2126V27.6593L32.498 17.6715H37.5267L40.8321 23.0228L44.1492 17.6713H49.1893L43.3247 27.7164V33.2126H38.3398Z" fill="#111212" />
  <path d="M61.5937 26.1797V36.0027H49.1901L46.2578 33.0706V29.112L49.1901 26.1797H61.5937Z" fill="#111212" />
  <path d="M48.7101 31.0894C48.7101 31.2644 48.6406 31.4322 48.5169 31.5559C48.3931 31.6797 48.2253 31.7492 48.0504 31.7492C47.8754 31.7492 47.7076 31.6797 47.5839 31.5559C47.4601 31.4322 47.3906 31.2644 47.3906 31.0894C47.3906 30.9145 47.4601 30.7466 47.5839 30.6229C47.7076 30.4992 47.8754 30.4297 48.0504 30.4297C48.2253 30.4297 48.3931 30.4992 48.5169 30.6229C48.6406 30.7466 48.7101 30.9145 48.7101 31.0894Z" fill="#111212" />
</svg>