<svg width="30" height="38" viewBox="0 0 30 38" fill="none" xmlns="http://www.w3.org/2000/svg">
<path d="M9 9H21M21 29V23M15 29H15.02M9 29H9.02M9 23H9.02M15 23H15.02M21 17H21.02M15 17H15.02M9 17H9.02M5 37H25C26.0609 37 27.0783 36.5786 27.8284 35.8284C28.5786 35.0783 29 34.0609 29 33V5C29 3.93913 28.5786 2.92172 27.8284 2.17157C27.0783 1.42143 26.0609 1 25 1H5C3.93913 1 2.92172 1.42143 2.17157 2.17157C1.42143 2.92172 1 3.93913 1 5V33C1 34.0609 1.42143 35.0783 2.17157 35.8284C2.92172 36.5786 3.93913 37 5 37Z" stroke="#252422" stroke-width="2" stroke-linecap="round" stroke-linejoin="round"/>
</svg>
