<svg width="271" height="63" viewBox="0 0 271 63" fill="none" xmlns="http://www.w3.org/2000/svg">
<path d="M78.2573 6.20241C54.9444 9.23189 32.8529 12.5762 15.6774 21.8019C4.61343 27.7448 -0.927152 34.0713 2.4502 42.3522C5.51809 49.8744 19.5225 54.7832 32.4024 57.063C66.5502 63.1073 104.699 61.2614 140.045 60.2857C160.346 59.7253 180.604 57.7676 200.441 55.4486C216.934 53.5204 234.166 50.9762 248.311 45.8325C261.08 41.1891 277.936 31.8715 263.916 24.2429C247.301 15.2034 222.911 11.2586 200.392 8.79683C175.301 6.05387 149.74 3.49793 124.212 2.26164C94.2754 0.811879 64.9643 2.38377 35.2145 4.10762" stroke="#C4FF00" stroke-width="2" stroke-linecap="round"/>
</svg>
