<svg xmlns="http://www.w3.org/2000/svg"  viewBox="0 0 202 46" fill="none">
  <path d="M59.4272 5.01864C42.0584 7.04984 25.584 9.3064 12.5576 15.7024C4.1661 19.8225 -0.146426 24.2329 2.08268 30.0473C4.10753 35.329 14.3197 38.8227 23.7855 40.4702C48.8814 44.838 77.2011 43.694 103.416 43.1486C118.472 42.8353 133.542 41.5431 148.313 39.996C160.595 38.7096 173.442 36.9946 184.089 33.4464C193.701 30.2433 206.494 23.7817 196.359 18.3826C184.351 11.9851 166.413 9.12613 149.814 7.31355C131.318 5.29386 112.468 3.40338 93.5981 2.43752C71.4702 1.30487 49.7062 2.29152 27.6122 3.38291" stroke="#CEFC60" stroke-width="2.75979" stroke-linecap="round"/>
</svg>