<svg width="78" height="40" viewBox="0 0 78 40" fill="none" xmlns="http://www.w3.org/2000/svg">
<path d="M24.0099 4.10469C17.3523 5.24586 11.0213 6.60979 5.78866 11.6231C2.41789 14.8525 0.572878 18.4686 1.1287 23.5057C1.6336 28.0812 5.31758 31.4101 8.81049 33.1383C18.071 37.7203 28.8197 37.7094 38.7441 38.1374C44.4441 38.3832 50.1976 37.7942 55.8505 36.9776C60.5506 36.2985 65.4858 35.2731 69.6801 32.6085C73.4666 30.2031 78.6143 25.1258 75.0534 20.1738C70.8335 14.306 64.2016 11.2553 58.0233 9.14306C51.1393 6.7895 44.1152 4.53409 37.0383 3.06692C28.7394 1.34641 20.4737 1.44654 12.0783 1.62479" stroke="#C4FF00" stroke-width="2" stroke-linecap="round"/>
</svg>
