<svg width="137" height="56" viewBox="0 0 137 56" fill="none" xmlns="http://www.w3.org/2000/svg">
  <path d="M40.098 5.51154C28.5262 7.86943 17.5574 10.5174 8.98308 18.3631C3.45968 23.4171 0.670217 28.8744 2.28548 36.149C3.75274 42.757 10.6569 47.2176 17.0223 49.368C33.8986 55.0694 52.8127 53.9288 70.3319 53.5134C80.3939 53.2749 90.4444 51.8154 100.289 50.0351C108.474 48.5548 117.03 46.5456 124.074 42.2278C130.433 38.3299 138.85 30.3999 131.957 23.5635C123.789 15.4628 111.732 11.7158 100.592 9.28725C88.1799 6.58131 75.5336 4.03293 62.8941 2.63757C48.072 1.00126 33.5386 2.0119 18.7869 3.14984" stroke="#9982FF" stroke-width="3.66078" stroke-linecap="round" />
</svg>