<svg width="96" height="48" viewBox="0 0 96 48" fill="none" xmlns="http://www.w3.org/2000/svg">
<path d="M29.9223 4.45587C21.6782 5.86897 13.8386 7.55791 7.35897 13.7658C3.18497 17.7648 0.900302 22.2426 1.58857 28.48C2.21379 34.1458 6.77565 38.268 11.1009 40.408C22.5682 46.0819 35.8781 46.0683 48.1675 46.5983C55.2258 46.9028 62.3503 46.1734 69.3503 45.1622C75.1704 44.3213 81.2816 43.0515 86.4754 39.752C91.1642 36.7734 97.5385 30.4862 93.1292 24.3542C87.9037 17.088 79.6914 13.3105 72.0409 10.6949C63.5164 7.78044 54.8185 4.98758 46.0553 3.1708C35.7788 1.0403 25.5434 1.16429 15.1474 1.38501" stroke="#C4FF00" stroke-width="2" stroke-linecap="round"/>
</svg>
