<svg width="91" height="37" viewBox="0 0 91 37" fill="none" xmlns="http://www.w3.org/2000/svg">
<path d="M28.4721 4.13599C20.7124 5.04983 13.3387 6.17248 7.3169 10.6362C3.43778 13.5117 1.34908 16.7674 2.09289 21.361C2.76854 25.5337 7.13637 28.6316 11.2509 30.2694C22.1597 34.6118 34.7217 34.8028 46.3287 35.3778C52.9951 35.7081 59.7084 35.2797 66.2998 34.6424C71.7802 34.1125 77.5289 33.2717 82.3812 30.9257C86.7616 28.8078 92.6828 24.2842 88.4286 19.7118C83.3869 14.2937 75.5789 11.3939 68.3187 9.35645C60.2291 7.08621 51.9777 4.90266 43.6793 3.43535C33.9479 1.71467 24.2894 1.6512 14.4808 1.65639" stroke="#CCB3F8" stroke-width="2" stroke-linecap="round"/>
</svg>
