<svg width="100" height="42" viewBox="0 0 100 42" fill="none" xmlns="http://www.w3.org/2000/svg">
  <path d="M29.2119 3.79817C20.6809 5.56659 12.5944 7.55259 6.27318 13.4368C2.20119 17.2274 0.144717 21.3203 1.33553 26.7763C2.41724 31.7323 7.50716 35.0778 12.1999 36.6906C24.6416 40.9666 38.5855 40.1111 51.5012 39.7996C58.9191 39.6207 66.3286 38.5261 73.5864 37.1908C79.6208 36.0806 85.928 34.5737 91.1211 31.3353C95.8093 28.4119 102.014 22.4644 96.9328 17.3372C90.9108 11.2616 82.0222 8.45134 73.8097 6.62995C64.6591 4.6005 55.336 2.68921 46.0178 1.64269C35.0906 0.415466 24.3762 1.17345 13.5008 2.0269" stroke="#9982FF" stroke-width="2" stroke-linecap="round" />
</svg>