<svg width="77" height="31" viewBox="0 0 77 31" fill="none" xmlns="http://www.w3.org/2000/svg">
<path d="M24.1587 3.4866C17.6174 4.25697 11.4014 5.20335 6.32506 8.96623C3.055 11.3902 1.29425 14.1348 1.92126 18.0072C2.49083 21.5247 6.17288 24.1362 9.64143 25.5168C18.8374 29.1774 29.4271 29.3384 39.2117 29.8232C44.8313 30.1016 50.4906 29.7405 56.0471 29.2032C60.6671 28.7565 65.5132 28.0477 69.6036 26.07C73.2962 24.2847 78.2878 20.4714 74.7015 16.6169C70.4514 12.0495 63.8693 9.60499 57.749 7.88741C50.9296 5.97361 43.9737 4.1329 36.9783 2.89597C28.7748 1.44545 20.6327 1.39195 12.3641 1.39633" stroke="#CCB3F8" stroke-width="2" stroke-linecap="round"/>
</svg>
