<svg width="14" height="20" viewBox="0 0 14 20" fill="none" xmlns="http://www.w3.org/2000/svg">
<path fill-rule="evenodd" clip-rule="evenodd" d="M1.95845 0.858398C1.9244 0.858398 1.89044 0.858823 1.8566 0.859669H12.4912C12.4574 0.858823 12.4234 0.858398 12.3894 0.858398H1.95845ZM12.4189 19.5249H1.9289C1.93874 19.525 1.94859 19.525 1.95844 19.525H12.3894C12.3993 19.525 12.4091 19.525 12.4189 19.5249ZM10.9316 16.7636H13.6625L13.6636 11.8772C13.6636 9.47836 13.1533 7.63442 10.3854 7.63442C9.86611 7.6149 9.35127 7.7384 8.89576 7.99178C8.44025 8.24516 8.06112 8.61893 7.79876 9.07327H7.76206V7.85598H5.14041V16.7633H7.8713V12.3569C7.8713 11.1949 8.08892 10.0696 9.51126 10.0696C10.9134 10.0696 10.9316 11.3992 10.9316 12.4321V16.7636ZM1.17855 6.36806C1.4392 6.54438 1.74561 6.63846 2.05905 6.63841C2.26717 6.63837 2.47324 6.59681 2.66549 6.51612C2.85775 6.43542 3.03244 6.31716 3.17957 6.16808C3.3267 6.01901 3.4434 5.84204 3.52301 5.64729C3.60262 5.45254 3.64357 5.24381 3.64354 5.03303C3.64348 4.71557 3.55048 4.40526 3.3763 4.14133C3.20211 3.87741 2.95457 3.67172 2.66497 3.55029C2.37537 3.42886 2.05672 3.39713 1.74931 3.45912C1.44191 3.52111 1.15956 3.67403 0.937968 3.89855C0.716373 4.12306 0.565489 4.40909 0.504395 4.72046C0.443302 5.03183 0.474743 5.35455 0.594743 5.64782C0.714742 5.94109 0.917911 6.19174 1.17855 6.36806ZM0.690765 16.7636H3.4245V7.85598H0.690765V16.7636Z" fill="white"/>
</svg>
