<svg width="15" height="17" viewBox="0 0 15 17" fill="none" xmlns="http://www.w3.org/2000/svg">
<path d="M7.14316 4.59678C5.15566 4.59678 3.55254 6.1999 3.55254 8.1874C3.55254 10.1749 5.15566 11.778 7.14316 11.778C9.13066 11.778 10.7338 10.1749 10.7338 8.1874C10.7338 6.1999 9.13066 4.59678 7.14316 4.59678ZM7.14316 10.5218C5.85879 10.5218 4.80879 9.4749 4.80879 8.1874C4.80879 6.8999 5.85566 5.85303 7.14316 5.85303C8.43066 5.85303 9.47754 6.8999 9.47754 8.1874C9.47754 9.4749 8.42754 10.5218 7.14316 10.5218ZM11.7182 4.4499C11.7182 4.91553 11.3432 5.2874 10.8807 5.2874C10.415 5.2874 10.0432 4.9124 10.0432 4.4499C10.0432 3.9874 10.4182 3.6124 10.8807 3.6124C11.3432 3.6124 11.7182 3.9874 11.7182 4.4499ZM14.0963 5.2999C14.0432 4.17803 13.7869 3.18428 12.965 2.36553C12.1463 1.54678 11.1525 1.29053 10.0307 1.23428C8.87441 1.16865 5.40879 1.16865 4.25254 1.23428C3.13379 1.2874 2.14004 1.54365 1.31816 2.3624C0.496289 3.18115 0.243164 4.1749 0.186914 5.29678C0.121289 6.45303 0.121289 9.91865 0.186914 11.0749C0.240039 12.1968 0.496289 13.1905 1.31816 14.0093C2.14004 14.828 3.13066 15.0843 4.25254 15.1405C5.40879 15.2062 8.87441 15.2062 10.0307 15.1405C11.1525 15.0874 12.1463 14.8312 12.965 14.0093C13.7838 13.1905 14.04 12.1968 14.0963 11.0749C14.1619 9.91865 14.1619 6.45615 14.0963 5.2999ZM12.6025 12.3155C12.3588 12.928 11.8869 13.3999 11.2713 13.6468C10.3494 14.0124 8.16191 13.928 7.14316 13.928C6.12441 13.928 3.93379 14.0093 3.01504 13.6468C2.40254 13.403 1.93066 12.9312 1.68379 12.3155C1.31816 11.3937 1.40254 9.20615 1.40254 8.1874C1.40254 7.16865 1.32129 4.97803 1.68379 4.05928C1.92754 3.44678 2.39941 2.9749 3.01504 2.72803C3.93691 2.3624 6.12441 2.44678 7.14316 2.44678C8.16191 2.44678 10.3525 2.36553 11.2713 2.72803C11.8838 2.97178 12.3557 3.44365 12.6025 4.05928C12.9682 4.98115 12.8838 7.16865 12.8838 8.1874C12.8838 9.20615 12.9682 11.3968 12.6025 12.3155Z" fill="white"/>
</svg>
