<svg width="324" height="63" viewBox="0 0 324 63" fill="none" xmlns="http://www.w3.org/2000/svg">
<g clip-path="url(#clip0_138_1965)">
<path d="M92.6768 35.8075C92.6768 35.4968 92.8582 35.3413 93.2205 35.3413H96.5614C96.8723 35.3413 97.0879 35.5141 97.2088 35.8594C98.6935 40.2791 102.474 42.489 108.552 42.489C111.728 42.489 114.154 41.9278 115.829 40.8056C117.521 39.6662 118.367 38.259 118.367 36.5845C118.367 34.9098 117.832 33.5632 116.761 32.5444C115.708 31.5086 114.051 30.6712 111.789 30.0325L102.492 27.3909C96.4842 25.6645 93.48 22.3928 93.48 17.5761C93.48 14.6066 94.7403 12.1894 97.261 10.3247C99.799 8.44288 103.191 7.50195 107.438 7.50195C111.686 7.50195 115.113 8.41699 117.719 10.247C120.344 12.0598 121.992 14.5546 122.666 17.7312C122.735 18.1628 122.554 18.3786 122.122 18.3786H118.781C118.47 18.3786 118.254 18.1973 118.134 17.8348C116.649 13.415 113.118 11.2051 107.542 11.2051C104.607 11.2051 102.319 11.7748 100.678 12.9143C99.0555 14.0365 98.244 15.4522 98.244 17.1614C98.244 18.8534 98.7708 20.1914 99.8237 21.1755C100.894 22.1596 102.578 22.9883 104.874 23.6616L114.171 26.3291C120.144 28.021 123.131 31.2925 123.131 36.1439C123.131 39.1481 121.828 41.5824 119.221 43.4472C116.631 45.2945 113.075 46.218 108.551 46.218C104.028 46.218 100.419 45.3117 97.7264 43.4989C96.3797 42.6012 95.197 41.4616 94.1785 40.0805C93.1769 38.6819 92.6768 37.2577 92.6768 35.8075Z" fill="#FF6600"/>
<path d="M131.133 44.8983V8.82364C131.133 8.46107 131.305 8.27979 131.651 8.27979H135.38C135.725 8.27979 135.898 8.46107 135.898 8.82364V20.2184C136.036 20.0112 136.459 19.6141 137.167 19.0271C137.875 18.4402 138.557 17.9654 139.213 17.6028C140.887 16.705 142.786 16.2561 144.91 16.2561C148.484 16.2561 151.41 17.361 153.689 19.5709C155.968 21.7808 157.107 24.8281 157.107 28.7128V44.8986C157.107 45.244 156.935 45.4165 156.589 45.4165H152.86C152.515 45.4165 152.342 45.244 152.342 44.8986V28.7128C152.342 25.9159 151.617 23.7579 150.167 22.2387C148.717 20.7194 146.878 19.9598 144.651 19.9598C143.097 19.9598 141.586 20.3914 140.119 21.2546C138.651 22.1179 137.581 22.9293 136.908 23.689C136.234 24.4486 135.897 24.8889 135.897 25.0097V44.8986C135.897 45.244 135.725 45.4168 135.38 45.4168H131.651C131.305 45.4168 131.133 45.2437 131.133 44.8983Z" fill="#FF6600"/>
<path d="M178.834 46.2178C174.708 46.2178 171.376 44.9228 168.838 42.3332C166.317 39.7263 165.057 36.0145 165.057 31.1978C165.057 26.3635 166.317 22.6687 168.838 20.1135C171.376 17.5411 174.708 16.2549 178.834 16.2549C182.978 16.2549 186.31 17.5411 188.831 20.1135C191.369 22.6687 192.637 26.3634 192.637 31.1978C192.637 36.0148 191.369 39.7266 188.831 42.3332C186.31 44.9228 182.978 46.2178 178.834 46.2178ZM178.834 19.9578C176.158 19.9578 173.983 20.8987 172.308 22.7806C170.651 24.6452 169.822 27.442 169.822 31.1711C169.822 34.9004 170.651 37.7232 172.308 39.6394C173.983 41.5386 176.158 42.4879 178.834 42.4879C181.528 42.4879 183.703 41.5386 185.36 39.6394C187.035 37.7229 187.872 34.9001 187.872 31.1711C187.872 27.4419 187.035 24.645 185.36 22.7806C183.703 20.8987 181.527 19.9578 178.834 19.9578Z" fill="#FF6600"/>
<path d="M212.806 46.2178C208.68 46.2178 205.347 44.9228 202.809 42.3332C200.289 39.7263 199.029 36.0145 199.029 31.1978C199.029 26.3635 200.289 22.6687 202.809 20.1135C205.347 17.5411 208.68 16.2549 212.806 16.2549C216.95 16.2549 220.282 17.5411 222.802 20.1135C225.34 22.6687 226.609 26.3634 226.609 31.1978C226.609 36.0148 225.34 39.7266 222.802 42.3332C220.282 44.9228 216.95 46.2178 212.806 46.2178ZM212.806 19.9578C210.13 19.9578 207.955 20.8987 206.28 22.7806C204.623 24.6452 203.794 27.442 203.794 31.1711C203.794 34.9004 204.623 37.7232 206.28 39.6394C207.955 41.5386 210.13 42.4879 212.806 42.4879C215.499 42.4879 217.675 41.5386 219.332 39.6394C221.007 37.7229 221.844 34.9001 221.844 31.1711C221.844 27.4419 221.007 24.645 219.332 22.7806C217.674 20.8987 215.499 19.9578 212.806 19.9578Z" fill="#FF6600"/>
<path d="M235.135 34.5347V8.81873C235.135 8.45619 235.308 8.2749 235.653 8.2749H239.382C239.728 8.2749 239.9 8.45619 239.9 8.81873V17.0336H250.725C251.071 17.0336 251.243 17.2149 251.243 17.5775V20.219C251.243 20.5815 251.071 20.7628 250.725 20.7628H239.9V34.5401C239.9 37.1645 240.505 39.1499 241.713 40.4962C242.939 41.8256 244.631 42.4902 246.789 42.4902C248.688 42.4902 250.389 42.2313 251.891 41.7134L252.642 41.4283C252.987 41.2903 253.16 41.4372 253.16 41.8687V44.4584C253.16 44.752 252.987 44.9851 252.642 45.1577C250.864 45.8656 248.74 46.2195 246.271 46.2195C242.87 46.2195 240.159 45.149 238.139 43.0081C236.136 40.8674 235.135 38.0447 235.135 34.5398L235.135 34.5347Z" fill="#FF6600"/>
<path d="M259.549 9.33668C259.549 8.62883 259.903 8.2749 260.611 8.2749H264.055C264.452 8.2749 264.729 8.36122 264.884 8.53387C265.039 8.68926 265.117 8.95686 265.117 9.33668V12.781C265.117 13.178 265.039 13.4543 264.884 13.6097C264.729 13.765 264.452 13.8427 264.055 13.8427H260.611C260.231 13.8427 259.955 13.765 259.782 13.6097C259.627 13.4543 259.549 13.178 259.549 12.781V9.33668ZM259.937 44.8936V17.5722C259.937 17.2096 260.11 17.0284 260.456 17.0284H264.159C264.521 17.0284 264.703 17.2096 264.703 17.5722V44.8936C264.703 45.2387 264.521 45.4115 264.159 45.4115H260.456C260.11 45.4115 259.937 45.2387 259.937 44.8936Z" fill="#FF6600"/>
<path d="M274.675 44.8975V19.1556C274.675 15.6163 275.736 12.7936 277.859 10.6873C279.983 8.56373 282.987 7.50195 286.871 7.50195C289.703 7.50195 292.007 7.92495 293.786 8.77091C294.131 8.94356 294.305 9.16799 294.305 9.44423V12.0599C294.305 12.4915 294.131 12.6296 293.786 12.4742C292.026 11.6283 289.902 11.2053 287.415 11.2053C282.115 11.2053 279.464 13.8554 279.464 19.1555V21.0202H290.265C290.61 21.0202 290.79 21.1928 290.809 21.5381V24.2055C290.809 24.5508 290.626 24.7235 290.265 24.7235H279.464V44.8972C279.464 45.2423 279.283 45.4151 278.92 45.4151H275.219C274.856 45.4151 274.675 45.2428 274.675 44.8975Z" fill="#FF6600"/>
<path d="M295.476 17.5771C295.441 17.508 295.425 17.4389 295.425 17.3699C295.425 17.1454 295.579 17.0332 295.891 17.0332H299.463C299.877 17.0332 300.138 17.2145 300.241 17.5771L306.146 34.5395C306.921 36.7321 307.812 38.3032 308.814 39.2528C309.815 40.185 311.188 40.6511 312.932 40.6511L319.018 17.5771C319.12 17.2145 319.389 17.0332 319.82 17.0332H323.367C323.696 17.0332 323.86 17.1454 323.86 17.3699C323.86 17.4389 323.841 17.508 323.809 17.5771L316.738 44.3543C315.753 48.0664 314.442 50.7597 312.803 52.4345C311.179 54.1262 309.045 54.9722 306.404 54.9722C304.558 54.9722 302.857 54.7046 301.304 54.1695L300.577 53.9106C300.216 53.7205 300.033 53.4874 300.033 53.2113V50.6216C300.033 50.1899 300.216 50.0432 300.577 50.1813C302.34 50.8892 304.065 51.2431 305.758 51.2431C307.468 51.2431 308.77 50.7511 309.667 49.767C310.566 48.7829 311.333 46.9787 311.974 44.3543C309.209 44.3543 307.069 43.6292 305.551 42.1792C304.03 40.7289 302.633 38.1649 301.355 34.4875L295.476 17.5771Z" fill="#FF6600"/>
<path d="M68.9718 1.10541C68.8628 1.1001 68.7516 1.11012 68.6889 1.13075C68.6319 1.14943 68.5366 1.19316 68.4771 1.22806C68.4176 1.26271 68.3328 1.33275 68.2884 1.38337C68.244 1.43375 68.1788 1.53647 68.1436 1.61142C68.0887 1.7284 68.0798 1.78122 68.0798 1.98125C68.0798 2.18915 68.0873 2.22946 68.149 2.34987C68.1875 2.42408 68.2426 2.5118 68.272 2.54424C68.3013 2.57695 70.3141 4.26048 72.7442 6.28561L77.1631 9.96775L46.9908 9.96802C27.6097 9.96802 16.6952 9.97685 16.4742 9.99211C16.285 10.0054 15.9863 10.0339 15.8107 10.0555C15.6349 10.0769 15.2757 10.1373 15.012 10.1897C14.7486 10.242 14.3582 10.3352 14.1446 10.3968C13.931 10.4585 13.6175 10.5593 13.4479 10.6207C13.2783 10.6822 13.0218 10.7827 12.8778 10.8441C12.7338 10.9053 12.4448 11.0409 12.2352 11.1456C12.0259 11.25 11.701 11.4277 11.5134 11.5403C11.3257 11.6531 11.0382 11.8393 10.8745 11.9541C10.7106 12.0691 10.4725 12.2458 10.3454 12.3468C10.2181 12.4478 10.0247 12.609 9.91537 12.7051C9.80577 12.8012 9.62343 12.9683 9.5099 13.0764C9.39636 13.1845 9.19094 13.3961 9.05334 13.5465C8.91547 13.6969 8.69777 13.9512 8.56924 14.1117C8.44072 14.2722 8.24167 14.5376 8.12692 14.7015C8.01215 14.8651 7.82613 15.1526 7.71335 15.3404C7.60054 15.5279 7.42262 15.8525 7.31794 16.0621C7.21299 16.2715 7.0776 16.5607 7.01642 16.7047C6.95548 16.8487 6.85546 17.1048 6.79452 17.2734C6.73334 17.4422 6.63331 17.7526 6.57211 17.9632C6.51117 18.174 6.42245 18.5345 6.37502 18.7645C6.32784 18.9945 6.2669 19.3513 6.23987 19.5575C6.21312 19.7636 6.17969 20.0927 6.16615 20.2888C6.15242 20.4846 6.14136 20.8164 6.14136 21.026C6.14136 21.2354 6.15242 21.5671 6.16615 21.7632C6.17966 21.9591 6.21312 22.2884 6.23987 22.4945C6.26693 22.7007 6.32786 23.0575 6.37502 23.2875C6.42248 23.5175 6.51117 23.878 6.57211 24.0889C6.63331 24.2995 6.73334 24.6098 6.79452 24.7786C6.85546 24.9472 6.95352 25.1976 7.01225 25.335C7.07101 25.4721 7.18032 25.7114 7.25528 25.867C7.33021 26.0223 7.45777 26.2678 7.53887 26.4125C7.6197 26.557 7.76912 26.8067 7.87086 26.9672C7.97258 27.1279 8.16991 27.4132 8.30974 27.6012C8.44933 27.7895 8.66754 28.0652 8.79432 28.2138C8.92112 28.3626 9.1858 28.6452 9.38288 28.8423C9.57972 29.0393 9.86208 29.3036 10.0103 29.4301C10.1584 29.5564 10.4238 29.7668 10.6 29.8982C10.7762 30.0293 11.031 30.2083 11.1662 30.296C11.3014 30.3835 11.5225 30.5192 11.6577 30.5972C11.7928 30.6756 12.0639 30.8196 12.2597 30.9175C12.4558 31.0155 12.7323 31.1455 12.8741 31.2061C13.0161 31.2664 13.2754 31.3679 13.4506 31.4314C13.6255 31.4946 13.9408 31.5961 14.1509 31.6564C14.361 31.717 14.7153 31.8036 14.9382 31.8491C15.1613 31.8949 15.5152 31.9552 15.7246 31.9832C15.9342 32.0114 16.266 32.0456 16.4618 32.0593C16.6962 32.0755 24.9608 32.0838 40.6329 32.0841C56.4892 32.0844 64.5537 32.0927 64.7642 32.1091C64.9386 32.1229 65.2086 32.1509 65.3636 32.1719C65.5192 32.1923 65.8086 32.2421 66.0067 32.2822C66.205 32.3226 66.52 32.4004 66.707 32.4547C66.8938 32.5097 67.1964 32.6095 67.3789 32.6773C67.5614 32.7452 67.9011 32.8929 68.1339 33.006C68.367 33.1188 68.6655 33.2746 68.7974 33.3519C68.9293 33.4294 69.1371 33.5594 69.2587 33.6407C69.3804 33.722 69.585 33.8681 69.7134 33.965C69.8418 34.0625 70.0689 34.2471 70.218 34.3758C70.3672 34.5042 70.6205 34.7464 70.7806 34.9133C70.9408 35.0805 71.1873 35.3612 71.3281 35.537C71.4691 35.7127 71.6594 35.9671 71.751 36.1022C71.8427 36.2373 71.9875 36.4637 72.0731 36.6058C72.1587 36.7477 72.3254 37.0629 72.4435 37.3062C72.5617 37.5495 72.7148 37.8997 72.7835 38.0844C72.8518 38.2696 72.9471 38.557 72.9953 38.7234C73.0432 38.89 73.1148 39.1702 73.1539 39.346C73.1934 39.5214 73.2472 39.8202 73.2747 40.0094C73.3016 40.1987 73.3369 40.5246 73.3528 40.7343C73.37 40.9626 73.3756 41.3171 73.367 41.6191C73.359 41.896 73.3353 42.2664 73.3145 42.4422C73.2933 42.6179 73.2537 42.8887 73.2263 43.0443C73.1988 43.1996 73.131 43.5038 73.0761 43.7202C73.0209 43.9363 72.9259 44.2572 72.865 44.4327C72.8039 44.6084 72.7049 44.8671 72.6451 45.0076C72.5851 45.1481 72.4605 45.4135 72.3682 45.5973C72.2756 45.7815 72.1262 46.0528 72.036 46.2014C71.9458 46.3494 71.7986 46.576 71.7087 46.705C71.6191 46.8339 71.4347 47.0775 71.2996 47.2465C71.1642 47.4153 70.8875 47.7205 70.6845 47.9243C70.4816 48.1281 70.2084 48.384 70.0773 48.4928C69.9462 48.6018 69.7228 48.7759 69.5804 48.8796C69.4377 48.9832 69.1801 49.1573 69.0073 49.2655C68.8348 49.3743 68.4722 49.5721 68.202 49.7051C67.9317 49.8381 67.5595 50.0025 67.3746 50.0709C67.1897 50.1395 66.9022 50.2345 66.7358 50.2827C66.5692 50.3306 66.289 50.4022 66.1133 50.4413C65.9375 50.4806 65.639 50.5347 65.4498 50.5616C65.2605 50.5888 64.9569 50.6224 64.7752 50.6364C64.5478 50.6542 55.0564 50.6623 34.2846 50.6623H4.12398L6.63741 48.5684C8.01968 47.4166 10.0021 45.765 11.0428 44.8981C12.0835 44.0311 12.9648 43.2898 13.0011 43.2505C13.0375 43.2115 13.097 43.1146 13.1334 43.0354C13.1724 42.9501 13.2041 42.8292 13.2115 42.7388C13.2196 42.6365 13.2103 42.5383 13.1823 42.4406C13.1596 42.3603 13.1017 42.2368 13.0535 42.1657C13.0014 42.089 12.908 41.9983 12.823 41.9415C12.7441 41.8888 12.6225 41.832 12.5527 41.8153C12.4827 41.7983 12.3575 41.7903 12.2742 41.797C12.1789 41.8045 12.0752 41.8333 11.9934 41.8748C11.9143 41.9149 9.76868 43.6863 6.48939 46.4191C3.5336 48.8825 1.0831 50.9363 1.04421 50.9826C1.00514 51.0294 0.95132 51.1171 0.924288 51.178C0.895766 51.2426 0.870247 51.3672 0.86334 51.4768C0.854501 51.613 0.862755 51.7015 0.892573 51.7963C0.915203 51.8687 0.970475 51.9782 1.01496 52.0396C1.06681 52.1109 3.01034 53.7461 6.40132 56.5713C9.31919 59.0024 11.7594 61.04 11.824 61.0997C11.8886 61.1592 12.0009 61.2351 12.0734 61.2682C12.1461 61.3016 12.2764 61.3355 12.3629 61.3436C12.4752 61.3538 12.5614 61.3466 12.6632 61.3164C12.7416 61.2938 12.846 61.2497 12.8952 61.2187C12.9443 61.1877 13.0264 61.1191 13.0775 61.0666C13.1289 61.0139 13.2006 60.91 13.2372 60.8357C13.2955 60.7175 13.3038 60.6715 13.3038 60.4672C13.3038 60.2656 13.295 60.2147 13.2382 60.0939C13.2023 60.0169 13.1249 59.9087 13.0662 59.8532C13.0077 59.798 10.9814 58.1082 8.56284 56.0981L4.16627 52.4439L34.5497 52.4301C58.3831 52.4196 64.9838 52.41 65.1669 52.3863C65.2955 52.3696 65.5467 52.3346 65.7254 52.3082C65.9041 52.2818 66.1862 52.2326 66.352 52.1981C66.5181 52.1639 66.7811 52.102 66.9364 52.0606C67.0919 52.0191 67.3407 51.9464 67.4892 51.8988C67.6378 51.8514 67.9422 51.7405 68.1651 51.6525C68.3883 51.5648 68.7662 51.3952 69.0055 51.2757C69.2445 51.1562 69.5817 50.9731 69.7548 50.8692C69.9282 50.7648 70.136 50.6351 70.217 50.5807C70.298 50.5261 70.4861 50.3923 70.6347 50.283C70.7836 50.174 71.0377 49.9748 71.2 49.8405C71.3623 49.7059 71.6777 49.4131 71.9014 49.1894C72.1246 48.9654 72.4233 48.6427 72.5649 48.4723C72.7062 48.3017 72.9197 48.0282 73.0389 47.8645C73.1582 47.7006 73.3549 47.4088 73.4755 47.2161C73.5964 47.0234 73.8149 46.6277 73.9611 46.3373C74.1072 46.0466 74.2943 45.6369 74.3767 45.4267C74.459 45.2167 74.5756 44.8849 74.6361 44.6894C74.6967 44.494 74.7802 44.1961 74.8219 44.0273C74.8636 43.8583 74.9247 43.5708 74.9578 43.3883C74.9909 43.2058 75.0353 42.924 75.0558 42.7617C75.0768 42.5994 75.105 42.3062 75.1188 42.1106C75.1322 41.9143 75.1435 41.5827 75.1435 41.3733C75.1435 41.1636 75.1322 40.832 75.1188 40.6361C75.105 40.4398 75.0768 40.147 75.0558 39.985C75.0353 39.8226 74.9909 39.5406 74.9578 39.3583C74.9247 39.1756 74.8636 38.8881 74.8219 38.7193C74.7802 38.5503 74.6967 38.2523 74.6361 38.0569C74.5756 37.8618 74.4588 37.5299 74.3764 37.3199C74.294 37.1097 74.1072 36.6998 73.9613 36.4093C73.8155 36.1186 73.5972 35.7232 73.476 35.5305C73.3552 35.3378 73.1582 35.046 73.0389 34.8821C72.9197 34.7184 72.7062 34.445 72.5646 34.2743C72.4231 34.1039 72.1246 33.7809 71.9011 33.557C71.6777 33.3333 71.3679 33.0445 71.2124 32.9153C71.057 32.7864 70.7916 32.5791 70.6223 32.4542C70.4536 32.3296 70.1847 32.1449 70.0253 32.0437C69.8657 31.9428 69.617 31.7939 69.4725 31.7127C69.3276 31.6316 69.0714 31.4984 68.9024 31.4166C68.7336 31.3345 68.4512 31.209 68.2757 31.1374C68.1 31.0658 67.8235 30.9617 67.6615 30.9057C67.4997 30.85 67.2117 30.7617 67.022 30.7097C66.8322 30.6575 66.5111 30.5811 66.3089 30.5396C66.1068 30.4982 65.7698 30.4422 65.5601 30.4155C65.3507 30.3889 65.1297 30.3593 65.0686 30.3499C65.0081 30.3402 54.0433 30.3259 40.7039 30.3173L16.4493 30.3019L16.1298 30.2589C15.9541 30.2355 15.7165 30.1991 15.6014 30.1787C15.4867 30.1582 15.2707 30.1146 15.1218 30.0818C14.9729 30.0492 14.7151 29.983 14.5487 29.9353C14.3823 29.8874 14.095 29.7919 13.91 29.7227C13.7252 29.6538 13.405 29.516 13.1984 29.4169C12.9917 29.3176 12.7209 29.1787 12.5963 29.1085C12.472 29.0379 12.2152 28.8781 12.026 28.7534C11.8367 28.6285 11.5326 28.4067 11.3502 28.2606C11.1678 28.1144 10.841 27.8175 10.6242 27.6006C10.4072 27.3839 10.1107 27.057 9.96492 26.8747C9.8192 26.6921 9.61401 26.4156 9.50906 26.2603C9.4039 26.1048 9.25473 25.8696 9.17732 25.7377C9.10017 25.6057 8.94435 25.3071 8.83157 25.0742C8.71852 24.8412 8.5701 24.4996 8.50155 24.3148C8.43272 24.1298 8.33738 23.8423 8.28923 23.6759C8.24132 23.5093 8.16977 23.2292 8.13072 23.0535C8.09142 22.8778 8.03734 22.5792 8.01029 22.39C7.98324 22.2008 7.94959 21.8973 7.9356 21.7155C7.92133 21.5336 7.90978 21.2235 7.90978 21.0262C7.90978 20.8289 7.92133 20.5188 7.9356 20.3369C7.94962 20.155 7.98327 19.8516 8.01029 19.6624C8.03734 19.4731 8.09139 19.1745 8.13072 18.9989C8.16977 18.8231 8.24129 18.543 8.28923 18.3764C8.33738 18.2101 8.43272 17.9226 8.50155 17.7375C8.5701 17.5527 8.71852 17.2111 8.83157 16.9782C8.94435 16.7452 9.10017 16.4467 9.17756 16.3147C9.25497 16.1828 9.38498 15.9751 9.46608 15.8535C9.54742 15.7318 9.68034 15.5438 9.76168 15.4357C9.84302 15.3276 9.99243 15.1396 10.0937 15.0179C10.1949 14.8963 10.4444 14.6306 10.648 14.4277C10.8518 14.2245 11.1678 13.9392 11.3502 13.7932C11.5325 13.6472 11.7925 13.4528 11.9276 13.3612C12.0628 13.2695 12.2896 13.1245 12.4314 13.039C12.5734 12.9535 12.8885 12.7869 13.1318 12.669C13.375 12.551 13.7252 12.3981 13.91 12.3293C14.0951 12.2605 14.3823 12.1649 14.5487 12.117C14.7151 12.0693 14.9729 12.0032 15.1218 11.9705C15.2707 11.9378 15.4867 11.8941 15.6015 11.8732C15.7165 11.8526 15.9487 11.8167 16.1175 11.7936L16.4247 11.7514L46.7734 11.7442L77.1219 11.7371L77.0611 11.7956C77.0277 11.8277 75.0816 13.4501 72.7364 15.4006C70.3917 17.3512 68.4101 18.9948 68.3336 19.0529C68.2574 19.1109 68.1603 19.2109 68.118 19.2748C68.0755 19.3387 68.0233 19.4513 68.002 19.5248C67.9756 19.6152 67.9667 19.7162 67.9745 19.8366C67.9826 19.9619 68.0055 20.0543 68.0513 20.1482C68.0871 20.2214 68.156 20.3222 68.2047 20.3723C68.2534 20.4225 68.3347 20.4895 68.3853 20.5215C68.4359 20.5536 68.5366 20.5972 68.6087 20.6188C68.6808 20.6402 68.7815 20.6576 68.8324 20.6576C68.8835 20.6576 68.9799 20.6458 69.0466 20.6316C69.1134 20.6173 69.2235 20.5701 69.2913 20.5271C69.3589 20.4841 71.8371 18.428 74.7979 15.958C78.3983 12.9548 80.2095 11.4286 80.2666 11.3503C80.3131 11.286 80.3702 11.1741 80.3928 11.1019C80.423 11.007 80.431 10.9186 80.4222 10.7824C80.4149 10.6694 80.3899 10.5482 80.3589 10.4784C80.3306 10.4146 80.2639 10.3148 80.2101 10.2563C80.1562 10.1981 77.7181 8.15451 74.7915 5.71543C70.9914 2.54811 69.4254 1.25676 69.3112 1.19713C69.1812 1.1293 69.118 1.11228 68.9718 1.10541Z" fill="#FF6600"/>
</g>
<defs>
<clipPath id="clip0_138_1965">
<rect width="323" height="61.9083" fill="white" transform="translate(0.859985 0.741211)"/>
</clipPath>
</defs>
</svg>
