<svg width="120" height="24" viewBox="0 0 120 24" fill="none" xmlns="http://www.w3.org/2000/svg">
<g clip-path="url(#clip0_138_981)">
<path d="M34.1115 13.9177C34.1115 13.8023 34.1789 13.7445 34.3135 13.7445H35.5547C35.6702 13.7445 35.7503 13.8087 35.7952 13.937C36.3468 15.579 37.7515 16.4 40.0093 16.4C41.1895 16.4 42.0907 16.1915 42.713 15.7746C43.3416 15.3513 43.6558 14.8285 43.6558 14.2064C43.6558 13.5842 43.457 13.0839 43.0593 12.7054C42.6681 12.3206 42.0523 12.0095 41.212 11.7722L37.7581 10.7908C35.526 10.1494 34.4099 8.93394 34.4099 7.14443C34.4099 6.0412 34.8781 5.1432 35.8146 4.45043C36.7575 3.75129 38.0178 3.40172 39.5956 3.40172C41.1736 3.40172 42.4468 3.74167 43.4152 4.42157C44.3902 5.09504 45.0027 6.02188 45.2529 7.20206C45.2785 7.36241 45.2112 7.44258 45.0508 7.44258H43.8097C43.6942 7.44258 43.614 7.37524 43.5692 7.24054C43.0175 5.59852 41.7058 4.77751 39.634 4.77751C38.5436 4.77751 37.6937 4.98917 37.0842 5.41251C36.4813 5.82942 36.1798 6.35538 36.1798 6.99038C36.1798 7.61896 36.3755 8.11605 36.7667 8.48166C37.1644 8.84727 37.7898 9.15516 38.6429 9.40531L42.0968 10.3963C44.3161 11.0249 45.4258 12.2403 45.4258 14.0427C45.4258 15.1588 44.9415 16.0632 43.973 16.756C43.0108 17.4423 41.6896 17.7854 40.0091 17.7854C38.3286 17.7854 36.988 17.4487 35.9875 16.7752C35.4872 16.4417 35.0478 16.0183 34.6694 15.5052C34.2973 14.9856 34.1115 14.4565 34.1115 13.9177Z" fill="#FF6600"/>
<path d="M48.3985 17.2952V3.89283C48.3985 3.75813 48.4627 3.69078 48.591 3.69078H49.9764C50.1047 3.69078 50.1688 3.75813 50.1688 3.89283V8.12618C50.2201 8.04921 50.3773 7.90168 50.6403 7.6836C50.9033 7.46553 51.1566 7.28914 51.4004 7.15443C52.0225 6.82089 52.7281 6.65412 53.517 6.65412C54.8448 6.65412 55.9319 7.06462 56.7785 7.88563C57.6252 8.70664 58.0485 9.83876 58.0485 11.282V17.2953C58.0485 17.4236 57.9844 17.4877 57.8561 17.4877H56.4707C56.3424 17.4877 56.2782 17.4236 56.2782 17.2953V11.282C56.2782 10.2429 56.0088 9.44116 55.4701 8.87676C54.9313 8.31231 54.2482 8.03009 53.4207 8.03009C52.8434 8.03009 52.2822 8.19045 51.737 8.51116C51.1918 8.83187 50.7941 9.13334 50.544 9.41556C50.2938 9.69778 50.1687 9.86135 50.1687 9.90624V17.2953C50.1687 17.4236 50.1046 17.4878 49.9763 17.4878H48.5909C48.4626 17.4878 48.3985 17.4235 48.3985 17.2952Z" fill="#FF6600"/>
<path d="M66.1205 17.7854C64.5875 17.7854 63.3495 17.3043 62.4066 16.3422C61.4702 15.3737 61.002 13.9947 61.002 12.2052C61.002 10.4092 61.4702 9.03653 62.4066 8.08722C63.3495 7.13152 64.5875 6.65367 66.1205 6.65367C67.6599 6.65367 68.8978 7.13152 69.8343 8.08722C70.7772 9.03651 71.2486 10.4092 71.2486 12.2052C71.2486 13.9948 70.7772 15.3738 69.8343 16.3422C68.8978 17.3043 67.6599 17.7854 66.1205 17.7854ZM66.1205 8.02938C65.1263 8.02938 64.3181 8.37894 63.696 9.07808C63.0802 9.77081 62.7723 10.8099 62.7723 12.1953C62.7723 13.5808 63.0802 14.6295 63.696 15.3414C64.3181 16.047 65.1263 16.3997 66.1205 16.3997C67.1211 16.3997 67.9292 16.047 68.545 15.3414C69.1671 14.6294 69.4782 13.5807 69.4782 12.1953C69.4782 10.8098 69.1671 9.77076 68.545 9.07808C67.9292 8.37894 67.121 8.02938 66.1205 8.02938Z" fill="#FF6600"/>
<path d="M78.7416 17.7854C77.2086 17.7854 75.9706 17.3043 75.0277 16.3422C74.0913 15.3737 73.623 13.9947 73.623 12.2052C73.623 10.4092 74.0913 9.03653 75.0277 8.08722C75.9706 7.13152 77.2086 6.65367 78.7416 6.65367C80.281 6.65367 81.5189 7.13152 82.4554 8.08722C83.3983 9.03651 83.8697 10.4092 83.8697 12.2052C83.8697 13.9948 83.3983 15.3738 82.4554 16.3422C81.5189 17.3043 80.281 17.7854 78.7416 17.7854ZM78.7416 8.02938C77.7474 8.02938 76.9392 8.37894 76.3171 9.07808C75.7013 9.77081 75.3934 10.8099 75.3934 12.1953C75.3934 13.5808 75.7013 14.6295 76.3171 15.3414C76.9392 16.047 77.7474 16.3997 78.7416 16.3997C79.7422 16.3997 80.5504 16.047 81.1661 15.3414C81.7883 14.6294 82.0993 13.5807 82.0993 12.1953C82.0993 10.8098 81.7883 9.77076 81.1661 9.07808C80.5503 8.37894 79.7421 8.02938 78.7416 8.02938Z" fill="#FF6600"/>
<path d="M87.0373 13.4448V3.89087C87.0373 3.75618 87.1014 3.68883 87.2297 3.68883H88.6151C88.7434 3.68883 88.8076 3.75618 88.8076 3.89087V6.94285H92.8292C92.9575 6.94285 93.0216 7.01019 93.0216 7.14489V8.12625C93.0216 8.26095 92.9575 8.32829 92.8292 8.32829H88.8076V13.4468C88.8076 14.4218 89.0321 15.1594 89.4811 15.6596C89.9365 16.1535 90.5651 16.4004 91.3668 16.4004C92.0724 16.4004 92.7042 16.3042 93.2622 16.1118L93.5412 16.0059C93.6695 15.9546 93.7336 16.0092 93.7336 16.1695V17.1316C93.7336 17.2407 93.6695 17.3273 93.5412 17.3914C92.8806 17.6544 92.0916 17.7859 91.1743 17.7859C89.9107 17.7859 88.9037 17.3882 88.1532 16.5928C87.4091 15.7975 87.0371 14.7488 87.0371 13.4467L87.0373 13.4448Z" fill="#FF6600"/>
<path d="M96.1074 4.0833C96.1074 3.82032 96.2389 3.68883 96.5019 3.68883H97.7815C97.9291 3.68883 98.0317 3.7209 98.0894 3.78504C98.1471 3.84277 98.176 3.94219 98.176 4.0833V5.36291C98.176 5.51043 98.1471 5.61305 98.0894 5.67078C98.0317 5.72851 97.929 5.75737 97.7815 5.75737H96.5019C96.3608 5.75737 96.2582 5.72851 96.194 5.67078C96.1363 5.61305 96.1074 5.51043 96.1074 5.36291V4.0833ZM96.2517 17.2933V7.14294C96.2517 7.00824 96.3159 6.94089 96.4442 6.94089H97.82C97.9547 6.94089 98.0221 7.00824 98.0221 7.14294V17.2933C98.0221 17.4215 97.9547 17.4857 97.82 17.4857H96.4442C96.3159 17.4857 96.2517 17.4215 96.2517 17.2933Z" fill="#FF6600"/>
<path d="M101.727 17.2948V7.73125C101.727 6.41635 102.121 5.36764 102.91 4.58514C103.699 3.79619 104.815 3.40172 106.258 3.40172C107.31 3.40172 108.166 3.55887 108.827 3.87316C108.955 3.9373 109.02 4.02068 109.02 4.12331V5.09506C109.02 5.25541 108.955 5.30672 108.827 5.249C108.173 4.93471 107.384 4.77757 106.46 4.77757C104.491 4.77757 103.506 5.76212 103.506 7.73123V8.42397H107.519C107.647 8.42397 107.714 8.48811 107.721 8.61639V9.60739C107.721 9.73567 107.653 9.79981 107.519 9.79981H103.506V17.2947C103.506 17.4229 103.439 17.4871 103.304 17.4871H101.929C101.794 17.4871 101.727 17.4231 101.727 17.2948Z" fill="#FF6600"/>
<path d="M109.455 7.14478C109.442 7.11912 109.436 7.09347 109.436 7.06781C109.436 6.98443 109.493 6.94273 109.609 6.94273H110.936C111.09 6.94273 111.187 7.01008 111.225 7.14478L113.419 13.4466C113.707 14.2612 114.038 14.8449 114.41 15.1977C114.782 15.544 115.292 15.7172 115.94 15.7172L118.201 7.14478C118.239 7.01008 118.339 6.94273 118.499 6.94273H119.817C119.939 6.94273 120 6.98443 120 7.06781C120 7.09347 119.993 7.11912 119.981 7.14478L117.354 17.093C116.988 18.4721 116.501 19.4727 115.892 20.0949C115.289 20.7234 114.496 21.0377 113.515 21.0377C112.829 21.0377 112.197 20.9383 111.62 20.7395L111.35 20.6433C111.216 20.5727 111.148 20.4861 111.148 20.3835V19.4214C111.148 19.261 111.216 19.2065 111.35 19.2578C112.005 19.5208 112.646 19.6523 113.275 19.6523C113.91 19.6523 114.394 19.4695 114.727 19.1039C115.061 18.7383 115.346 18.068 115.584 17.093C114.557 17.093 113.762 16.8236 113.198 16.2849C112.633 15.7461 112.114 14.7935 111.639 13.4273L109.455 7.14478Z" fill="#FF6600"/>
<path d="M25.3047 1.02529C25.2642 1.02332 25.2229 1.02704 25.1996 1.0347C25.1784 1.04164 25.143 1.05789 25.1209 1.07085C25.0988 1.08373 25.0673 1.10975 25.0508 1.12855C25.0343 1.14727 25.0101 1.18543 24.997 1.21328C24.9766 1.25674 24.9733 1.27636 24.9733 1.35068C24.9733 1.42792 24.9761 1.44289 24.999 1.48763C25.0133 1.5152 25.0338 1.54779 25.0447 1.55984C25.0556 1.57199 25.8034 2.19745 26.7062 2.94982L28.3479 4.3178L17.1384 4.3179C9.93796 4.3179 5.88304 4.32118 5.80093 4.32685C5.73064 4.33177 5.6197 4.34237 5.55443 4.3504C5.48915 4.35835 5.35568 4.3808 5.25773 4.40025C5.15986 4.41969 5.0148 4.4543 4.93546 4.47721C4.85612 4.50013 4.73962 4.53756 4.67662 4.56038C4.61363 4.58321 4.51832 4.62055 4.46482 4.64337C4.41132 4.66611 4.30396 4.7165 4.2261 4.75539C4.14831 4.79419 4.02763 4.8602 3.95794 4.90202C3.8882 4.94392 3.78137 5.01312 3.72057 5.05576C3.65967 5.09848 3.57121 5.16413 3.52401 5.20165C3.47671 5.23917 3.40486 5.29906 3.36423 5.33476C3.32351 5.37046 3.25577 5.43254 3.21359 5.47271C3.17141 5.51288 3.09509 5.59149 3.04397 5.64735C2.99275 5.70323 2.91187 5.79772 2.86412 5.85734C2.81637 5.91696 2.74242 6.01556 2.69979 6.07645C2.65715 6.13725 2.58804 6.24406 2.54614 6.31382C2.50423 6.38348 2.43813 6.50408 2.39924 6.58197C2.36025 6.65976 2.30995 6.76721 2.28722 6.8207C2.26458 6.8742 2.22742 6.96933 2.20478 7.03196C2.18205 7.09468 2.14489 7.20999 2.12215 7.28823C2.09951 7.36656 2.06655 7.50049 2.04893 7.58594C2.0314 7.67139 2.00876 7.80395 1.99872 7.88054C1.98878 7.95714 1.97636 8.07939 1.97133 8.15224C1.96623 8.225 1.96212 8.34825 1.96212 8.42613C1.96212 8.50392 1.96623 8.62716 1.97133 8.70001C1.97635 8.77278 1.98878 8.89512 1.99872 8.97171C2.00877 9.04831 2.03141 9.18088 2.04893 9.26632C2.06656 9.35177 2.09951 9.48571 2.12215 9.56403C2.14489 9.64227 2.18205 9.75757 2.20478 9.82029C2.22742 9.88292 2.26385 9.97595 2.28567 10.027C2.3075 10.0779 2.34811 10.1668 2.37596 10.2246C2.4038 10.2823 2.45119 10.3735 2.48132 10.4273C2.51135 10.481 2.56686 10.5737 2.60466 10.6334C2.64245 10.6931 2.71576 10.7991 2.76771 10.8689C2.81957 10.9389 2.90064 11.0413 2.94774 11.0965C2.99485 11.1518 3.09318 11.2568 3.1664 11.33C3.23953 11.4032 3.34443 11.5014 3.39948 11.5484C3.45453 11.5953 3.55313 11.6735 3.61859 11.7223C3.68405 11.771 3.77872 11.8375 3.82893 11.8701C3.87915 11.9026 3.96132 11.953 4.01153 11.982C4.06174 12.0111 4.16244 12.0646 4.23519 12.101C4.30804 12.1374 4.41076 12.1857 4.46343 12.2082C4.5162 12.2306 4.61252 12.2683 4.67762 12.2919C4.74262 12.3154 4.85975 12.3531 4.9378 12.3755C5.01586 12.398 5.1475 12.4302 5.2303 12.4471C5.3132 12.4641 5.44467 12.4865 5.52245 12.4969C5.60033 12.5074 5.72358 12.5201 5.79634 12.5252C5.88344 12.5312 8.95385 12.5343 14.7763 12.5344C20.6672 12.5345 23.6633 12.5376 23.7415 12.5437C23.8063 12.5488 23.9066 12.5592 23.9642 12.567C24.022 12.5746 24.1295 12.5931 24.2031 12.608C24.2768 12.623 24.3938 12.6519 24.4633 12.6721C24.5327 12.6925 24.6451 12.7296 24.7129 12.7548C24.7807 12.78 24.9069 12.8349 24.9934 12.8769C25.08 12.9188 25.1909 12.9767 25.2399 13.0054C25.2889 13.0342 25.3661 13.0825 25.4113 13.1127C25.4565 13.1429 25.5325 13.1972 25.5802 13.2332C25.6279 13.2694 25.7123 13.338 25.7677 13.3858C25.8231 13.4335 25.9172 13.5235 25.9767 13.5855C26.0362 13.6476 26.1278 13.7519 26.1801 13.8172C26.2325 13.8825 26.3032 13.977 26.3372 14.0272C26.3713 14.0774 26.4251 14.1615 26.4569 14.2143C26.4887 14.267 26.5506 14.3841 26.5945 14.4745C26.6384 14.5649 26.6953 14.695 26.7208 14.7636C26.7462 14.8324 26.7816 14.9392 26.7995 15.001C26.8173 15.0629 26.8439 15.167 26.8584 15.2323C26.8731 15.2975 26.8931 15.4085 26.9033 15.4788C26.9133 15.5491 26.9264 15.6702 26.9323 15.7481C26.9387 15.8329 26.9408 15.9646 26.9376 16.0768C26.9346 16.1797 26.9258 16.3173 26.9181 16.3826C26.9102 16.4479 26.8955 16.5485 26.8853 16.6063C26.8751 16.664 26.8499 16.777 26.8295 16.8574C26.809 16.9377 26.7737 17.0569 26.7511 17.1221C26.7284 17.1874 26.6916 17.2835 26.6694 17.3357C26.6471 17.3879 26.6008 17.4865 26.5665 17.5548C26.5321 17.6232 26.4766 17.724 26.4431 17.7792C26.4096 17.8342 26.3549 17.9184 26.3215 17.9663C26.2882 18.0142 26.2197 18.1047 26.1695 18.1675C26.1192 18.2302 26.0164 18.3436 25.941 18.4193C25.8656 18.495 25.7641 18.5901 25.7154 18.6305C25.6667 18.671 25.5837 18.7357 25.5308 18.7742C25.4778 18.8127 25.3821 18.8774 25.3179 18.9176C25.2538 18.958 25.1191 19.0315 25.0187 19.0809C24.9183 19.1303 24.78 19.1914 24.7113 19.2168C24.6426 19.2423 24.5358 19.2776 24.474 19.2955C24.4121 19.3133 24.308 19.3399 24.2427 19.3544C24.1774 19.369 24.0665 19.3891 23.9962 19.3991C23.9259 19.4092 23.8131 19.4217 23.7456 19.4269C23.6611 19.4335 20.1349 19.4365 12.4178 19.4365H1.21263L2.14641 18.6586C2.65995 18.2307 3.39646 17.6171 3.7831 17.295C4.16974 16.9729 4.49714 16.6975 4.51064 16.6829C4.52415 16.6684 4.54626 16.6324 4.55977 16.603C4.57428 16.5713 4.58606 16.5264 4.5888 16.4928C4.59182 16.4548 4.58836 16.4183 4.57794 16.382C4.56953 16.3522 4.54799 16.3063 4.5301 16.2799C4.51075 16.2514 4.47605 16.2177 4.44446 16.1966C4.41516 16.177 4.36996 16.1559 4.34404 16.1497C4.31802 16.1434 4.27154 16.1404 4.24059 16.1429C4.20517 16.1457 4.16665 16.1564 4.13624 16.1718C4.10685 16.1867 3.30973 16.8448 2.09142 17.8601C0.993294 18.7753 0.0828912 19.5383 0.0684414 19.5555C0.0539259 19.5729 0.0339323 19.6055 0.0238897 19.6281C0.0132932 19.6521 0.0038123 19.6984 0.00124636 19.7391C-0.00203769 19.7897 0.00102881 19.8226 0.012107 19.8578C0.0205142 19.8847 0.0410487 19.9254 0.0575741 19.9482C0.0768405 19.9747 0.798894 20.5822 2.0587 21.6318C3.14274 22.535 4.04932 23.292 4.07331 23.3142C4.09732 23.3363 4.13905 23.3645 4.16598 23.3768C4.193 23.3892 4.24139 23.4018 4.27353 23.4048C4.31525 23.4086 4.34729 23.4059 4.38509 23.3947C4.41421 23.3863 4.45301 23.3699 4.47127 23.3584C4.48953 23.3469 4.52002 23.3214 4.53901 23.3019C4.5581 23.2823 4.58476 23.2437 4.59836 23.2161C4.61999 23.1722 4.6231 23.1551 4.6231 23.0792C4.6231 23.0043 4.61982 22.9854 4.59873 22.9405C4.58539 22.9119 4.55664 22.8717 4.53482 22.8511C4.5131 22.8306 3.76026 22.2028 2.86174 21.456L1.22834 20.0984L12.5163 20.0933C21.3708 20.0894 23.8231 20.0858 23.8911 20.077C23.9389 20.0708 24.0322 20.0578 24.0986 20.048C24.165 20.0382 24.2698 20.0199 24.3314 20.0071C24.3931 19.9944 24.4908 19.9714 24.5485 19.956C24.6063 19.9406 24.6987 19.9136 24.7539 19.8959C24.8091 19.8783 24.9222 19.8371 25.005 19.8044C25.0879 19.7718 25.2283 19.7088 25.3172 19.6644C25.406 19.62 25.5313 19.552 25.5956 19.5134C25.66 19.4746 25.7372 19.4264 25.7673 19.4062C25.7974 19.3859 25.8673 19.3362 25.9225 19.2956C25.9778 19.2551 26.0722 19.1811 26.1325 19.1312C26.1928 19.0812 26.31 18.9724 26.3931 18.8893C26.476 18.8061 26.587 18.6862 26.6396 18.6229C26.6921 18.5595 26.7714 18.4579 26.8157 18.3971C26.86 18.3362 26.9331 18.2278 26.9779 18.1562C27.0228 18.0846 27.104 17.9376 27.1583 17.8297C27.2126 17.7217 27.2821 17.5695 27.3127 17.4914C27.3433 17.4134 27.3866 17.2901 27.4091 17.2175C27.4316 17.1449 27.4626 17.0342 27.4781 16.9715C27.4936 16.9087 27.5163 16.8019 27.5286 16.7341C27.5409 16.6663 27.5574 16.5616 27.565 16.5013C27.5728 16.441 27.5833 16.3321 27.5884 16.2594C27.5934 16.1865 27.5976 16.0633 27.5976 15.9855C27.5976 15.9076 27.5934 15.7844 27.5884 15.7116C27.5833 15.6387 27.5728 15.5299 27.565 15.4697C27.5574 15.4094 27.5409 15.3046 27.5286 15.2369C27.5163 15.169 27.4936 15.0622 27.4781 14.9995C27.4626 14.9367 27.4316 14.826 27.4091 14.7534C27.3866 14.6809 27.3432 14.5576 27.3126 14.4796C27.282 14.4015 27.2126 14.2492 27.1584 14.1413C27.1042 14.0333 27.0231 13.8864 26.9781 13.8148C26.9332 13.7432 26.86 13.6348 26.8157 13.5739C26.7714 13.5131 26.6921 13.4115 26.6395 13.3481C26.5869 13.2848 26.476 13.1648 26.393 13.0816C26.31 12.9985 26.1949 12.8912 26.1371 12.8432C26.0794 12.7953 25.9808 12.7183 25.9179 12.6719C25.8552 12.6256 25.7553 12.557 25.6961 12.5194C25.6368 12.4819 25.5444 12.4266 25.4907 12.3964C25.4369 12.3663 25.3417 12.3168 25.2789 12.2864C25.2162 12.2559 25.1113 12.2093 25.0461 12.1827C24.9808 12.1561 24.8781 12.1174 24.8179 12.0966C24.7578 12.0759 24.6508 12.0431 24.5803 12.0238C24.5098 12.0044 24.3905 11.976 24.3154 11.9606C24.2403 11.9452 24.1151 11.9244 24.0372 11.9145C23.9594 11.9046 23.8773 11.8936 23.8546 11.8901C23.8321 11.8865 19.7585 11.8812 14.8027 11.878L5.79168 11.8723L5.67299 11.8563C5.60771 11.8476 5.51943 11.8341 5.4767 11.8265C5.43407 11.8189 5.35382 11.8027 5.2985 11.7905C5.24317 11.7784 5.1474 11.7538 5.08559 11.7361C5.02378 11.7183 4.91705 11.6828 4.8483 11.6571C4.77965 11.6315 4.66069 11.5803 4.58392 11.5435C4.50714 11.5066 4.40653 11.455 4.36025 11.4289C4.31406 11.4027 4.21865 11.3433 4.14835 11.297C4.07805 11.2506 3.96504 11.1682 3.89728 11.1139C3.82953 11.0596 3.70811 10.9493 3.62759 10.8687C3.54697 10.7882 3.43678 10.6667 3.38264 10.599C3.3285 10.5312 3.25227 10.4285 3.21328 10.3708C3.17421 10.313 3.11879 10.2256 3.09003 10.1766C3.06137 10.1276 3.00348 10.0166 2.96158 9.93009C2.91958 9.84354 2.86444 9.71664 2.83897 9.64799C2.8134 9.57925 2.77798 9.47243 2.76009 9.41062C2.74229 9.34872 2.71571 9.24464 2.7012 9.17938C2.6866 9.1141 2.66651 9.00318 2.65646 8.93288C2.64641 8.86258 2.63391 8.74982 2.62871 8.68228C2.62341 8.61472 2.61912 8.49951 2.61912 8.4262C2.61912 8.35289 2.62341 8.23768 2.62871 8.17011C2.63392 8.10255 2.64642 7.9898 2.65646 7.91951C2.66651 7.84921 2.68659 7.73828 2.7012 7.67301C2.71571 7.60773 2.74228 7.50365 2.76009 7.44177C2.77798 7.37996 2.8134 7.27315 2.83897 7.2044C2.86444 7.13575 2.91958 7.00883 2.96158 6.9223C3.00348 6.83575 3.06137 6.72483 3.09012 6.6758C3.11888 6.62678 3.16718 6.54963 3.19731 6.50444C3.22753 6.45925 3.27691 6.38941 3.30713 6.34924C3.33735 6.30907 3.39286 6.23922 3.43048 6.19403C3.46809 6.14884 3.56076 6.05014 3.63643 5.97474C3.71212 5.89924 3.82952 5.79325 3.89728 5.73902C3.96502 5.68479 4.06161 5.61257 4.11182 5.57852C4.16204 5.54446 4.24631 5.4906 4.29898 5.45883C4.35175 5.42705 4.4688 5.36516 4.55917 5.32134C4.64955 5.27751 4.77964 5.22073 4.84832 5.19516C4.91707 5.1696 5.02378 5.13409 5.0856 5.11628C5.14741 5.09857 5.24318 5.07401 5.2985 5.06187C5.35383 5.04972 5.43408 5.03348 5.47672 5.02572C5.51945 5.01805 5.60572 5.00472 5.66844 4.99614L5.78256 4.98044L17.0576 4.97779L28.3326 4.97514L28.31 4.99686C28.2976 5.00881 27.5746 5.61155 26.7033 6.33618C25.8322 7.06088 25.096 7.67149 25.0676 7.6931C25.0393 7.71464 25.0032 7.7518 24.9875 7.77554C24.9717 7.79928 24.9523 7.8411 24.9444 7.86839C24.9346 7.90199 24.9313 7.93951 24.9342 7.98425C24.9372 8.03081 24.9457 8.06513 24.9627 8.10001C24.976 8.12722 25.0016 8.16465 25.0197 8.18327C25.0378 8.20191 25.068 8.22682 25.0868 8.23869C25.1056 8.25064 25.143 8.26681 25.1698 8.27484C25.1966 8.28279 25.234 8.28927 25.2529 8.28927C25.2719 8.28927 25.3077 8.28489 25.3325 8.27959C25.3573 8.2743 25.3982 8.25677 25.4234 8.24079C25.4485 8.22481 26.3692 7.46094 27.4692 6.54327C28.8068 5.42753 29.4797 4.86053 29.5009 4.83145C29.5182 4.80754 29.5394 4.76599 29.5478 4.73915C29.559 4.70391 29.562 4.67104 29.5587 4.62046C29.556 4.57847 29.5467 4.53346 29.5352 4.50753C29.5247 4.4838 29.4999 4.44673 29.4799 4.425C29.4599 4.40337 28.5541 3.64415 27.4668 2.73799C26.055 1.56127 25.4732 1.08152 25.4308 1.05936C25.3825 1.03416 25.359 1.02784 25.3047 1.02529Z" fill="#FF6600"/>
</g>
<defs>
<clipPath id="clip0_138_981">
<rect width="120" height="23" fill="white" transform="translate(0 0.889999)"/>
</clipPath>
</defs>
</svg>
