<svg width="8" height="12" viewBox="0 0 8 12" fill="none" xmlns="http://www.w3.org/2000/svg">
  <path d="M0.616527 0.248602C0.449202 0.414646 0.35466 0.640247 0.353683 0.87598C0.352714 1.11171 0.445398 1.33811 0.611345 1.50549L4.99319 5.92359L0.575069 10.3054C0.412456 10.4724 0.321941 10.6965 0.323007 10.9296C0.324065 11.1627 0.416634 11.386 0.580758 11.5515C0.744883 11.717 0.967443 11.8114 1.20049 11.8144C1.43355 11.8174 1.65845 11.7287 1.82677 11.5675L6.87594 6.55979C7.04323 6.39379 7.13781 6.16813 7.1387 5.93243C7.13967 5.69674 7.04705 5.4703 6.8811 5.30292L1.87341 0.253758C1.70741 0.0864689 1.48174 -0.00810897 1.24604 -0.00908674C1.01034 -0.0100645 0.783904 0.0826465 0.616527 0.248602Z" fill="#2ECC71" />
</svg>