<svg width="20" height="18" viewBox="0 0 20 18" fill="none" xmlns="http://www.w3.org/2000/svg">
<path d="M18.75 7.7496H3.925L8.4625 2.29961C8.6747 2.04434 8.7768 1.71524 8.7463 1.38471C8.7158 1.05417 8.5553 0.749288 8.3 0.537108C8.0447 0.324938 7.7156 0.222858 7.3851 0.253338C7.0546 0.283808 6.7497 0.444338 6.5375 0.699608L0.2875 8.1996C0.24545 8.2593 0.20785 8.3219 0.175 8.3871C0.175 8.4496 0.175 8.4871 0.0875001 8.5496C0.0308401 8.6929 0.00118 8.8455 0 8.9996C0.00118 9.1537 0.0308401 9.3063 0.0875001 9.4496C0.0875001 9.5121 0.0875002 9.5496 0.175 9.6121C0.20785 9.6773 0.24545 9.74 0.2875 9.7996L6.5375 17.2996C6.655 17.4407 6.8022 17.5542 6.9686 17.632C7.1349 17.7097 7.3164 17.7499 7.5 17.7496C7.7921 17.7502 8.0751 17.6485 8.3 17.4621C8.4266 17.3572 8.5312 17.2283 8.6079 17.0829C8.6846 16.9374 8.7318 16.7783 8.7469 16.6146C8.762 16.4509 8.7447 16.2858 8.6959 16.1288C8.6471 15.9718 8.5678 15.8259 8.4625 15.6996L3.925 10.2496H18.75C19.0815 10.2496 19.3995 10.1179 19.6339 9.8835C19.8683 9.6491 20 9.3311 20 8.9996C20 8.6681 19.8683 8.3501 19.6339 8.1157C19.3995 7.8813 19.0815 7.7496 18.75 7.7496Z" fill="#D9D9D9"/>
</svg>
