<svg xmlns="http://www.w3.org/2000/svg" width="40" height="40" viewBox="0 0 40 40" fill="none">
  <path d="M8 20.2361C8 18.7493 9.56463 17.7823 10.8944 18.4472L16.8944 21.4472C17.572 21.786 18 22.4785 18 23.2361V30.7639C18 32.2507 16.4354 33.2177 15.1056 32.5528L9.10557 29.5528C8.42801 29.214 8 28.5215 8 27.7639V20.2361Z" stroke="#2ECC71"/>
  <path d="M18.3238 7.77365C19.3873 7.28276 20.6127 7.28276 21.6762 7.77365L29.0655 11.1841C30.6147 11.8991 30.6147 14.1009 29.0655 14.8159L21.6762 18.2264C20.6127 18.7172 19.3873 18.7172 18.3238 18.2264L10.9345 14.8159C9.38531 14.1009 9.38531 11.8991 10.9345 11.1841L18.3238 7.77365Z" stroke="#2ECC71"/>
  <path d="M32 20.2361C32 18.7493 30.4354 17.7823 29.1056 18.4472L23.1056 21.4472C22.428 21.786 22 22.4785 22 23.2361V30.7639C22 32.2507 23.5646 33.2177 24.8944 32.5528L30.8944 29.5528C31.572 29.214 32 28.5215 32 27.7639V20.2361Z" stroke="#2ECC71"/>
</svg>