<svg xmlns="http://www.w3.org/2000/svg" width="40" height="40" viewBox="0 0 40 40" fill="none">
  <path d="M14.1243 9.06901C14.7686 7.32777 17.2314 7.32777 17.8757 9.06901L19.192 12.6263C19.3946 13.1738 19.8262 13.6054 20.3737 13.808L23.931 15.1243C25.6722 15.7686 25.6722 18.2314 23.931 18.8757L20.3737 20.192C19.8262 20.3946 19.3946 20.8262 19.192 21.3737L17.8757 24.931C17.2314 26.6722 14.7686 26.6722 14.1243 24.931L12.808 21.3737C12.6054 20.8262 12.1738 20.3946 11.6263 20.192L8.06901 18.8757C6.32777 18.2314 6.32777 15.7686 8.06901 15.1243L11.6263 13.808C12.1738 13.6054 12.6054 13.1738 12.808 12.6263L14.1243 9.06901Z" stroke="#FF6600"/>
  <path d="M26.0621 21.5345C26.3843 20.6639 27.6157 20.6639 27.9379 21.5345L29.0012 24.408C29.1024 24.6818 29.3182 24.8976 29.592 24.9988L32.4655 26.0621C33.3361 26.3843 33.3361 27.6157 32.4655 27.9379L29.592 29.0012C29.3182 29.1024 29.1024 29.3182 29.0012 29.592L27.9379 32.4655C27.6157 33.3361 26.3843 33.3361 26.0621 32.4655L24.9988 29.592C24.8976 29.3182 24.6818 29.1024 24.408 29.0012L21.5345 27.9379C20.6639 27.6157 20.6639 26.3843 21.5345 26.0621L24.408 24.9988C24.6818 24.8976 24.8976 24.6818 24.9988 24.408L26.0621 21.5345Z" stroke="#FF6600"/>
  <path d="M26.5311 6.26725C26.6922 5.83194 27.3078 5.83194 27.4689 6.26725L28.0006 7.70402C28.0512 7.84088 28.1591 7.94878 28.296 7.99942L29.7327 8.53107C30.1681 8.69215 30.1681 9.30785 29.7327 9.46893L28.296 10.0006C28.1591 10.0512 28.0512 10.1591 28.0006 10.296L27.4689 11.7327C27.3078 12.1681 26.6922 12.1681 26.5311 11.7327L25.9994 10.296C25.9488 10.1591 25.8409 10.0512 25.704 10.0006L24.2673 9.46893C23.8319 9.30785 23.8319 8.69215 24.2673 8.53107L25.704 7.99942C25.8409 7.94878 25.9488 7.84088 25.9994 7.70402L26.5311 6.26725Z" stroke="#FF6600"/>
</svg>