<svg xmlns="http://www.w3.org/2000/svg" width="32" height="32" viewBox="0 0 32 32" fill="none">
  <path d="M9.33329 7.99998L12.6666 9.33331C12.6666 9.33331 13.3333 6.66665 16 6.66665C18.1333 6.66665 18.888 9.15331 18.6666 11.3333C9.99996 11.3333 8.66663 15.3333 8.66663 17.3333C8.66663 19.3333 9.99996 22.6666 14 22.6666C17.3333 22.6666 19.3333 20 19.3333 20L20.6666 22L24 19.3333C24 19.3333 22.6666 18.2226 22.6666 16.6666V12C22.6666 12 23.5573 3.33331 16 3.33331C10.1333 3.33331 9.33329 7.99998 9.33329 7.99998Z" stroke="#FF6600" stroke-linecap="round" stroke-linejoin="round"/>
  <path d="M18 14.4746C18 16.4746 16.7733 19.1413 14.9346 19.1413C12.408 19.1413 12.4826 14.4746 18 14.4746ZM2.66663 23.3333C2.66663 23.3333 14 31.4453 25.3333 26.0373C25.3333 26.0373 14 33.4746 2.66663 23.3333Z" stroke="#FF6600" stroke-linecap="round" stroke-linejoin="round"/>
  <path d="M29.32 23.604C29.5147 25.4667 27.5213 28 27.5213 28C27.5213 28 28.828 25.8773 28.5667 23.604C26.4267 22.7533 24 23.72 24 23.72C24 23.72 26.0027 22.2467 28.5653 22.7853C28.7615 22.8246 28.9402 22.9249 29.0757 23.072C29.2113 23.2191 29.2968 23.4053 29.32 23.604Z" stroke="#FF6600" stroke-linejoin="round"/>
</svg>