<svg xmlns="http://www.w3.org/2000/svg" width="13" height="8" viewBox="0 0 13 8" fill="none">
  <path d="M12.2512 1.10659C12.0851 0.939262 11.8595 0.84472 11.6238 0.843742C11.388 0.842773 11.1616 0.935457 10.9943 1.1014L6.57617 5.48324L2.19434 1.06513C2.02737 0.902515 1.80321 0.812 1.57013 0.813066C1.33706 0.814124 1.11374 0.906693 0.948255 1.07082C0.782771 1.23494 0.688362 1.4575 0.685375 1.69055C0.682398 1.92361 0.771064 2.14851 0.932291 2.31683L5.93996 7.366C6.10596 7.53329 6.33162 7.62787 6.56732 7.62876C6.80302 7.62973 7.02946 7.53711 7.19683 7.37115L12.246 2.36347C12.4133 2.19747 12.5079 1.9718 12.5088 1.7361C12.5098 1.5004 12.4171 1.27396 12.2512 1.10659Z" fill="#252422"/>
</svg>