<svg width="54" height="54" viewBox="0 0 54 54" fill="none" xmlns="http://www.w3.org/2000/svg">
  <rect width="54" height="54" rx="16" fill="#EBECFF" />
  <path d="M16.6875 15C15.4443 15 14.252 15.4939 13.3729 16.3729C12.4939 17.252 12 18.4443 12 19.6875V34.3125C12 35.5557 12.4939 36.748 13.3729 37.6271C14.252 38.5061 15.4443 39 16.6875 39H37.3125C38.5557 39 39.748 38.5061 40.6271 37.6271C41.5061 36.748 42 35.5557 42 34.3125V19.6875C42 18.4443 41.5061 17.252 40.6271 16.3729C39.748 15.4939 38.5557 15 37.3125 15H16.6875ZM13.875 19.6875C13.875 18.9416 14.1713 18.2262 14.6988 17.6988C15.2262 17.1713 15.9416 16.875 16.6875 16.875H37.3125C38.0584 16.875 38.7738 17.1713 39.3012 17.6988C39.8287 18.2262 40.125 18.9416 40.125 19.6875V20.355L27.0015 27.2625L13.875 20.2972V19.6875ZM13.875 22.4205L26.5605 29.151C26.6954 29.2226 26.8456 29.2601 26.9983 29.2604C27.151 29.2606 27.3014 29.2236 27.4365 29.1525L40.125 22.4738V34.3125C40.125 35.0584 39.8287 35.7738 39.3012 36.3012C38.7738 36.8287 38.0584 37.125 37.3125 37.125H16.6875C15.9416 37.125 15.2262 36.8287 14.6988 36.3012C14.1713 35.7738 13.875 35.0584 13.875 34.3125V22.4205Z" fill="#797DFF" />
</svg>