<svg width="54" height="54" viewBox="0 0 54 54" fill="none" xmlns="http://www.w3.org/2000/svg">
  <rect width="54" height="54" rx="16" fill="#EBECFF" />
  <path d="M14.907 15.9231V15C14.6664 15 14.4357 15.0973 14.2656 15.2704C14.0956 15.4435 14 15.6783 14 15.9231H14.907ZM28.2093 15.9231H29.1163C29.1163 15.6783 29.0207 15.4435 28.8506 15.2704C28.6805 15.0973 28.4498 15 28.2093 15V15.9231ZM28.2093 23.3079V22.3848C27.9688 22.3848 27.7381 22.4821 27.568 22.6552C27.3979 22.8283 27.3023 23.0631 27.3023 23.3079H28.2093ZM14.907 16.8462H28.2093V15H14.907V16.8462ZM27.3023 15.9231V35.616H29.1163V15.9231H27.3023ZM15.814 33.1544V15.9231H14V33.1544H15.814ZM28.2093 24.231H34.2558V22.3848H28.2093V24.231ZM38.186 28.2312V33.1544H40V28.2312H38.186ZM29.1163 35.616V23.3079H27.3023V35.616H29.1163ZM35.3248 36.704C35.1845 36.8469 35.0178 36.9603 34.8344 37.0376C34.651 37.115 34.4544 37.1548 34.2558 37.1548C34.0573 37.1548 33.8607 37.115 33.6772 37.0376C33.4938 36.9603 33.3272 36.8469 33.1868 36.704L31.9049 38.0087C32.5286 38.6434 33.3744 39 34.2564 39C35.1384 39 35.9842 38.6434 36.6079 38.0087L35.3248 36.704ZM33.1868 34.528C33.3272 34.3851 33.4938 34.2717 33.6772 34.1944C33.8607 34.117 34.0573 34.0772 34.2558 34.0772C34.4544 34.0772 34.651 34.117 34.8344 34.1944C35.0178 34.2717 35.1845 34.3851 35.3248 34.528L36.6067 33.2233C35.983 32.5886 35.1372 32.232 34.2552 32.232C33.3732 32.232 32.5274 32.5886 31.9037 33.2233L33.1868 34.528ZM20.8132 36.704C20.6728 36.8469 20.5062 36.9603 20.3228 37.0376C20.1393 37.115 19.9427 37.1548 19.7442 37.1548C19.5456 37.1548 19.349 37.115 19.1656 37.0376C18.9822 36.9603 18.8155 36.8469 18.6752 36.704L17.3933 38.0087C18.017 38.6434 18.8628 39 19.7448 39C20.6268 39 21.4726 38.6434 22.0963 38.0087L20.8132 36.704ZM18.6752 34.528C18.8155 34.3851 18.9822 34.2717 19.1656 34.1944C19.349 34.117 19.5456 34.0772 19.7442 34.0772C19.9427 34.0772 20.1393 34.117 20.3228 34.1944C20.5062 34.2717 20.6728 34.3851 20.8132 34.528L22.0951 33.2233C21.4714 32.5886 20.6256 32.232 19.7436 32.232C18.8616 32.232 18.0158 32.5886 17.3921 33.2233L18.6752 34.528ZM35.3248 34.528C35.6199 34.8283 35.7674 35.2209 35.7674 35.616H37.5814C37.5814 34.7507 37.2561 33.883 36.6079 33.2221L35.3248 34.528ZM35.7674 35.616C35.7674 36.0111 35.6199 36.4037 35.3248 36.704L36.6079 38.0087C36.9173 37.6949 37.1615 37.322 37.3287 36.9114C37.496 36.5008 37.5819 36.0605 37.5814 35.616H35.7674ZM31.8372 34.6929H28.2093V36.5391H31.8372V34.6929ZM33.1868 36.704C33.0459 36.5616 32.9342 36.392 32.8582 36.2052C32.7823 36.0184 32.7435 35.8182 32.7442 35.616H30.9302C30.9302 36.4813 31.2555 37.349 31.9037 38.0099L33.1868 36.704ZM32.7442 35.616C32.7442 35.2209 32.8917 34.8283 33.1868 34.528L31.9037 33.2233C31.5943 33.5371 31.3502 33.91 31.1829 34.3206C31.0156 34.7313 30.9297 35.1715 30.9302 35.616H32.7442ZM18.6752 36.704C18.5343 36.5616 18.4226 36.392 18.3466 36.2052C18.2706 36.0184 18.2319 35.8182 18.2326 35.616H16.4186C16.4186 36.4813 16.7439 37.349 17.3921 38.0099L18.6752 36.704ZM18.2326 35.616C18.2326 35.2209 18.3801 34.8283 18.6752 34.528L17.3933 33.2233C17.0839 33.5371 16.8385 33.91 16.6713 34.3206C16.504 34.7313 16.4181 35.1715 16.4186 35.616H18.2326ZM28.2093 34.6929H22.1628V36.5391H28.2093V34.6929ZM20.8132 34.528C21.1083 34.8283 21.2558 35.2209 21.2558 35.616H23.0698C23.0698 34.7507 22.7445 33.883 22.0963 33.2221L20.8132 34.528ZM21.2558 35.616C21.2558 36.0111 21.1083 36.4037 20.8132 36.704L22.0951 38.0087C22.4045 37.6949 22.6498 37.322 22.8171 36.9114C22.9844 36.5008 23.0703 36.0605 23.0698 35.616H21.2558ZM38.186 33.1544C38.186 34.0037 37.5088 34.6929 36.6744 34.6929V36.5391C37.5564 36.5391 38.4023 36.1825 39.026 35.5478C39.6496 34.913 40 34.0521 40 33.1544H38.186ZM34.2558 24.231C35.2982 24.231 36.2978 24.6525 37.0349 25.4027C37.772 26.1528 38.186 27.1703 38.186 28.2312H40C40 26.6806 39.3948 25.1936 38.3176 24.0972C37.2403 23.0008 35.7793 22.3848 34.2558 22.3848V24.231ZM14 33.1544C14 34.0521 14.3504 34.913 14.974 35.5478C15.5977 36.1825 16.4436 36.5391 17.3256 36.5391V34.6929C16.4912 34.6929 15.814 34.0037 15.814 33.1544H14Z" fill="#797DFF" />
</svg>