<svg width="54" height="54" viewBox="0 0 54 54" fill="none" xmlns="http://www.w3.org/2000/svg">
  <rect width="54" height="54" rx="16" fill="#EBECFF" />
  <path d="M27 32.568C26.816 32.568 26.6457 32.5377 26.4891 32.4771C26.3326 32.4166 26.18 32.3114 26.0314 32.1617L21.54 27.672C21.3731 27.5051 21.2863 27.3086 21.2794 27.0823C21.2726 26.856 21.3594 26.6486 21.54 26.46C21.7297 26.2703 21.9337 26.1737 22.152 26.1703C22.3714 26.1669 22.5754 26.26 22.764 26.4497L26.1429 29.8286V15.8572C26.1429 15.6137 26.2246 15.4097 26.388 15.2452C26.5514 15.0806 26.7554 14.9989 27 15C27.2446 15.0012 27.4486 15.0829 27.612 15.2452C27.7754 15.4074 27.8571 15.6114 27.8571 15.8572V29.8286L31.236 26.4497C31.4029 26.2829 31.6011 26.1954 31.8309 26.1874C32.0606 26.1794 32.2697 26.2703 32.4583 26.46C32.6411 26.6486 32.7343 26.8509 32.7377 27.0669C32.7411 27.2829 32.6486 27.4846 32.46 27.672L27.9686 32.1634C27.82 32.312 27.6674 32.4166 27.5109 32.4771C27.3554 32.5377 27.1851 32.568 27 32.568ZM17.7703 39C16.9806 39 16.3217 38.736 15.7937 38.208C15.2657 37.68 15.0011 37.0206 15 36.2297V32.9331C15 32.6897 15.0817 32.4863 15.2451 32.3229C15.4086 32.1594 15.6126 32.0771 15.8571 32.076C16.1017 32.0749 16.3057 32.1571 16.4691 32.3229C16.6326 32.4886 16.7143 32.692 16.7143 32.9331V36.2297C16.7143 36.4937 16.824 36.736 17.0434 36.9566C17.2629 37.1771 17.5046 37.2869 17.7686 37.2857H36.2314C36.4943 37.2857 36.736 37.176 36.9566 36.9566C37.1771 36.7371 37.2869 36.4949 37.2857 36.2297V32.9331C37.2857 32.6897 37.3674 32.4863 37.5309 32.3229C37.6943 32.1594 37.8983 32.0771 38.1429 32.076C38.3874 32.0749 38.5914 32.1571 38.7549 32.3229C38.9183 32.4886 39 32.692 39 32.9331V36.2297C39 37.0194 38.736 37.6783 38.208 38.2063C37.68 38.7343 37.0206 38.9989 36.2297 39H17.7703Z" fill="#797DFF" />
</svg>