<svg width="54" height="54" viewBox="0 0 54 54" fill="none" xmlns="http://www.w3.org/2000/svg">
<rect width="54" height="54" rx="16" fill="#EBECFF"/>
<path d="M27 38.6668C33.4434 38.6668 38.6667 33.4435 38.6667 27.0002C38.6667 20.5568 33.4434 15.3335 27 15.3335C20.5567 15.3335 15.3334 20.5568 15.3334 27.0002C15.3334 33.4435 20.5567 38.6668 27 38.6668Z" stroke="#797DFF" stroke-width="1.5"/>
<path d="M27 20V34M30.5 24.0833C30.5 22.4733 28.9332 21.1667 27 21.1667C25.0668 21.1667 23.5 22.4733 23.5 24.0833C23.5 25.6933 25.0668 27 27 27C28.9332 27 30.5 28.3067 30.5 29.9167C30.5 31.5267 28.9332 32.8333 27 32.8333C25.0668 32.8333 23.5 31.5267 23.5 29.9167" stroke="#797DFF" stroke-width="1.5" stroke-linecap="round"/>
</svg>
